<svg width="100" height="11" viewBox="0 0 100 11" fill="none" xmlns="http://www.w3.org/2000/svg">
<path d="M6.39779 3.70006L6.91061 4.58838L10.5705 10.9266H12.2962L6.39779 0.711182L0.5 10.9266H2.22564L6.39779 3.70006Z" fill="white"/>
<path d="M4.814 9.43286L3.95117 10.9273H8.84475L7.98193 9.43286H4.814Z" fill="#38A3A5"/>
<path d="M49.6982 5.04935L50.1153 5.77184L53.092 10.9269H54.4955L49.6982 2.61841L44.9014 10.9269H46.3049L49.6982 5.04935Z" fill="white"/>
<path d="M48.4107 9.71094L47.709 10.9264H51.6891L50.9873 9.71094H48.4107Z" fill="#38A3A5"/>
<path d="M56.658 5.02539V10.9335H55.3398V2.57739H56.4226L61.1538 8.61499V2.58916H62.4837V10.9335H61.3304L56.658 5.02539Z" fill="white"/>
<path d="M42.9971 10.9335V2.57739H44.3152V10.9335H42.9971Z" fill="white"/>
<path d="M35.5693 10.9335V2.57739H39.206C39.5826 2.57739 39.9279 2.65585 40.2417 2.81278C40.5556 2.9697 40.8262 3.17762 41.0538 3.43654C41.2892 3.69547 41.4696 3.98577 41.5952 4.30746C41.7285 4.62916 41.7952 4.95869 41.7952 5.29608C41.7952 5.66485 41.7285 6.01792 41.5952 6.3553C41.4618 6.69269 41.2696 6.98299 41.0185 7.22622C40.7752 7.46945 40.4889 7.64599 40.1593 7.75584L42.1248 10.9335H40.6419L38.8294 8.02653H36.8875V10.9335H35.5693ZM36.8875 6.86138H39.1942C39.4375 6.86138 39.6532 6.79076 39.8416 6.64953C40.0299 6.5083 40.1789 6.32 40.2888 6.08461C40.3986 5.84138 40.4536 5.57854 40.4536 5.29608C40.4536 5.00577 40.3908 4.74685 40.2652 4.51931C40.1397 4.28393 39.9749 4.09562 39.7709 3.95439C39.5748 3.81316 39.359 3.74254 39.1236 3.74254H36.8875V6.86138Z" fill="white"/>
<path d="M30.3929 2.57739H31.6405L34.8888 10.9335H33.5L32.6173 8.66207H29.3925L28.5216 10.9335H27.1211L30.3929 2.57739ZM32.3584 7.68522L31.0167 4.025L29.6279 7.68522H32.3584Z" fill="white"/>
<path d="M20.5527 10.9335V2.57739H24.1894C24.566 2.57739 24.9113 2.65585 25.2251 2.81278C25.5389 2.9697 25.8096 3.17762 26.0372 3.43654C26.2726 3.69547 26.453 3.98577 26.5786 4.30746C26.7119 4.62916 26.7786 4.95869 26.7786 5.29608C26.7786 5.66485 26.7119 6.01792 26.5786 6.3553C26.4452 6.69269 26.2529 6.98299 26.0019 7.22622C25.7586 7.46945 25.4723 7.64599 25.1427 7.75584L27.1082 10.9335H25.6253L23.8128 8.02653H21.8709V10.9335H20.5527ZM21.8709 6.86138H24.1776C24.4209 6.86138 24.6366 6.79076 24.825 6.64953C25.0133 6.5083 25.1623 6.32 25.2722 6.08461C25.382 5.84138 25.4369 5.57854 25.4369 5.29608C25.4369 5.00577 25.3742 4.74685 25.2486 4.51931C25.1231 4.28393 24.9583 4.09562 24.7543 3.95439C24.5582 3.81316 24.3424 3.74254 24.107 3.74254H21.8709V6.86138Z" fill="white"/>
<path d="M15.8596 10.9916C15.3104 10.9916 14.7965 10.8779 14.3179 10.6503C13.8392 10.4228 13.4195 10.109 13.0586 9.7088C12.7055 9.30865 12.4269 8.85357 12.2229 8.34357C12.0268 7.83358 11.9287 7.29219 11.9287 6.71943C11.9287 6.14666 12.0268 5.6092 12.2229 5.10705C12.4269 4.60489 12.7055 4.15766 13.0586 3.76536C13.4195 3.37305 13.8392 3.06705 14.3179 2.84736C14.8043 2.62767 15.3339 2.51782 15.9067 2.51782C16.6992 2.51782 17.3661 2.68651 17.9075 3.0239C18.4567 3.35343 18.8686 3.79282 19.1432 4.34205L18.1311 5.07174C17.9114 4.61666 17.5975 4.27536 17.1895 4.04782C16.7894 3.82028 16.35 3.70651 15.8714 3.70651C15.4791 3.70651 15.1221 3.7889 14.8004 3.95366C14.4787 4.11843 14.2002 4.34597 13.9648 4.63628C13.7372 4.91874 13.5646 5.24435 13.4469 5.61312C13.3292 5.97404 13.2704 6.35458 13.2704 6.75473C13.2704 7.17842 13.3371 7.57465 13.4705 7.94342C13.6039 8.31219 13.7922 8.6378 14.0354 8.92027C14.2786 9.19488 14.565 9.41065 14.8945 9.56757C15.2241 9.72449 15.5811 9.80295 15.9655 9.80295C16.4206 9.80295 16.8522 9.68919 17.2602 9.46165C17.676 9.22626 18.0644 8.87711 18.4253 8.41419V9.75588C17.6956 10.5797 16.8404 10.9916 15.8596 10.9916ZM18.2958 7.6845H16.5422V6.70766H19.4021V10.9328H18.2958V7.6845Z" fill="white"/>
<path d="M66.4834 5.79336C66.4834 5.37324 66.5577 4.96282 66.7064 4.56209C66.855 4.1549 67.0716 3.78649 67.3559 3.45686C67.6468 3.12077 67.999 2.85577 68.4127 2.66187C68.8264 2.46151 69.2949 2.36133 69.8185 2.36133C70.439 2.36133 70.9754 2.50352 71.4278 2.78791C71.8803 3.06583 72.2164 3.42455 72.4361 3.86405L71.583 4.43606C71.4537 4.15813 71.2889 3.93838 71.0885 3.7768C70.8946 3.61521 70.6813 3.50211 70.4487 3.43747C70.2224 3.37284 69.9994 3.34052 69.7797 3.34052C69.4177 3.34052 69.101 3.41485 68.8296 3.56351C68.5581 3.7057 68.3287 3.89637 68.1412 4.13551C67.9603 4.37466 67.8213 4.64288 67.7244 4.9402C67.6339 5.23751 67.5886 5.53482 67.5886 5.83214C67.5886 6.16177 67.6436 6.4817 67.7534 6.79194C67.8633 7.09572 68.0152 7.36718 68.2091 7.60632C68.4095 7.839 68.6454 8.0232 68.9168 8.15893C69.1883 8.29466 69.4856 8.36253 69.8088 8.36253C70.0285 8.36253 70.258 8.32375 70.4971 8.24619C70.7363 8.16863 70.956 8.04906 71.1564 7.88747C71.3632 7.71943 71.5248 7.49967 71.6411 7.22821L72.5428 7.74205C72.4006 8.08461 72.1776 8.37546 71.8738 8.6146C71.5765 8.85374 71.2404 9.03471 70.8655 9.15752C70.4971 9.28032 70.1319 9.34172 69.77 9.34172C69.2853 9.34172 68.8425 9.24154 68.4418 9.04118C68.0411 8.83435 67.6953 8.56289 67.4044 8.2268C67.1136 7.88424 66.8874 7.50291 66.7258 7.08279C66.5642 6.65621 66.4834 6.2264 66.4834 5.79336Z" fill="white"/>
<path d="M76.165 9.29336V2.40991H77.2509V8.33355H80.9447V9.29336H76.165Z" fill="white"/>
<path d="M87.5331 9.31766C86.9837 9.31766 86.5183 9.22394 86.137 9.03651C85.7621 8.84907 85.4583 8.59377 85.2257 8.2706C84.9994 7.94744 84.8314 7.57903 84.7215 7.16537C84.6181 6.75172 84.5664 6.32191 84.5664 5.87594V2.38574H85.6522V5.87594C85.6522 6.19264 85.6846 6.49965 85.7492 6.79696C85.8138 7.08781 85.9172 7.34958 86.0594 7.58226C86.2016 7.81494 86.3923 7.99914 86.6314 8.13487C86.877 8.2706 87.1776 8.33847 87.5331 8.33847C87.895 8.33847 88.1956 8.2706 88.4347 8.13487C88.6803 7.99268 88.871 7.80524 89.0067 7.57256C89.1489 7.33342 89.2523 7.06842 89.317 6.77757C89.3816 6.48672 89.4139 6.18618 89.4139 5.87594V2.38574H90.5094V5.87594C90.5094 6.34776 90.4513 6.79373 90.3349 7.21385C90.225 7.6275 90.0505 7.99268 89.8114 8.30938C89.5787 8.61962 89.2749 8.86523 88.9001 9.0462C88.5252 9.22718 88.0695 9.31766 87.5331 9.31766Z" fill="white"/>
<path d="M99.5416 7.51917C99.5416 7.88758 99.4447 8.20429 99.2508 8.46928C99.0634 8.73428 98.8081 8.93788 98.4849 9.08007C98.1617 9.22226 97.8062 9.29336 97.4184 9.29336H94.1318V2.40991H97.6802C98.0034 2.40991 98.2813 2.49717 98.514 2.67168C98.7531 2.83972 98.9341 3.05948 99.0569 3.33094C99.1862 3.59593 99.2508 3.87386 99.2508 4.16471C99.2508 4.5008 99.1635 4.8175 98.989 5.11482C98.821 5.40567 98.5786 5.62219 98.2619 5.76438C98.6562 5.88072 98.9664 6.09401 99.1926 6.40425C99.4253 6.70803 99.5416 7.07967 99.5416 7.51917ZM98.4267 7.31558C98.4267 7.12168 98.3847 6.94717 98.3007 6.79205C98.2231 6.63047 98.1132 6.5012 97.9711 6.40425C97.8353 6.30084 97.6737 6.24913 97.4863 6.24913H95.2177V8.35294H97.4184C97.6123 8.35294 97.7836 8.3077 97.9323 8.21721C98.0874 8.12026 98.207 7.99423 98.291 7.83911C98.3815 7.67753 98.4267 7.50302 98.4267 7.31558ZM95.2177 3.35033V5.37658H97.2148C97.3958 5.37658 97.5574 5.33457 97.6996 5.25055C97.8418 5.16006 97.9549 5.04049 98.0389 4.89183C98.1229 4.73671 98.165 4.5622 98.165 4.3683C98.165 4.16794 98.1262 3.99343 98.0486 3.84477C97.9711 3.68965 97.8644 3.57008 97.7287 3.48606C97.5994 3.39557 97.4475 3.35033 97.273 3.35033H95.2177Z" fill="white"/>
</svg>
