<svg width="32" height="32" viewBox="0 0 32 32" fill="none" xmlns="http://www.w3.org/2000/svg">
<path opacity="0.5" d="M16.0003 29.3337C9.71493 29.3337 6.57224 29.3337 4.61961 27.381C2.66699 25.4284 2.66699 22.2857 2.66699 16.0003C2.66699 9.71493 2.66699 6.57224 4.61961 4.61961C6.57224 2.66699 9.71493 2.66699 16.0003 2.66699C22.2857 2.66699 25.4284 2.66699 27.381 4.61961C29.3337 6.57224 29.3337 9.71493 29.3337 16.0003C29.3337 22.2857 29.3337 25.4284 27.381 27.381C25.4284 29.3337 22.2857 29.3337 16.0003 29.3337Z" fill="#0E8388"/>
<path d="M21.3734 11.9599C21.764 12.3504 21.764 12.9836 21.3734 13.3741L14.7068 20.0408C14.3163 20.4313 13.6831 20.4313 13.2926 20.0408L10.6259 17.3741C10.2354 16.9836 10.2354 16.3504 10.6259 15.9599C11.0164 15.5694 11.6496 15.5694 12.0401 15.9599L13.9997 17.9194L19.9592 11.9599C20.3498 11.5694 20.9829 11.5694 21.3734 11.9599Z" fill="#0E8388"/>
</svg>
