<svg width="126" height="126" viewBox="0 0 126 126" fill="none" xmlns="http://www.w3.org/2000/svg">
<path d="M111.593 58.6004C106.771 58.6004 102.857 62.5082 102.857 67.3306C102.857 67.8793 102.911 68.4097 103.015 68.9279H107.417C107.228 68.4341 107.118 67.8976 107.118 67.3306C107.118 64.8615 109.124 62.8618 111.593 62.8618C114.068 62.8618 116.068 64.8615 116.068 67.3306C116.068 69.8058 114.068 71.8055 111.593 71.8055C111.038 71.8055 110.502 71.6958 110.008 71.5128V75.9145C110.52 76.0121 111.05 76.0669 111.593 76.0669C113.453 76.0669 114.916 75.3963 116.239 73.9941V76.006H120.329V67.3306C120.329 62.5082 116.415 58.6004 111.593 58.6004ZM80.0859 58.4235C75.2148 58.4235 71.2703 62.3741 71.2703 67.2452C71.2703 67.7939 71.3189 68.3365 71.4163 68.8547H75.8668C75.6779 68.3548 75.5743 67.8122 75.5743 67.2452C75.5743 64.7457 77.5984 62.7277 80.0858 62.7277C82.5793 62.7277 84.6095 64.7457 84.6095 67.2452C84.6095 69.7387 82.5793 71.7628 80.0858 71.7628C79.5249 71.7628 78.9823 71.6531 78.4885 71.4641V75.9145C79.0067 76.0121 79.5432 76.067 80.0858 76.067C84.957 76.067 88.9136 72.1164 88.9136 67.2453C88.9136 62.3741 84.9571 58.4235 80.0859 58.4235ZM33.3677 67.2453V58.4236H29.0635V67.2453C29.0635 67.7939 29.1122 68.3365 29.2157 68.8547H33.6662C33.4711 68.3548 33.3677 67.8122 33.3677 67.2453ZM41.8052 58.4236V67.2453C41.8052 69.7387 39.7812 71.7628 37.2876 71.7628C36.7206 71.7628 36.1842 71.6531 35.6842 71.4641V75.9146C36.2024 76.0121 36.7389 76.067 37.2876 76.067C42.1588 76.067 46.1094 72.1164 46.1094 67.2453V58.4236L41.8052 58.4236ZM59.5706 58.4236C57.9368 58.4236 56.4126 58.8686 55.1019 59.6429V51.3516H50.7001V68.8548H55.3518C55.1629 68.3548 55.0532 67.8122 55.0532 67.2453C55.0532 64.7457 57.0712 62.7277 59.5708 62.7277C62.0643 62.7277 64.0883 64.7457 64.0883 67.2453C64.0883 69.7388 62.0643 71.7628 59.5708 71.7628C59.0038 71.7628 58.4673 71.6531 57.9674 71.4641V75.9146C58.4856 76.0121 59.016 76.067 59.5708 76.067C64.4419 76.067 68.3864 72.1164 68.3864 67.2453C68.3864 62.3741 64.4418 58.4236 59.5706 58.4236ZM29.0818 51.3516H23.4851L12.2796 63.7093L23.4851 76.0609H29.0818L17.9128 63.7093L29.0818 51.3516ZM101.18 58.4236H96.8514V51.3516H92.4557V76.006H96.8514V62.8253H101.18V58.4236ZM10.8896 68.8792H6.5V51.3516H10.8896V68.8792Z" fill="#4E635E"/>
</svg>
