<svg width="126" height="126" viewBox="0 0 126 126" fill="none" xmlns="http://www.w3.org/2000/svg">
<path fill-rule="evenodd" clip-rule="evenodd" d="M14.4394 53.2454L14.0201 53.316L13.4596 53.4925L13.1462 53.6955L12.9344 53.8456L12.5504 54.2296L12.0561 54.896L11.8487 55.3859L11.703 55.9067L8.4105 68.7811L8.20306 69.5844L8.12803 69.8271L8.09272 70.0345L8.02652 70.317V70.5686L7.99121 70.776L8.05741 71.3719L8.20306 71.6896L8.37519 71.9324L8.55615 72.1398L8.82979 72.2855L9.14756 72.3914L9.49623 72.4223L9.81401 72.4576H24.189L24.3302 72.4223L24.3611 72.3914L24.4317 72.1045L24.8598 70.5686L24.9613 70.0743L25.2438 69.0194L25.6278 67.5144L25.6984 67.307L25.7293 67.126L25.6984 67.0907L25.6278 67.0642H18.8971L18.8618 67.0245V66.9539L18.9324 66.6758L19.1001 66.0447L19.2105 65.6254L19.7004 63.5863L19.9829 62.5668L20.4375 60.8146L20.8214 59.3493L21.2054 57.9061L21.276 57.8046L21.3511 57.7693H26.0471L26.1177 57.7384L26.1486 57.6633L26.4664 56.4055L26.7841 55.2491L26.996 54.4017L27.2696 53.2807L27.2387 53.2454H14.4394ZM31.5464 53.2454L31.3743 53.2807L31.3434 53.316L31.2727 53.594L31.1624 54.0839L27.0666 70.0345L26.9563 70.5686L26.921 71.0188L27.0313 71.4381L27.2034 71.7911L27.5521 72.1398L27.8346 72.2855L28.2892 72.3914L28.6069 72.4223L28.8188 72.4576H41.1944L41.265 72.4223V72.3561L41.4725 71.5087L41.5784 71.1953L41.8211 70.2155L42.6332 67.126L42.5979 67.0907L42.5582 67.0642H38.074L37.9284 67.0245L37.8931 66.9892L38.2109 65.7931L41.265 53.7706L41.3666 53.4175L41.4019 53.316L41.3666 53.2454H31.5464ZM50.1363 53.2454L49.8847 53.2807L49.642 53.316L49.3948 53.3822L49.0815 53.4925L48.5474 53.8103L48.3091 53.9824L48.031 54.2296L47.7795 54.5121L47.6426 54.7901L47.4661 55.1388L47.0821 56.432L43.154 71.4072L42.9069 72.4223L42.9422 72.4576H52.2416L52.4137 72.4223L52.4402 72.3914L52.908 70.7407L53.0448 70.1096L53.3229 69.0945L53.7422 67.4085L53.8128 67.201L53.8481 67.1613L53.9143 67.126H57.988L58.0233 67.1613L58.0586 67.2275V72.3914L58.0851 72.4576H67.561L67.6272 72.4223L67.6625 72.3561V53.3513L67.6272 53.2807L67.561 53.2454H58.0851L58.0586 53.316V62.5668L58.0233 62.6374H55.0398L55 62.6021L55.0398 62.4653L55.1148 62.2534L55.4635 61.0309L55.7812 59.6936L55.9534 59.0624L56.1608 58.3298L56.3329 57.5618L56.7213 56.0877L56.9023 55.5625L57.2907 54.0839L57.4893 53.316L57.454 53.2807L57.3878 53.2454H50.1363ZM76.6309 53.2454L76.1807 53.316L75.6246 53.4572L75.1303 53.7309L74.9229 53.8765L74.5698 54.1987L74.3535 54.4723L74.1902 54.9313L73.9386 55.7346L69.8031 71.5881L69.5913 72.2413V72.3914L69.6266 72.4223L69.6928 72.4576H78.7362L78.8862 72.4223L78.9171 72.3914L79.5836 69.9374L79.6189 69.7565L79.9367 68.6354L80.25 67.3776L80.3206 67.201L80.3515 67.1613L80.4575 67.126H84.4959L84.5312 67.201V72.3561L84.5621 72.4223L84.5974 72.4576H94.0998L94.1351 72.4223L94.1704 72.3561V53.3513L94.1351 53.2807L94.0998 53.2454H84.5974L84.5621 53.2807L84.5312 53.3513V62.6374L84.4959 62.6816H81.5079L81.4417 62.6374V62.6021L81.6535 61.7635L83.6485 54.3002L83.8912 53.3822V53.2807L83.8294 53.2454H76.6309ZM102.371 53.2454L102.057 53.2807L101.775 53.3513L101.391 53.5234L100.901 53.8765L100.583 54.2649L100.332 54.6489L100.195 55.0329L100.093 55.2844L99.7006 56.891L99.6344 57.1028L98.7605 60.6116L98.5442 61.278L98.5177 61.5914V62.1872L98.6193 62.43L98.8973 62.9199L99.2151 63.1715L99.4269 63.273L99.78 63.3701H105.734L105.778 63.4142V63.5201L105.632 64.2175L105.173 66.1462L104.966 66.8833L104.931 67.0245L104.86 67.0642H97.3217L97.1804 67.0907L97.1098 67.126V67.2628L96.973 67.8322L96.1609 70.9835L95.8078 72.3914V72.4223L95.8873 72.4576H111.379L111.626 72.4223H112.05L112.818 72.2855L113.312 72.0736L113.727 71.7911L114.045 71.5087L114.332 71.1556L114.57 70.8069L114.782 70.317L114.958 69.6197L115.338 68.0749L115.766 66.3934L115.832 66.1815L116.357 64.0762L116.437 63.657L116.499 63.4495L116.574 63.0611V62.4653L116.499 62.0769L116.357 61.6973L116.15 61.4811L115.938 61.3089L115.589 61.1324L115.166 61.0662H109.031L108.89 61.0309L108.859 60.9956L108.965 60.5366L109.349 58.9962L109.697 57.7031L109.733 57.6236H116.816L116.918 57.5618L116.988 57.425L117.09 57.0366L117.342 55.9818L117.73 54.437L118.008 53.2807L117.973 53.2454H102.371Z" fill="#4E635E"/>
</svg>
