<svg width="126" height="126" viewBox="0 0 126 126" fill="none" xmlns="http://www.w3.org/2000/svg">
<path fill-rule="evenodd" clip-rule="evenodd" d="M28.5 43.5399L38.3092 35.3516L46.4843 41.9025L54.3317 35.3516L62.1796 41.5749L69.6998 35.3516L77.8744 41.9025V58.2787L67.0837 66.7942V46.1598C67.0837 46.1598 66.7571 43.2122 62.1791 43.2122V90.7038H51.3889V46.1598C51.3889 46.1598 51.3889 43.2122 46.8114 43.2122V90.7038H35.6936V48.453C35.6936 48.453 36.0202 42.5574 28.5 43.5399Z" fill="#4E635E"/>
<path fill-rule="evenodd" clip-rule="evenodd" d="M84.4142 55.3311L67.0842 68.7603V81.8612L78.202 91.032L92.5893 79.8967L91.9355 79.2413C91.9355 79.2413 88.0118 83.1714 84.7419 82.5171C79.5101 81.8617 77.8749 78.587 77.8749 73.6739V62.537C77.8749 62.537 81.7991 66.7947 84.7419 66.7947C87.3575 66.7947 89.9737 64.5025 92.5893 61.8821L84.4142 55.3311Z" fill="#4E635E"/>
<path d="M94.224 91.032C96.5124 91.032 98.4748 89.3942 98.4748 87.102C98.4748 84.8087 96.5124 82.8442 94.224 82.8442C92.2621 82.8442 90.3003 84.8087 90.3003 87.102C90.3003 89.3942 92.2621 91.032 94.224 91.032Z" fill="#4E635E"/>
<path fill-rule="evenodd" clip-rule="evenodd" d="M92.5888 84.481C92.5888 84.481 94.224 84.481 94.8778 84.481C95.8592 84.481 96.5124 84.8087 96.5124 85.7923C96.5124 87.1025 95.8592 87.1025 95.8592 87.1025C96.5125 88.0845 96.5124 89.3947 96.5124 89.3947H95.5315C95.5315 87.4302 94.5501 87.7568 94.5501 87.7568H93.242V89.3947H92.5882L92.5888 84.481ZM93.2425 85.1364V87.102C93.2425 87.102 94.5506 87.102 94.8778 87.102C95.2044 87.102 95.5315 86.7743 95.5315 86.1189C95.5315 85.4646 95.2044 85.1369 94.8778 85.1369C94.224 85.1364 93.2425 85.1364 93.2425 85.1364Z" fill="#4E635E"/>
</svg>
