<svg width="126" height="126" viewBox="0 0 126 126" fill="none" xmlns="http://www.w3.org/2000/svg">
<path d="M104.226 52.1343L103.076 56.6013H108.943L110.074 52.1343H104.226Z" fill="#4E635E"/>
<path d="M98.8199 73.1657L102.865 57.3873H108.732L104.667 73.1657H98.8199Z" fill="#4E635E"/>
<path fill-rule="evenodd" clip-rule="evenodd" d="M71.711 57.3873H88.2562L87.2018 61.5285H76.734L76.178 63.599H86.2049L85.3421 66.9541H75.3153L74.7593 69.0246H85.2846L84.2302 73.1657H67.6658L71.711 57.3873ZM48.724 67.6251H54.9549C54.9549 67.6634 54.8974 69.9257 58.2141 69.9257C60.4955 69.9257 60.8214 69.2163 60.8981 68.8712C61.0323 68.2769 60.6105 67.9893 59.7478 67.7785C57.0446 67.1266 53.3253 65.938 52.3475 65.3436C51.6573 64.9219 50.6412 64.0208 50.6412 62.1995C50.622 59.7838 53.4978 56.793 59.652 56.8314C62.7386 56.8505 64.6174 57.464 65.7677 57.9817C68.2409 59.0936 68.4135 61.4326 68.3559 62.4295L62.2785 62.4104C62.2785 62.4104 62.2593 60.6466 59.7286 60.5315C58.4441 60.474 57.0446 60.7041 57.0446 61.701C57.0446 62.5637 57.9073 62.7554 59.9587 63.2156C60.438 63.3306 63.7355 64.0016 64.79 64.385C66.688 65.0944 67.6082 66.0722 67.3207 68.1619C66.6688 72.7823 60.6681 73.5492 57.6006 73.5683C53.7662 73.5875 49.721 72.8781 48.8582 69.063C48.7816 68.5837 48.724 67.6251 48.724 67.6251ZM41.3046 68.066L40.8061 62.0653L36.8759 68.066H41.3046ZM45.5032 57.3682L48.2831 73.1657H41.6113L41.4579 71.2869H34.9779L33.7317 73.1465H26.6957L38.3138 57.349H45.5032V57.3682ZM28.4211 68.3153C28.1527 68.8904 27.6926 69.6573 26.9641 70.4433C25.5262 71.9771 23.0339 73.5492 18.7777 73.5492C13.6013 73.5492 11.5691 71.7087 10.553 69.8873C9.82451 68.5837 9.65196 67.2225 9.76699 66.0147C9.97788 63.8291 12.0868 56.8697 21.2701 56.8697C26.4273 56.8697 28.4595 58.5568 29.2263 60.4165C29.8398 61.9119 29.6098 64.2125 29.5714 64.4042H23.5323C23.724 63.2539 23.379 61.2984 21.3084 61.2984C19.0078 61.2792 16.8414 62.9855 16.2279 65.2094C15.5569 67.6826 16.9372 69.1972 19.1228 69.2355C21.4809 69.293 22.6121 67.3758 22.6504 67.3183H28.8237C28.7854 67.4909 28.5553 68.0469 28.4211 68.3153Z" fill="#4E635E"/>
<path d="M99.3567 67.836L100.699 62.6021H99.8935L101.236 57.3682H95.3882L91.3046 73.1657H97.1711L98.5323 67.836H99.3567Z" fill="#4E635E"/>
<path d="M109.058 62.6021H108.214L106.853 67.836H107.716L106.354 73.1657H112.202L116.266 57.3682H110.419L109.058 62.6021Z" fill="#4E635E"/>
</svg>
