<svg width="126" height="126" viewBox="0 0 126 126" fill="none" xmlns="http://www.w3.org/2000/svg">
<path fill-rule="evenodd" clip-rule="evenodd" d="M57.0399 46.3065C56.0314 48.3869 55.3383 50.656 55.0229 53.2407C54.9596 53.2407 54.4553 53.304 54.4553 53.304L54.4504 53.3044C52.2456 53.4936 50.0414 53.6828 47.8994 54.5013L48.0254 55.321C51.5558 59.6706 56.9133 62.3179 56.9133 62.3179L55.9048 60.3637C55.6527 60.1748 54.8963 59.9855 54.8963 59.9855C52.501 59.2291 50.7989 56.0774 50.5467 55.5731C52.501 55.5731 54.266 56.1402 55.9048 56.7077C56.1811 56.7846 56.4537 56.8651 56.7235 56.9448C57.5615 57.1922 58.3721 57.4317 59.1825 57.5274C60.9469 57.8213 62.7664 57.5668 64.4868 57.3261C64.6102 57.3089 64.7332 57.2917 64.8555 57.2748C66.3055 57.0859 67.6928 57.0859 69.08 57.2115C69.1058 57.2374 69.1553 57.2929 69.2252 57.3713C69.6655 57.8654 70.917 59.2694 72.1684 59.9222C73.9333 60.8046 79.0392 62.3802 79.2914 62.4435C79.4169 62.5068 81.3717 64.5233 82.6319 66.793C76.8318 69.4409 70.3402 70.8266 63.847 70.8266C57.3543 70.8266 50.8617 69.4404 45.0626 66.793C43.1716 61.8765 42.1631 56.7072 42.1631 51.4124C42.1631 46.1804 43.1716 41.0112 45.0626 36.0952C50.8617 33.4472 57.3543 32.061 63.847 32.061C70.4029 32.061 76.8956 33.4478 82.6319 36.0952C84.5229 41.0117 85.5309 46.1804 85.5309 51.4124C85.5356 56.2001 84.7256 60.9537 83.1356 65.4696C81.3079 62.3174 80.552 61.3722 80.552 61.3722C80.4893 61.3722 77.9674 60.0482 77.3371 59.4807C76.8629 59.066 76.6126 58.2626 76.3221 57.3303C76.3034 57.2701 76.2844 57.2094 76.2653 57.1482C75.8871 55.6987 75.3838 53.9332 73.9966 52.4837L75.5722 51.8529C75.1312 48.8906 71.6013 46.9996 71.5386 46.9996L71.4748 47.0629C72.862 48.7645 73.1141 50.1513 73.1141 51.0342C73.1141 51.4752 73.0514 51.7901 72.9886 51.9162C72.6099 51.7274 70.0258 50.9077 64.0374 51.1598C63.2177 51.1598 61.957 51.097 61.2006 50.4034C60.7591 50.0252 60.5703 49.3949 60.5703 48.7012C60.5703 46.6214 61.4528 43.8474 61.5788 43.4698L63.0921 43.6586C64.9831 42.6501 65.6762 41.7043 65.739 41.5788C64.1634 41.7681 62.0836 42.1458 62.0836 42.1458C62.2097 41.8304 62.5879 40.633 62.5879 39.3091C62.5879 37.859 62.1469 36.2835 60.3187 35.3377L60.1921 35.401C60.2554 35.4638 61.2634 36.5984 61.2634 38.1112C61.2634 38.5527 61.2006 39.0569 61.0113 39.4979C60.3809 39.3091 60.0027 39.2463 59.3091 39.2463C58.9314 37.9851 57.8601 36.9766 56.4101 36.4723L56.3468 36.5351C56.3468 36.5351 57.9229 37.6702 57.9857 39.2463C57.2717 39.3055 56.8388 39.4212 55.9971 39.646C55.9471 39.6594 55.8956 39.6731 55.8426 39.6873C55.4011 39.0569 54.5186 38.5527 53.3207 38.4266V38.5532C53.3207 38.5532 54.7075 38.9942 54.9596 40.066C54.1409 40.4442 53.1319 41.0112 52.5643 41.516L52.6276 41.5793C56.1575 40.2553 59.4352 39.9404 60.2549 40.949C60.4437 41.1378 60.507 41.3272 60.507 41.5793C60.507 41.8309 60.3804 42.2096 60.1288 42.5878C58.4272 42.966 55.7798 43.6591 53.6367 44.4788L53.9516 45.3613C53.9516 45.3613 56.0947 45.8028 56.9144 45.9921C56.9144 45.9921 57.2293 46.0549 57.0399 46.3065ZM17.8604 89.1275C17.8604 89.1275 19.0007 89.542 20.279 89.542C21.661 89.542 22.49 89.3355 22.9736 88.851C23.3538 88.4712 23.5266 87.8144 23.4923 86.8132V80.3174H25.5307V87.1244C25.4964 90.1298 24.0454 91.4086 20.6592 91.4086C19.0007 91.4086 17.8604 91.1321 17.8604 91.1321V89.1275ZM31.4729 82.2872C34.7205 82.2872 36.6209 84.0148 36.6209 86.9169C36.6209 88.99 35.2736 91.4086 31.4729 91.4086C27.638 91.4086 26.2907 88.99 26.2907 86.9169C26.2902 84.0148 28.2248 82.2872 31.4729 82.2872ZM34.6168 86.8137C34.6168 85.0519 33.477 84.0496 31.4729 84.0496C29.4688 84.0496 28.2948 85.0519 28.2948 86.8137C28.2948 89.266 30.2984 89.6125 31.4729 89.6125C32.6474 89.6125 34.6168 89.2655 34.6168 86.8137ZM44.7394 82.4947V85.9494H39.5225V82.4947H37.5189V91.2011H39.5225V87.7112H44.7394V91.2011H46.7783V82.4947H44.7394ZM75.0741 89.4045V87.7112H79.7033V85.9494H75.0741V84.256H81.0511V82.4947H73.0353V91.2011H81.0511V89.4045H75.0741ZM84.1265 89.4045V87.7112H88.7562V85.9494H84.1265V84.256H90.1372V82.4947H82.1219V91.2011H90.1372V89.4045H84.1265ZM103.128 89.4045V87.7112H107.758V85.9494H103.128V84.256H109.14V82.4947H101.124V91.2011H109.14V89.4045H103.128ZM66.1603 82.115C68.7859 82.115 70.3064 83.427 70.3064 85.7071C70.3064 88.921 67.7156 89.4045 66.1603 89.4045H63.2924V82.115H66.1603ZM66.1603 80.3174H61.2888V91.2011H66.1603C70.721 91.2011 72.31 88.299 72.31 85.8461C72.3095 82.3905 69.9952 80.3174 66.1603 80.3174ZM97.945 87.8845C99.5003 87.5047 100.052 86.3291 100.052 85.2926C100.052 83.5308 98.9126 82.4947 96.9437 82.4947H91.2433V91.2006H93.2463V88.0219H95.6307L98.0493 91.2006H100.503L97.945 87.8845ZM93.2468 86.2259V84.256H96.9443C97.6343 84.256 98.0498 84.6368 98.0498 85.2236C98.0498 86.0879 97.3588 86.2259 96.9443 86.2259H93.2468ZM55.2428 91.2011L49.9906 85.2583V91.2011H47.9876V82.4947H49.9906L55.2428 88.368V82.4947H57.2464V91.2011H55.2428Z" fill="#4E635E"/>
</svg>
