<svg width="126" height="126" viewBox="0 0 126 126" fill="none" xmlns="http://www.w3.org/2000/svg">
<path fill-rule="evenodd" clip-rule="evenodd" d="M34.3467 77.7835V86.6029H42.541C44.6598 86.6029 46.342 85.0921 46.342 83.2302V81.1561C46.342 79.2927 44.6583 77.7835 42.541 77.7835H34.3467ZM38.0318 80.0563V84.333H40.6539C41.6814 84.333 42.4965 83.6008 42.4965 82.6983V81.6926C42.4965 80.79 41.6799 80.0578 40.6539 80.0578H38.0318V80.0563Z" fill="#4E635E"/>
<path d="M62.2066 77.7835L62.2007 82.643C62.2007 84.215 62.8807 84.5796 63.5058 84.5796H64.7233C65.2608 84.5796 66.0165 84.2045 66.0165 82.6041L65.9734 77.7835H69.6037L69.7417 83.4783C69.7417 85.787 67.7878 86.9331 65.9051 86.9331H62.2972C60.4412 86.9331 58.422 85.8094 58.422 83.5485L58.4428 77.7835H62.2066Z" fill="#4E635E"/>
<path d="M80.8566 80.0563H77.458V86.6044H73.6749V80.0563H70.2763V77.785H80.8566" fill="#4E635E"/>
<path d="M86.5952 80.0563H81.3867V77.785H91.6538V79.7156L86.1735 84.3211H91.437V86.6044H81.0081V84.7514L86.5952 80.0563Z" fill="#4E635E"/>
<path d="M47.2744 77.7835V86.6029H57.2817V84.4242H51.0101V83.3333H56.8467V81.059H51.0101V79.9681H57.2817V77.7835H47.2744Z" fill="#4E635E"/>
<path d="M39.4305 88.9161V97.7355H43.0889V94.5511H48.6033V92.4188H43.0889V91.0993H48.9656V88.9176H39.4305V88.9161Z" fill="#4E635E"/>
<path d="M65.7314 92.1199V88.9161H61.9542V97.7355H65.7314V94.2762H69.7432V97.7355H73.5204V88.9161H69.7432V92.1199H65.7314Z" fill="#4E635E"/>
<path fill-rule="evenodd" clip-rule="evenodd" d="M74.7528 93.7278V88.9161H82.867C84.5863 88.9161 85.9523 89.9875 85.9523 91.0036V91.8868C85.9523 92.9014 84.5908 93.7248 82.8744 93.7263H82.9575L86.2285 97.6698V97.7355H82.187L80.0207 94.6498H78.4186V97.7355H74.7617V93.7278H74.7528ZM78.3993 90.8856V92.235H81.1847C81.6673 92.235 82.0504 92.0033 82.0504 91.7194V91.4714C82.0504 91.1859 81.6673 90.8856 81.1847 90.8856H78.3993Z" fill="#4E635E"/>
<path fill-rule="evenodd" clip-rule="evenodd" d="M57.1005 88.9161L61.047 97.7355H57.151L56.8392 96.8823H52.8259L52.4948 97.7355H48.6033V97.6758L52.523 88.9161H57.1005ZM53.693 94.6453L54.8942 91.5446L56.0241 94.6453H53.693Z" fill="#4E635E"/>
<path d="M64.0804 49.8234V27.9675L59.8874 42.9301L64.0804 49.8234Z" fill="#4E635E"/>
<path d="M64.0804 49.8234V27.9675L68.2733 42.9301L64.0804 49.8234Z" fill="#4E635E"/>
<path d="M58.9565 46.379L54.7635 61.3415L54.5364 61.9422C54.2691 62.6476 53.8177 63.2677 53.2313 63.7384L50.6968 65.7692L49.3308 73.16L57.2134 66.3923C57.9617 65.7497 58.4621 64.8621 58.6254 63.8863L60.8451 50.6527L58.9565 46.379Z" fill="#4E635E"/>
<path d="M58.9565 46.379L54.7635 61.3415L54.5364 61.9422C54.2691 62.6476 53.8177 63.2677 53.2313 63.7384L50.6968 65.7692L49.3308 73.16L57.2134 66.3923C57.9617 65.7497 58.4621 64.8621 58.6254 63.8863L60.8451 50.6527L58.9565 46.379Z" fill="#4E635E"/>
<path d="M69.2057 46.379L73.3987 61.3415L73.6259 61.9422C73.8931 62.6476 74.3445 63.2677 74.931 63.7384L77.4654 65.7692L78.8314 73.16L70.9488 66.3923C70.2005 65.7497 69.7002 64.8621 69.5368 63.8863L67.3171 50.6527L69.2057 46.379Z" fill="#4E635E"/>
<path d="M69.2057 46.379L73.3987 61.3415L73.6259 61.9422C73.8931 62.6476 74.3445 63.2677 74.931 63.7384L77.4654 65.7692L78.8314 73.16L70.9488 66.3923C70.2005 65.7497 69.7002 64.8621 69.5368 63.8863L67.3171 50.6527L69.2057 46.379Z" fill="#4E635E"/>
<path d="M58.7338 45.5451L54.7635 60.1535L54.5482 60.7229C54.2736 61.4476 53.8044 62.0827 53.1942 62.5579L50.7666 64.4437L50.2722 71.2548L56.376 65.9096C57.0946 65.2805 57.5786 64.4228 57.7479 63.4799L60.0686 50.578L58.7338 45.5451Z" fill="#4E635E"/>
<path d="M69.4285 45.5451L73.3987 60.1535L73.614 60.7229C73.8887 61.4476 74.3578 62.0827 74.9681 62.5579L77.3957 64.4437L77.8901 71.2548L71.7862 65.9096C71.0676 65.2805 70.5836 64.4228 70.4143 63.4799L68.0937 50.578L69.4285 45.5451Z" fill="#4E635E"/>
</svg>
