<svg width="126" height="126" viewBox="0 0 126 126" fill="none" xmlns="http://www.w3.org/2000/svg">
<path d="M92.9619 50.6142C92.7557 50.2064 92.3391 49.952 91.883 49.952H76.4361L74.7125 52.3247V52.3642H89.4795L73.0678 74.4468L64.7216 63.2235L83.1069 38.2726C83.3789 37.9085 83.4183 37.4173 83.2122 37.0138C83.0061 36.6103 82.5894 36.3516 82.1377 36.3516H44.139C43.6829 36.3516 43.2663 36.6103 43.0601 37.0182C42.854 37.4261 42.8978 37.9129 43.1698 38.2813L51.801 49.8906H34.4595C34.0034 49.8906 33.5868 50.1493 33.3806 50.5572C33.1745 50.9651 33.2184 51.4519 33.4903 51.8203L52.4545 77.2581C52.6826 77.5651 53.0422 77.7449 53.4194 77.7449C53.4194 77.7449 53.4194 77.7449 53.4238 77.7449C53.8054 77.7449 54.165 77.5607 54.3931 77.2537L63.2305 65.2629L72.103 77.1967C72.331 77.5037 72.6907 77.6835 73.0722 77.6835C73.4538 77.6835 73.8134 77.5037 74.0415 77.1967L92.8522 51.8861C93.1241 51.5089 93.1636 51.0221 92.9619 50.6142ZM53.415 74.5038L36.863 52.2984H53.5948L61.7217 63.2278L53.415 74.5038ZM63.2217 61.1972L56.586 52.3817H67.9847L69.7522 49.8818H54.8097L46.5424 38.7594H79.7562L63.2217 61.1972Z" fill="#4E635E"/>
<path d="M13.8462 90.9901V86.6393L11.5481 90.9901H10.2718L7.99556 86.6393V90.9901H6.5V85.2797H9.02623L10.9428 89.0647L12.8375 85.2797H15.3506V90.9901H13.8462Z" fill="#4E635E"/>
<path d="M18.0654 90.9901H16.2979L19.2101 85.2797H21.3547L24.2011 90.9901H22.4468L21.9556 89.955H18.5829L18.0654 90.9901ZM19.1355 88.7752H21.3723L20.2539 86.5165L19.1355 88.7752Z" fill="#4E635E"/>
<path d="M26.6309 89.2708C26.6309 89.4989 26.701 89.648 26.8414 89.7182C26.9993 89.7752 27.201 89.8059 27.4466 89.8059H28.201L29.2667 89.7708C29.5606 89.7708 29.7492 89.7313 29.8413 89.6524C29.929 89.5735 29.9729 89.4506 29.9729 89.2796C29.9729 89.1261 29.9202 89.0033 29.8194 88.9156C29.7185 88.8235 29.5211 88.7796 29.236 88.7796H28.9773L26.3633 88.7094C25.8765 88.7094 25.53 88.5735 25.3239 88.306C25.1265 88.0253 25.0257 87.6086 25.0257 87.056C25.0257 86.5867 25.0871 86.2227 25.2143 85.9639C25.3414 85.7052 25.5695 85.521 25.9116 85.4201C26.0958 85.3675 26.2976 85.328 26.5168 85.2973C26.7405 85.2666 26.9774 85.249 27.2317 85.249L28.337 85.2227H29.4466C29.6746 85.2227 29.8764 85.2315 30.0474 85.249C30.2185 85.2666 30.3764 85.2973 30.5211 85.3455C30.7886 85.4157 30.9772 85.5517 31.0869 85.7622C31.2009 85.9683 31.2711 86.1569 31.3061 86.3279C31.3412 86.499 31.3588 86.7314 31.3588 87.0253H29.8018C29.8018 86.8323 29.7492 86.692 29.6395 86.6086C29.5343 86.5253 29.3808 86.4858 29.1878 86.4858L28.4203 86.4771L27.2098 86.5209C27.0563 86.5209 26.9247 86.556 26.8063 86.6218C26.6879 86.6876 26.6309 86.8016 26.6309 86.9595C26.6309 87.17 26.6967 87.3148 26.8282 87.3893C26.8896 87.42 26.9686 87.4419 27.0607 87.4595C27.1528 87.477 27.258 87.4858 27.3765 87.4858H29.6527C30.3325 87.4858 30.8193 87.6042 31.1176 87.8367C31.4246 88.0603 31.5781 88.5209 31.5781 89.2226C31.5781 89.898 31.4421 90.3585 31.1658 90.6085C30.8939 90.8585 30.4378 90.9857 29.8062 90.9857L27.7712 91.0471L26.7054 91.0208C26.1353 91.0208 25.7186 90.9199 25.4555 90.7225C25.1923 90.5252 25.0608 90.1261 25.0608 89.5208V89.1787H26.6177L26.6309 89.2708Z" fill="#4E635E"/>
<path d="M34.3236 89.2708C34.3236 89.4989 34.3938 89.648 34.5341 89.7182C34.692 89.7752 34.8937 89.8059 35.1393 89.8059H35.8937L36.9595 89.7708C37.2533 89.7708 37.4419 89.7313 37.534 89.6524C37.6217 89.5735 37.6656 89.4506 37.6656 89.2796C37.6656 89.1261 37.6129 89.0033 37.5121 88.9156C37.4112 88.8235 37.2138 88.7796 36.9288 88.7796H36.67L34.056 88.7094C33.5692 88.7094 33.2227 88.5735 33.0166 88.306C32.8193 88.0253 32.7184 87.6086 32.7184 87.056C32.7184 86.5867 32.7798 86.2227 32.907 85.9639C33.0342 85.7052 33.2622 85.521 33.6043 85.4201C33.7885 85.3675 33.9903 85.328 34.2096 85.2973C34.4332 85.2666 34.6701 85.249 34.9244 85.249L36.0297 85.2227H37.1393C37.3673 85.2227 37.5691 85.2315 37.7401 85.249C37.9112 85.2666 38.0691 85.2973 38.2138 85.3455C38.4813 85.4157 38.6699 85.5517 38.7796 85.7622C38.8892 85.9727 38.9638 86.1569 38.9989 86.3279C39.0339 86.499 39.0515 86.7314 39.0515 87.0253H37.4945C37.4945 86.8323 37.4419 86.692 37.3322 86.6086C37.227 86.5253 37.0735 86.4858 36.8805 86.4858L36.113 86.4771L34.9025 86.5209C34.749 86.5209 34.6174 86.556 34.499 86.6218C34.3806 86.6876 34.3236 86.8016 34.3236 86.9595C34.3236 87.17 34.3894 87.3148 34.5209 87.3893C34.5823 87.42 34.6613 87.4419 34.7534 87.4595C34.8455 87.477 34.9508 87.4858 35.0692 87.4858H37.3454C38.0252 87.4858 38.512 87.6042 38.8103 87.8367C39.1173 88.0603 39.2708 88.5209 39.2708 89.2226C39.2708 89.898 39.1348 90.3585 38.8585 90.6085C38.5866 90.8585 38.1305 90.9857 37.4989 90.9857L35.4639 91.0471L34.3981 91.0208C33.828 91.0208 33.4113 90.9199 33.1482 90.7225C32.885 90.5252 32.7535 90.1261 32.7535 89.5208V89.1787H34.3104L34.3236 89.2708Z" fill="#4E635E"/>
<path d="M46.3407 85.2797V86.5823H42.1084V87.5604H46.06V88.6919H42.1084V89.7006H46.3407V90.9945H40.5207V85.2797H46.3407Z" fill="#4E635E"/>
<path d="M54.4983 85.2797L51.5642 89.0033V90.9901H49.9678V89.0033L46.9854 85.2797H48.9897L50.7572 87.6349L52.5115 85.2797H54.4983Z" fill="#4E635E"/>
<path d="M63.8225 85.2797V86.5823H59.792V87.5604H63.8225V88.6919H59.792V90.9945H58.1692V85.2797H63.8225Z" fill="#4E635E"/>
<path d="M70.7434 85.2797V86.5823H66.4233V87.5604H70.4539V88.6919H66.4233V89.7006H70.7434V90.9945H64.805V85.2797H70.7434Z" fill="#4E635E"/>
<path d="M76.901 85.2797C77.5458 85.2797 78.0019 85.4157 78.265 85.6832C78.4054 85.8148 78.5063 85.9946 78.5764 86.2227C78.6466 86.4507 78.6817 86.7402 78.6817 87.0911V87.1876C78.6817 87.4288 78.6685 87.6262 78.6422 87.7884C78.6159 87.9507 78.5633 88.0954 78.4843 88.227C78.4054 88.3586 78.3133 88.4638 78.2036 88.534C78.1291 88.5779 77.9054 88.67 77.5326 88.8103C77.8966 88.863 78.1642 88.9638 78.3484 89.1129C78.5282 89.2621 78.6203 89.5252 78.6203 89.9024V90.9945H76.9756V90.4506C76.9756 90.1787 76.9537 89.9594 76.9054 89.7884C76.8616 89.6217 76.6467 89.5384 76.2695 89.5384H73.5634V90.9945H71.9407V85.2797H76.901ZM76.2212 88.1481C76.5896 88.1481 76.8177 88.0998 76.9054 87.9989C76.9975 87.9025 77.0414 87.6832 77.0414 87.3411C77.0414 87.1437 77.0238 87.0034 76.9888 86.92C76.9537 86.8367 76.8835 86.7709 76.7695 86.7271L76.5063 86.6657H73.5634V88.1481H76.2212Z" fill="#4E635E"/>
<path d="M86.8568 87.7753L86.8656 88.977C86.8656 89.6875 86.7516 90.2094 86.5279 90.5471C86.2998 90.8848 85.8612 91.0559 85.2078 91.0559H82.5587C81.9535 91.0559 81.471 91.012 81.1158 90.9287C80.7605 90.8409 80.4711 90.648 80.2562 90.341C80.0413 90.034 79.9316 89.5691 79.9316 88.9463L79.9141 88.227C79.9141 87.113 80.0413 86.3411 80.2957 85.9113C80.55 85.4815 81.1509 85.2666 82.0982 85.2666L83.3131 85.2227H83.7604L84.8481 85.2666C85.5499 85.2666 86.0586 85.3938 86.3788 85.6525C86.6945 85.9113 86.8524 86.4069 86.8524 87.1437V87.2446H85.2735C85.2735 87.113 85.256 86.999 85.2209 86.9025C85.1858 86.8104 85.1244 86.7446 85.0367 86.7139C84.949 86.6832 84.8394 86.6569 84.7122 86.635H84.313L82.4315 86.5999C82.0456 86.5999 81.8044 86.7007 81.7035 86.9069C81.6026 87.113 81.55 87.4507 81.55 87.92V88.4551C81.55 88.8542 81.5982 89.148 81.6947 89.3366C81.7912 89.5252 81.9359 89.6392 82.1333 89.6743L82.5631 89.7182H84.3876C84.6639 89.7182 84.8788 89.6699 85.0323 89.5691C85.1858 89.4682 85.2648 89.284 85.2648 89.0121V88.8454H83.2034V87.7753H86.8568Z" fill="#4E635E"/>
<path d="M94.9706 88.5428V88.8761C94.9706 89.762 94.7513 90.3454 94.3127 90.6304C93.8741 90.9155 93.2075 91.0602 92.3128 91.0602H90.9883C90.6199 91.0602 90.3085 91.0515 90.0541 91.0339C89.7997 91.0164 89.5716 90.9857 89.3743 90.9418C89.0059 90.8673 88.7076 90.6655 88.4752 90.3322C88.2427 89.9989 88.1287 89.4901 88.1287 88.7972V85.2885H89.7515V88.2884C89.7515 88.8498 89.8173 89.2182 89.9444 89.398C90.0716 89.5778 90.3962 89.6656 90.9093 89.6656H92.3084C92.7514 89.6656 93.0321 89.591 93.1592 89.4419C93.2864 89.2928 93.3478 88.9901 93.3478 88.5384V85.2885H94.975V88.5428H94.9706Z" fill="#4E635E"/>
<path d="M97.8828 89.2708C97.8828 89.4989 97.9529 89.648 98.0977 89.7182C98.2599 89.7752 98.4617 89.8059 98.7161 89.8059H99.4836L100.571 89.7708C100.869 89.7708 101.067 89.7313 101.155 89.6524C101.247 89.5735 101.291 89.4506 101.291 89.2796C101.291 89.1261 101.238 89.0033 101.133 88.9156C101.027 88.8279 100.83 88.7796 100.536 88.7796H100.273L97.6065 88.7094C97.1109 88.7094 96.7556 88.5735 96.5451 88.306C96.3433 88.0253 96.2425 87.6086 96.2425 87.056C96.2425 86.5867 96.3083 86.2227 96.4354 85.9639C96.5626 85.7052 96.7995 85.521 97.1459 85.4201C97.3345 85.3675 97.5363 85.328 97.7643 85.2973C97.9924 85.2666 98.2336 85.249 98.4968 85.249L99.6239 85.2227H100.755C100.988 85.2227 101.194 85.2315 101.365 85.249C101.536 85.2666 101.698 85.2973 101.848 85.3455C102.119 85.4157 102.312 85.5517 102.426 85.7622C102.54 85.9727 102.615 86.1569 102.65 86.3279C102.685 86.499 102.703 86.7314 102.703 87.0253H101.115C101.115 86.8323 101.062 86.692 100.953 86.6086C100.843 86.5253 100.69 86.4858 100.492 86.4858L99.7116 86.4771L98.4748 86.5209C98.3213 86.5209 98.1854 86.556 98.0626 86.6218C97.9442 86.6876 97.8828 86.8016 97.8828 86.9595C97.8828 87.17 97.9485 87.3148 98.0801 87.3893C98.1459 87.42 98.2205 87.4419 98.317 87.4595C98.4091 87.477 98.5187 87.4858 98.6415 87.4858H100.966C101.659 87.4858 102.155 87.6042 102.457 87.8367C102.773 88.0603 102.926 88.5209 102.926 89.2226C102.926 89.898 102.786 90.3585 102.505 90.6085C102.225 90.8585 101.764 90.9857 101.119 90.9857L99.045 91.0471L97.9573 91.0208C97.3784 91.0208 96.953 90.9199 96.6854 90.7225C96.4179 90.5252 96.2819 90.1217 96.2819 89.5208V89.1787H97.8696L97.8828 89.2708Z" fill="#4E635E"/>
<path d="M107.641 85.2183L108.935 85.2447C109.882 85.2447 110.531 85.4113 110.878 85.749C111.229 86.0867 111.4 86.7578 111.4 87.7665V88.0384C111.4 89.2226 111.259 90.0164 110.983 90.4155C110.707 90.819 110.005 91.0164 108.882 91.0164L107.659 91.0515H107.146L106.045 91.0164C105.431 91.0164 104.957 90.8673 104.619 90.5646C104.282 90.262 104.111 89.7796 104.111 89.1086L104.093 88.0516C104.093 86.8893 104.229 86.1306 104.505 85.7753C104.782 85.4157 105.44 85.2403 106.483 85.2403L107.641 85.2183ZM106.764 89.6568H108.461C108.913 89.6568 109.242 89.6042 109.444 89.5033C109.645 89.398 109.746 89.1349 109.746 88.7094L109.764 87.9332C109.764 87.6744 109.751 87.4507 109.72 87.2621C109.689 87.0735 109.632 86.9332 109.545 86.8499C109.457 86.7621 109.325 86.7051 109.15 86.6788C108.974 86.6481 108.847 86.635 108.764 86.6306C108.681 86.6262 108.615 86.6262 108.567 86.6262H106.953C106.575 86.6262 106.295 86.6657 106.115 86.749C105.922 86.8235 105.812 86.999 105.782 87.2709L105.742 87.92V88.3103C105.742 88.8366 105.799 89.1919 105.909 89.3805C106.023 89.5647 106.304 89.6568 106.764 89.6568Z" fill="#4E635E"/>
<path d="M117.408 90.9945L114.198 86.7007V90.9945H112.672V85.2797H115.251L118.461 89.5647V85.2797H119.987V90.9945H117.408Z" fill="#4E635E"/>
</svg>
