<svg width="126" height="126" viewBox="0 0 126 126" fill="none" xmlns="http://www.w3.org/2000/svg">
<path d="M72.2825 66.4171H69.0525C65.5706 66.4171 64.7328 66.8719 64.7328 70.2688V71.9378C64.7328 74.762 65.3218 75.4001 68.8758 75.4001H72.2334C76.0851 75.4001 76.8247 75.0401 76.8247 73.5577V72.3697H70.6069V69.2903H81.0462V72.4614C81.0462 77.6156 79.4427 78.8264 72.7537 78.8264H68.4831C62.3831 78.8264 60.6323 77.4781 60.6323 72.4843V70.0168C60.6323 64.4732 62.1115 62.922 68.5813 62.922H72.3316C79.2955 62.922 81.0462 64.1296 81.0462 67.8733H76.8051C76.7789 66.6396 76.1637 66.4105 72.289 66.4105M90.975 78.8493C84.6787 78.8493 82.977 77.4552 82.977 72.2094V70.2034C82.977 64.0183 84.754 62.994 91.1223 62.994H94.7777C101.493 62.994 103.168 63.93 103.168 68.3773H98.9272C98.9043 67.1468 98.4822 66.5054 94.5813 66.5054H91.4201C87.7189 66.5054 87.1266 66.7999 87.1266 70.1543V71.8887C87.1266 74.9681 87.7156 75.4001 91.2728 75.4001H94.6337C98.2597 75.4001 98.9763 75.1056 98.9534 73.3286H103.195C103.221 77.5501 102.062 78.8493 94.7319 78.8493H90.975ZM116.811 78.8264H113.179C106.614 78.8264 105.063 77.5927 105.063 72.1178V70.2034C105.063 64.3128 106.516 62.9253 113.254 62.9253H116.887C123.946 62.9253 125.5 64.3848 125.5 70.1346V72.0523C125.5 77.8905 123.919 78.8264 116.811 78.8264ZM116.664 66.5054H113.627C109.749 66.5054 109.206 67.1239 109.206 70.2688V71.9116C109.206 74.7423 109.749 75.3346 113.48 75.3346H116.733C120.758 75.3346 121.38 74.8765 121.38 71.8461V70.2034C121.38 67.0094 120.784 66.5054 116.664 66.5054ZM45.3235 71.8461L48.7073 65.9589H48.9037L52.1631 71.8461H45.3235ZM51.9896 62.994H45.497L38.9422 74.7358L41.4358 78.8264H41.4489L43.5466 75.0172H53.9401L56.0148 78.8264H60.8254L51.9896 62.994Z" fill="#4E635E"/>
<path d="M29.6155 62.7355L19.9682 46.854L0.5 78.833L29.6155 62.7355ZM7.59153 78.833L30.0082 63.3834L29.7562 62.9678L4.19793 78.833H7.59153ZM14.6929 78.833L30.6758 64.4797L30.306 63.871L11.1422 78.833H14.6929ZM21.6371 78.833L31.6019 66.0113L31.1274 65.2259L18.0865 78.833H21.6371ZM39.3545 78.833C39.3545 78.833 34.5374 71.0313 32.3088 67.1697L25.0275 78.833H39.3545Z" fill="#4E635E"/>
</svg>
