<svg width="109" height="54" viewBox="0 0 109 54" fill="none" xmlns="http://www.w3.org/2000/svg">
<rect width="109" height="53" transform="translate(0 0.324219)" fill="#F78D40"/>
<path d="M17.463 15.5962C17.5143 15.6009 17.582 15.6056 17.666 15.6102C17.75 15.6102 17.8643 15.6102 18.009 15.6102C18.6017 15.6102 19.0427 15.4609 19.332 15.1622C19.626 14.8589 19.773 14.4366 19.773 13.8952C19.773 13.3446 19.6307 12.9222 19.346 12.6282C19.0613 12.3342 18.6203 12.1872 18.023 12.1872C17.7617 12.1872 17.575 12.1942 17.463 12.2082V15.5962ZM20.697 13.8952C20.697 14.3152 20.6317 14.6816 20.501 14.9942C20.3703 15.3022 20.1837 15.5612 19.941 15.7712C19.703 15.9766 19.4137 16.1306 19.073 16.2332C18.737 16.3312 18.3637 16.3802 17.953 16.3802C17.757 16.3802 17.5353 16.3709 17.288 16.3522C17.0407 16.3382 16.805 16.3056 16.581 16.2542V11.5432C16.805 11.4919 17.043 11.4592 17.295 11.4452C17.547 11.4312 17.771 11.4242 17.967 11.4242C18.373 11.4242 18.744 11.4732 19.08 11.5712C19.416 11.6646 19.703 11.8139 19.941 12.0192C20.1837 12.2199 20.3703 12.4766 20.501 12.7892C20.6317 13.0972 20.697 13.4659 20.697 13.8952ZM21.8001 16.3242V11.4732H24.9151V12.2222H22.6821V13.4192H24.6701V14.1542H22.6821V15.5752H25.0831V16.3242H21.8001ZM27.4277 16.3242C27.0777 15.5682 26.7393 14.7772 26.4127 13.9512C26.0907 13.1252 25.7897 12.2992 25.5097 11.4732H26.4827C26.5947 11.7999 26.709 12.1336 26.8257 12.4742C26.9423 12.8149 27.059 13.1509 27.1757 13.4822C27.2923 13.8089 27.409 14.1262 27.5257 14.4342C27.6423 14.7422 27.7567 15.0246 27.8687 15.2812C27.976 15.0246 28.088 14.7446 28.2047 14.4412C28.3213 14.1332 28.438 13.8136 28.5547 13.4822C28.676 13.1509 28.795 12.8149 28.9117 12.4742C29.0283 12.1336 29.1403 11.7999 29.2477 11.4732H30.1927C29.908 12.2992 29.6047 13.1252 29.2827 13.9512C28.9607 14.7772 28.6247 15.5682 28.2747 16.3242H27.4277ZM30.96 16.3242V11.4732H34.075V12.2222H31.842V13.4192H33.83V14.1542H31.842V15.5752H34.243V16.3242H30.96ZM38.2675 15.5612V16.3242H35.2015V11.4732H36.0835V15.5612H38.2675ZM39.5215 13.8952C39.5215 14.1612 39.5542 14.4039 39.6195 14.6232C39.6849 14.8379 39.7782 15.0222 39.8995 15.1762C40.0255 15.3256 40.1772 15.4422 40.3545 15.5262C40.5319 15.6102 40.7325 15.6522 40.9565 15.6522C41.1759 15.6522 41.3742 15.6102 41.5515 15.5262C41.7289 15.4422 41.8782 15.3256 41.9995 15.1762C42.1255 15.0222 42.2212 14.8379 42.2865 14.6232C42.3519 14.4039 42.3845 14.1612 42.3845 13.8952C42.3845 13.6292 42.3519 13.3889 42.2865 13.1742C42.2212 12.9549 42.1255 12.7706 41.9995 12.6212C41.8782 12.4672 41.7289 12.3482 41.5515 12.2642C41.3742 12.1802 41.1759 12.1382 40.9565 12.1382C40.7325 12.1382 40.5319 12.1802 40.3545 12.2642C40.1772 12.3482 40.0255 12.4672 39.8995 12.6212C39.7782 12.7752 39.6849 12.9596 39.6195 13.1742C39.5542 13.3889 39.5215 13.6292 39.5215 13.8952ZM43.3085 13.8952C43.3085 14.3106 43.2455 14.6769 43.1195 14.9942C42.9982 15.3116 42.8302 15.5776 42.6155 15.7922C42.4055 16.0022 42.1582 16.1609 41.8735 16.2682C41.5889 16.3756 41.2855 16.4292 40.9635 16.4292C40.6415 16.4292 40.3359 16.3756 40.0465 16.2682C39.7619 16.1609 39.5122 16.0022 39.2975 15.7922C39.0875 15.5776 38.9195 15.3116 38.7935 14.9942C38.6675 14.6769 38.6045 14.3106 38.6045 13.8952C38.6045 13.4799 38.6675 13.1159 38.7935 12.8032C38.9195 12.4859 39.0899 12.2199 39.3045 12.0052C39.5239 11.7906 39.7759 11.6296 40.0605 11.5222C40.3452 11.4149 40.6462 11.3612 40.9635 11.3612C41.2809 11.3612 41.5819 11.4149 41.8665 11.5222C42.1512 11.6296 42.3985 11.7906 42.6085 12.0052C42.8232 12.2199 42.9935 12.4859 43.1195 12.8032C43.2455 13.1159 43.3085 13.4799 43.3085 13.8952ZM45.7881 11.4242C46.4928 11.4242 47.0318 11.5526 47.4051 11.8092C47.7831 12.0659 47.9721 12.4672 47.9721 13.0132C47.9721 13.2979 47.9208 13.5429 47.8181 13.7482C47.7201 13.9489 47.5755 14.1146 47.3841 14.2452C47.1928 14.3712 46.9595 14.4646 46.6841 14.5252C46.4088 14.5859 46.0938 14.6162 45.7391 14.6162H45.2981V16.3242H44.4161V11.5432C44.6215 11.4966 44.8478 11.4662 45.0951 11.4522C45.3471 11.4336 45.5781 11.4242 45.7881 11.4242ZM45.8511 12.1872C45.6271 12.1872 45.4428 12.1942 45.2981 12.2082V13.8602H45.7251C46.1498 13.8602 46.4765 13.8019 46.7051 13.6852C46.9338 13.5639 47.0481 13.3376 47.0481 13.0062C47.0481 12.8476 47.0178 12.7146 46.9571 12.6072C46.8965 12.4999 46.8125 12.4159 46.7051 12.3552C46.5978 12.2946 46.4695 12.2526 46.3201 12.2292C46.1755 12.2012 46.0191 12.1872 45.8511 12.1872ZM48.9174 16.3242V11.4732H52.0324V12.2222H49.7994V13.4192H51.7874V14.1542H49.7994V15.5752H52.2004V16.3242H48.9174ZM54.041 15.5962C54.0923 15.6009 54.16 15.6056 54.244 15.6102C54.328 15.6102 54.4423 15.6102 54.587 15.6102C55.1797 15.6102 55.6207 15.4609 55.91 15.1622C56.204 14.8589 56.351 14.4366 56.351 13.8952C56.351 13.3446 56.2087 12.9222 55.924 12.6282C55.6393 12.3342 55.1983 12.1872 54.601 12.1872C54.3397 12.1872 54.153 12.1942 54.041 12.2082V15.5962ZM57.275 13.8952C57.275 14.3152 57.2097 14.6816 57.079 14.9942C56.9483 15.3022 56.7617 15.5612 56.519 15.7712C56.281 15.9766 55.9917 16.1306 55.651 16.2332C55.315 16.3312 54.9417 16.3802 54.531 16.3802C54.335 16.3802 54.1133 16.3709 53.866 16.3522C53.6187 16.3382 53.383 16.3056 53.159 16.2542V11.5432C53.383 11.4919 53.621 11.4592 53.873 11.4452C54.125 11.4312 54.349 11.4242 54.545 11.4242C54.951 11.4242 55.322 11.4732 55.658 11.5712C55.994 11.6646 56.281 11.8139 56.519 12.0192C56.7617 12.2199 56.9483 12.4766 57.079 12.7892C57.2097 13.0972 57.275 13.4659 57.275 13.8952ZM61.6149 16.3802C61.3582 16.3802 61.0992 16.3709 60.8379 16.3522C60.5766 16.3382 60.3479 16.3056 60.1519 16.2542V11.5432C60.2546 11.5246 60.3642 11.5082 60.4809 11.4942C60.5976 11.4756 60.7166 11.4616 60.8379 11.4522C60.9592 11.4429 61.0782 11.4359 61.1949 11.4312C61.3162 11.4266 61.4306 11.4242 61.5379 11.4242C61.8319 11.4242 62.1049 11.4476 62.3569 11.4942C62.6089 11.5362 62.8259 11.6086 63.0079 11.7112C63.1946 11.8139 63.3392 11.9492 63.4419 12.1172C63.5446 12.2852 63.5959 12.4929 63.5959 12.7402C63.5959 12.9689 63.5399 13.1649 63.4279 13.3282C63.3206 13.4916 63.1689 13.6222 62.9729 13.7202C63.2669 13.8182 63.4839 13.9629 63.6239 14.1542C63.7639 14.3456 63.8339 14.5882 63.8339 14.8822C63.8339 15.3816 63.6519 15.7572 63.2879 16.0092C62.9239 16.2566 62.3662 16.3802 61.6149 16.3802ZM61.0199 14.1402V15.6172C61.1179 15.6266 61.2229 15.6336 61.3349 15.6382C61.4469 15.6429 61.5496 15.6452 61.6429 15.6452C61.8249 15.6452 61.9929 15.6336 62.1469 15.6102C62.3056 15.5869 62.4409 15.5472 62.5529 15.4912C62.6696 15.4306 62.7606 15.3512 62.8259 15.2532C62.8959 15.1552 62.9309 15.0292 62.9309 14.8752C62.9309 14.5999 62.8306 14.4086 62.6299 14.3012C62.4292 14.1939 62.1516 14.1402 61.7969 14.1402H61.0199ZM61.0199 13.4472H61.6429C61.9789 13.4472 62.2426 13.4006 62.4339 13.3072C62.6252 13.2092 62.7209 13.0366 62.7209 12.7892C62.7209 12.5559 62.6206 12.3902 62.4199 12.2922C62.2239 12.1942 61.9672 12.1452 61.6499 12.1452C61.5146 12.1452 61.3932 12.1476 61.2859 12.1522C61.1832 12.1569 61.0946 12.1639 61.0199 12.1732V13.4472ZM66.3663 13.6222C66.5763 13.2722 66.7816 12.9176 66.9823 12.5582C67.1829 12.1989 67.3649 11.8372 67.5283 11.4732H68.5083C68.2469 11.9679 67.9739 12.4602 67.6893 12.9502C67.4093 13.4356 67.1083 13.9256 66.7863 14.4202V16.3242H65.9043V14.4342C65.5823 13.9349 65.2789 13.4402 64.9943 12.9502C64.7096 12.4602 64.4366 11.9679 64.1753 11.4732H65.2113C65.3746 11.8372 65.5543 12.1989 65.7503 12.5582C65.9463 12.9176 66.1516 13.2722 66.3663 13.6222Z" fill="#F0F0F0" fill-opacity="0.5"/>
<g clip-path="url(#clip0_714_14823)">
<path d="M18.2506 28.2942C18.3331 28.8998 19.049 29.3036 19.9257 29.3036C20.8478 29.3036 21.446 28.9116 21.446 28.3805C21.446 27.8905 21.0541 27.6514 20.002 27.4437L18.7849 27.2163C17.0706 26.9047 16.1877 26.0228 16.1877 24.6823C16.1877 22.9674 17.7349 21.864 19.8865 21.864C22.2134 21.864 23.5873 22.936 23.6121 24.596H21.4275C21.3821 23.9532 20.757 23.5671 19.9071 23.5671C19.0572 23.5671 18.5332 23.9218 18.5332 24.4608C18.5332 24.939 18.9458 25.2016 19.9195 25.3917L21.1242 25.6053C22.9623 25.9424 23.7874 26.7323 23.7874 28.1296C23.7874 29.8935 22.2588 31.0067 19.8679 31.0067C17.477 31.0067 16.0289 30.013 16 28.2942H18.2506Z" fill="#F0F0F0"/>
<path d="M31.7585 30.8577V27.3006H28.0452V30.8577H25.6874V22.0228H28.0514V25.4878H31.7647V22.0228H34.1225V30.8577H31.7585Z" fill="#F0F0F0"/>
<path d="M35.8059 30.8577L38.927 22.0228H41.8151L44.9507 30.8577H42.434L41.846 28.9175H38.8094L35.8059 30.8577ZM39.2653 27.3006H41.386L40.3546 23.8964H40.303L39.2653 27.3006Z" fill="#F0F0F0"/>
<path d="M46.6319 30.8577V22.0228H50.6608C52.6577 22.0228 54.0109 23.2536 54.0109 25.1585C54.0109 27.0635 52.5875 28.2747 50.5184 28.2747H48.9981L46.6319 30.8577ZM48.9981 26.5853H50.0295C51.0342 26.5853 51.6262 26.0894 51.6262 25.1644C51.6262 24.2394 51.0342 23.7494 50.0419 23.7494H49.0105L48.9981 26.5853Z" fill="#F0F0F0"/>
<path d="M64.7813 26.4422C64.7813 29.2585 63.0093 31.0106 60.1914 31.0106C57.3734 31.0106 55.5973 29.2585 55.5973 26.4422C55.5973 23.6259 57.3755 21.868 60.1914 21.868C63.0072 21.868 64.7813 23.6259 64.7813 26.4422ZM58.0067 26.4422C58.0067 28.1198 58.8649 29.186 60.1914 29.186C61.5178 29.186 62.378 28.1198 62.378 26.4422C62.378 24.7646 61.5137 23.6985 60.1914 23.6985C58.869 23.6985 58.0067 24.7666 58.0067 26.4422Z" fill="#F0F0F0"/>
<path d="M69.1897 24.2942L70.3676 28.6588H70.4192L72.2057 22.0228H74.7967L71.8302 30.8577H68.8535L65.8891 22.0228" fill="#F0F0F0"/>
<path d="M74.8792 30.8577L78.0045 22.0228H80.8925L84.0178 30.8577H81.5114L80.9235 28.9175H77.8828L74.8792 30.8577ZM78.3407 27.3006H80.4614L79.4299 23.8964H79.3784L78.3407 27.3006Z" fill="#F0F0F0"/>
<path d="M88.0714 29.0449H91.9187V30.8577H85.7053V22.0228" fill="#F0F0F0"/>
<path d="M16.0664 42.6994L19.2515 33.6978H22.1994L25.3845 42.6994H22.8224L22.218 40.7219H19.1236L16.0664 42.6994ZM19.5898 39.0756H21.7518L20.6997 35.6067H20.6481L19.5898 39.0756Z" fill="#F0F0F0"/>
<path d="M38.8882 37.7899V38.8953C38.8882 41.3529 37.2854 42.8561 34.5871 42.8561C31.664 42.8561 29.9043 41.1413 29.9043 38.1839C29.9043 35.2637 31.664 33.541 34.5273 33.541C36.8253 33.541 38.5458 34.8326 38.7892 36.6768H36.4066C36.1693 35.8791 35.4597 35.3931 34.5335 35.3931C33.1678 35.3931 32.3612 36.4083 32.3612 38.1623C32.3612 39.9164 33.2545 41.0256 34.6304 41.0256C35.7217 41.0256 36.487 40.4142 36.5489 39.5087V39.3715H34.8161" fill="#F0F0F0"/>
<path d="M51.0201 42.6994H44.5241V33.6978H51.0201V35.5459H46.9356V37.3372H50.7767V39.0207H46.9356V40.8551H51.0201V42.6994Z" fill="#F0F0F0"/>
<path d="M56.821 42.6994V33.6978H58.7436L62.7642 38.9325H62.8158V33.6978H65.1015V42.6994H63.1974L59.1582 37.4078H59.1067V42.6994H56.821Z" fill="#F0F0F0"/>
<path d="M70.4237 38.2094C70.4237 35.2696 72.1999 33.5685 75.0137 33.5685C77.4046 33.5685 79.2178 35.0305 79.29 37.151H76.9775C76.86 36.0947 76.0678 35.3872 75.0137 35.3872C73.7037 35.3872 72.8724 36.4514 72.8724 38.1937C72.8724 39.936 73.6975 41.0335 75.0281 41.0335C76.0822 41.0335 76.8496 40.373 77.0002 39.3225H79.3107C79.1993 41.4568 77.4541 42.862 75.0219 42.862C72.1854 42.8561 70.4237 41.1452 70.4237 38.2094Z" fill="#F0F0F0"/>
<path d="M86.5143 42.6994V39.6067L83.2508 33.6978H85.8377L87.7211 37.4411H87.7686L89.6458 33.6978H92.1873L88.9238 39.6067V42.6994H86.5143Z" fill="#F0F0F0"/>
</g>
<defs>
<clipPath id="clip0_714_14823">
<rect width="77" height="24" fill="white" transform="translate(16 21.3242)"/>
</clipPath>
</defs>
</svg>
