<svg width="401" height="51" viewBox="0 0 401 51" fill="none" xmlns="http://www.w3.org/2000/svg">
<path d="M172.161 19.2116L176.873 27.3727H178.822L172.161 15.8362L165.5 27.3727H167.449L172.161 19.2116Z" fill="#4E635E"/>
<path d="M170.372 25.685L169.398 27.3727H174.924L173.95 25.685H170.372Z" fill="#53A8AC"/>
<path d="M221.061 20.735L224.894 27.3727H226.479L221.061 17.9897L215.644 27.3727H217.229L221.061 20.735Z" fill="#4E635E"/>
<path d="M219.607 26.0001L218.814 27.3727H223.309L222.517 26.0001H219.607Z" fill="#53A8AC"/>
<path d="M228.921 20.7068V27.379H227.432V17.9422H228.655L233.998 24.7606V17.9555H235.5V27.379H234.198L228.921 20.7068Z" fill="#4E635E"/>
<path d="M213.494 27.379V17.9422H214.983V27.379H213.494Z" fill="#4E635E"/>
<path d="M205.105 27.379V17.9422H209.212C209.638 17.9422 210.027 18.0308 210.382 18.208C210.736 18.3852 211.042 18.62 211.299 18.9124C211.565 19.2049 211.769 19.5327 211.91 19.896C212.061 20.2593 212.136 20.6315 212.136 21.0125C212.136 21.4289 212.061 21.8277 211.91 22.2087C211.76 22.5897 211.543 22.9176 211.259 23.1923C210.984 23.4669 210.661 23.6663 210.289 23.7904L212.509 27.379H210.834L208.787 24.0961H206.594V27.379H205.105ZM206.594 22.7802H209.199C209.474 22.7802 209.717 22.7005 209.93 22.541C210.143 22.3815 210.311 22.1688 210.435 21.903C210.559 21.6283 210.621 21.3315 210.621 21.0125C210.621 20.6846 210.55 20.3922 210.408 20.1352C210.267 19.8694 210.081 19.6568 209.85 19.4973C209.629 19.3378 209.385 19.258 209.119 19.258H206.594V22.7802Z" fill="#4E635E"/>
<path d="M199.26 17.9422H200.668L204.337 27.379H202.769L201.772 24.8138H198.13L197.146 27.379H195.565L199.26 17.9422ZM201.479 23.7106L199.964 19.577L198.396 23.7106H201.479Z" fill="#4E635E"/>
<path d="M188.146 27.379V17.9422H192.253C192.679 17.9422 193.069 18.0308 193.423 18.208C193.778 18.3852 194.083 18.62 194.34 18.9124C194.606 19.2049 194.81 19.5327 194.952 19.896C195.102 20.2593 195.178 20.6315 195.178 21.0125C195.178 21.4289 195.102 21.8277 194.952 22.2087C194.801 22.5897 194.584 22.9176 194.3 23.1923C194.026 23.4669 193.702 23.6663 193.33 23.7904L195.55 27.379H193.875L191.828 24.0961H189.635V27.379H188.146ZM189.635 22.7802H192.24C192.515 22.7802 192.759 22.7005 192.971 22.541C193.184 22.3815 193.352 22.1688 193.476 21.903C193.6 21.6283 193.662 21.3315 193.662 21.0125C193.662 20.6846 193.591 20.3922 193.45 20.1352C193.308 19.8694 193.122 19.6568 192.891 19.4973C192.67 19.3378 192.426 19.258 192.16 19.258H189.635V22.7802Z" fill="#4E635E"/>
<path d="M213.539 34.116C213.539 34.333 213.482 34.5196 213.367 34.6757C213.257 34.8318 213.107 34.9517 212.916 35.0355C212.726 35.1193 212.516 35.1611 212.288 35.1611H210.352V31.1062H212.442C212.632 31.1062 212.796 31.1576 212.933 31.2604C213.074 31.3594 213.181 31.4889 213.253 31.6488C213.329 31.8049 213.367 31.9686 213.367 32.1399C213.367 32.3379 213.316 32.5245 213.213 32.6996C213.114 32.871 212.971 32.9985 212.785 33.0823C213.017 33.1508 213.2 33.2765 213.333 33.4592C213.47 33.6382 213.539 33.8571 213.539 34.116ZM212.882 33.9961C212.882 33.8818 212.857 33.779 212.808 33.6877C212.762 33.5925 212.697 33.5163 212.613 33.4592C212.534 33.3983 212.438 33.3678 212.328 33.3678H210.991V34.6072H212.288C212.402 34.6072 212.503 34.5805 212.591 34.5272C212.682 34.4701 212.752 34.3958 212.802 34.3045C212.855 34.2093 212.882 34.1065 212.882 33.9961ZM210.991 31.6602V32.8538H212.168C212.275 32.8538 212.37 32.8291 212.454 32.7796C212.537 32.7263 212.604 32.6558 212.653 32.5683C212.703 32.4769 212.728 32.3741 212.728 32.2599C212.728 32.1418 212.705 32.039 212.659 31.9515C212.613 31.8601 212.551 31.7896 212.471 31.7401C212.395 31.6868 212.305 31.6602 212.202 31.6602H210.991Z" fill="#4E635E"/>
<path d="M204.007 35.1897C203.683 35.1897 203.409 35.1345 203.185 35.0241C202.964 34.9137 202.785 34.7633 202.648 34.5729C202.514 34.3825 202.415 34.1655 202.351 33.9218C202.29 33.6781 202.259 33.4249 202.259 33.1622V31.1062H202.899V33.1622C202.899 33.3488 202.918 33.5296 202.956 33.7048C202.994 33.8761 203.055 34.0303 203.139 34.1674C203.223 34.3045 203.335 34.413 203.476 34.4929C203.621 34.5729 203.798 34.6129 204.007 34.6129C204.22 34.6129 204.397 34.5729 204.538 34.4929C204.683 34.4092 204.795 34.2988 204.875 34.1617C204.959 34.0208 205.02 33.8647 205.058 33.6934C205.096 33.522 205.115 33.345 205.115 33.1622V31.1062H205.76V33.1622C205.76 33.4402 205.726 33.7029 205.658 33.9504C205.593 34.194 205.49 34.4092 205.349 34.5957C205.212 34.7785 205.033 34.9232 204.812 35.0298C204.591 35.1364 204.323 35.1897 204.007 35.1897Z" fill="#4E635E"/>
<path d="M195.363 35.1611V31.1062H196.003V34.5957H198.179V35.1611H195.363Z" fill="#4E635E"/>
<path d="M187.461 33.1051C187.461 32.8576 187.505 32.6159 187.593 32.3798C187.68 32.1399 187.808 31.9229 187.975 31.7287C188.147 31.5308 188.354 31.3746 188.598 31.2604C188.842 31.1424 189.118 31.0834 189.426 31.0834C189.791 31.0834 190.107 31.1671 190.374 31.3347C190.641 31.4984 190.839 31.7097 190.968 31.9686L190.465 32.3056C190.389 32.1418 190.292 32.0124 190.174 31.9172C190.06 31.822 189.934 31.7554 189.797 31.7173C189.664 31.6792 189.533 31.6602 189.403 31.6602C189.19 31.6602 189.003 31.704 188.843 31.7916C188.683 31.8753 188.548 31.9876 188.438 32.1285C188.331 32.2694 188.249 32.4274 188.192 32.6025C188.139 32.7777 188.112 32.9528 188.112 33.128C188.112 33.3222 188.145 33.5106 188.209 33.6934C188.274 33.8723 188.364 34.0322 188.478 34.1731C188.596 34.3102 188.735 34.4187 188.895 34.4987C189.055 34.5786 189.23 34.6186 189.42 34.6186C189.55 34.6186 189.685 34.5957 189.826 34.5501C189.967 34.5044 190.096 34.4339 190.214 34.3387C190.336 34.2397 190.431 34.1103 190.5 33.9504L191.031 34.2531C190.947 34.4549 190.816 34.6262 190.637 34.7671C190.462 34.908 190.264 35.0146 190.043 35.0869C189.826 35.1592 189.611 35.1954 189.397 35.1954C189.112 35.1954 188.851 35.1364 188.615 35.0184C188.379 34.8965 188.175 34.7366 188.004 34.5386C187.833 34.3368 187.699 34.1122 187.604 33.8647C187.509 33.6134 187.461 33.3602 187.461 33.1051Z" fill="#4E635E"/>
<path fill-rule="evenodd" clip-rule="evenodd" d="M181.105 27.0268C181.646 27.2838 182.226 27.4123 182.846 27.4123C183.889 27.4123 184.806 27 185.598 26.1753V27.3458H186.847V22.5742H183.617V23.6774H185.598V24.6819C185.232 25.1159 184.842 25.4501 184.428 25.6844C183.967 25.9414 183.48 26.0699 182.966 26.0699C182.532 26.0699 182.129 25.9812 181.757 25.804C181.384 25.6268 181.061 25.3831 180.786 25.073C180.512 24.754 180.299 24.3863 180.148 23.9698C179.998 23.5534 179.922 23.1059 179.922 22.6274C179.922 22.1755 179.989 21.7457 180.122 21.3381C180.255 20.9217 180.45 20.5539 180.707 20.235C180.972 19.9071 181.287 19.6501 181.65 19.4641C182.013 19.278 182.417 19.1849 182.86 19.1849C183.4 19.1849 183.896 19.3134 184.348 19.5704C184.809 19.8274 185.164 20.2128 185.412 20.7267L186.555 19.9027C186.245 19.2824 185.779 18.7862 185.159 18.414C184.548 18.033 183.795 17.8425 182.9 17.8425C182.253 17.8425 181.655 17.9666 181.105 18.2147C180.565 18.4628 180.091 18.8084 179.683 19.2514C179.284 19.6944 178.97 20.1995 178.739 20.7666C178.518 21.3337 178.407 21.9407 178.407 22.5875C178.407 23.2344 178.518 23.8458 178.739 24.4217C178.97 24.9977 179.284 25.5116 179.683 25.9635C180.091 26.4154 180.565 26.7699 181.105 27.0268ZM185.744 24.5015C185.696 24.5634 185.647 24.6236 185.598 24.6819V26.1753C185.601 26.1719 185.604 26.1686 185.607 26.1652C185.653 26.1171 185.699 26.0676 185.744 26.0167V24.5015Z" fill="#4E635E"/>
<path d="M185.744 26.0167V24.5015C185.696 24.5634 185.647 24.6236 185.598 24.6819V26.1753L185.607 26.1652C185.653 26.1171 185.699 26.0676 185.744 26.0167Z" fill="#4E635E"/>
</svg>
