<svg width="140" height="40" viewBox="0 0 140 40" fill="none" xmlns="http://www.w3.org/2000/svg">
<path d="M13.3211 7.75088L22.7459 24.0731H26.6436L13.3211 1L0 24.0731H3.89766L13.3211 7.75088Z" fill="#EBF6F6"/>
<path d="M9.74407 20.6977L7.79524 24.0731H18.8482L16.8994 20.6977H9.74407Z" fill="#53A8AC"/>
<path d="M111.123 10.7977L118.788 24.0731H121.958L111.123 5.30704L100.288 24.0731H103.458L111.123 10.7977Z" fill="#EBF6F6"/>
<path d="M108.214 21.3277L106.629 24.0731H115.618L114.033 21.3277H108.214Z" fill="#53A8AC"/>
<path d="M126.842 10.7412V24.0857H123.864V5.21199H126.31L136.996 18.8489V5.23857H140V24.0857H137.395L126.842 10.7412Z" fill="#EBF6F6"/>
<path d="M95.9879 24.0857V5.21199H98.9651V24.0857H95.9879Z" fill="#EBF6F6"/>
<path d="M79.2105 24.0857V5.21199H87.4246C88.2752 5.21199 89.055 5.3892 89.7638 5.74364C90.4727 6.09808 91.0841 6.5677 91.598 7.15252C92.1297 7.73734 92.5373 8.39305 92.8208 9.11964C93.1221 9.84624 93.2727 10.5906 93.2727 11.3526C93.2727 12.1855 93.1221 12.983 92.8208 13.745C92.5196 14.5071 92.0854 15.1628 91.5183 15.7121C90.9689 16.2615 90.3221 16.6603 89.5778 16.9084L94.0171 24.0857H90.6676L86.5739 17.5198H82.1878V24.0857H79.2105ZM82.1878 14.8881H87.398C87.9473 14.8881 88.4347 14.7286 88.86 14.4096C89.2853 14.0906 89.622 13.6653 89.8702 13.1336C90.1183 12.5843 90.2423 11.9906 90.2423 11.3526C90.2423 10.6969 90.1005 10.1121 89.817 9.59813C89.5334 9.06648 89.1613 8.64115 88.7005 8.32216C88.2575 8.00317 87.7701 7.84367 87.2385 7.84367H82.1878V14.8881Z" fill="#EBF6F6"/>
<path d="M67.5192 5.21199H70.337L77.6738 24.0857H74.5371L72.5434 18.9552H65.2597L63.2926 24.0857H60.1292L67.5192 5.21199ZM71.9585 16.7489L68.9281 8.48166L65.7914 16.7489H71.9585Z" fill="#EBF6F6"/>
<path d="M45.2929 24.0857V5.21199H53.507C54.3576 5.21199 55.1374 5.3892 55.8462 5.74364C56.5551 6.09808 57.1665 6.5677 57.6804 7.15252C58.2121 7.73734 58.6197 8.39305 58.9033 9.11964C59.2045 9.84624 59.3552 10.5906 59.3552 11.3526C59.3552 12.1855 59.2045 12.983 58.9033 13.745C58.602 14.5071 58.1678 15.1628 57.6007 15.7121C57.0513 16.2615 56.4045 16.6603 55.6602 16.9084L60.0995 24.0857H56.7501L52.6563 17.5198H48.2702V24.0857H45.2929ZM48.2702 14.8881H53.4804C54.0298 14.8881 54.5171 14.7286 54.9424 14.4096C55.3678 14.0906 55.7045 13.6653 55.9526 13.1336C56.2007 12.5843 56.3247 11.9906 56.3247 11.3526C56.3247 10.6969 56.183 10.1121 55.8994 9.59813C55.6159 9.06648 55.2437 8.64115 54.7829 8.32216C54.3399 8.00317 53.8525 7.84367 53.3209 7.84367H48.2702V14.8881Z" fill="#EBF6F6"/>
<path d="M96.0773 37.5596C96.0773 37.9937 95.9631 38.3668 95.7347 38.679C95.5138 38.9912 95.213 39.2311 94.8323 39.3986C94.4516 39.5661 94.0327 39.6499 93.5758 39.6499H89.7037V31.5401H93.8843C94.265 31.5401 94.5924 31.6429 94.8666 31.8485C95.1483 32.0464 95.3615 32.3053 95.5062 32.6252C95.6585 32.9374 95.7347 33.2648 95.7347 33.6075C95.7347 34.0035 95.6319 34.3766 95.4263 34.7269C95.2283 35.0696 94.9427 35.3247 94.5696 35.4922C95.0341 35.6293 95.3996 35.8805 95.6661 36.2461C95.9403 36.604 96.0773 37.0418 96.0773 37.5596ZM94.7638 37.3198C94.7638 37.0913 94.7143 36.8857 94.6153 36.7029C94.5239 36.5126 94.3944 36.3603 94.2269 36.2461C94.067 36.1242 93.8766 36.0633 93.6558 36.0633H90.983V38.5419H93.5758C93.8043 38.5419 94.0061 38.4886 94.1812 38.382C94.364 38.2678 94.5049 38.1193 94.6039 37.9366C94.7105 37.7462 94.7638 37.5406 94.7638 37.3198ZM90.983 32.648V35.0353H93.336C93.5492 35.0353 93.7396 34.9858 93.9071 34.8868C94.0746 34.7802 94.2079 34.6393 94.3069 34.4642C94.4059 34.2814 94.4554 34.0758 94.4554 33.8474C94.4554 33.6113 94.4097 33.4057 94.3183 33.2306C94.2269 33.0478 94.1013 32.9069 93.9414 32.8079C93.7891 32.7013 93.6101 32.648 93.4045 32.648H90.983Z" fill="#EBF6F6"/>
<path d="M77.014 39.707C76.3668 39.707 75.8185 39.5966 75.3692 39.3758C74.9275 39.1549 74.5696 38.8542 74.2955 38.4734C74.029 38.0927 73.831 37.6586 73.7015 37.1713C73.5797 36.6839 73.5188 36.1775 73.5188 35.6521V31.5401H74.7981V35.6521C74.7981 36.0252 74.8362 36.3869 74.9123 36.7372C74.9885 37.0799 75.1103 37.3883 75.2778 37.6624C75.4453 37.9366 75.67 38.1536 75.9517 38.3135C76.2411 38.4734 76.5952 38.5534 77.014 38.5534C77.4405 38.5534 77.7945 38.4734 78.0763 38.3135C78.3657 38.146 78.5903 37.9251 78.7502 37.651C78.9177 37.3693 79.0396 37.057 79.1157 36.7144C79.1919 36.3717 79.2299 36.0176 79.2299 35.6521V31.5401H80.5207V35.6521C80.5207 36.208 80.4521 36.7334 80.3151 37.2284C80.1856 37.7157 79.98 38.146 79.6983 38.5191C79.4241 38.8846 79.0662 39.174 78.6246 39.3872C78.1829 39.6004 77.646 39.707 77.014 39.707Z" fill="#EBF6F6"/>
<path d="M59.7261 39.6499V31.5401H61.0054V38.5191H65.3573V39.6499H59.7261Z" fill="#EBF6F6"/>
<path d="M43.9226 35.5379C43.9226 35.0429 44.0102 34.5594 44.1853 34.0873C44.3605 33.6075 44.6156 33.1735 44.9506 32.7851C45.2933 32.3891 45.7083 32.0769 46.1956 31.8485C46.683 31.6124 47.2351 31.4944 47.8519 31.4944C48.5829 31.4944 49.215 31.6619 49.748 31.997C50.281 32.3244 50.677 32.747 50.9359 33.2649L49.9308 33.9388C49.7785 33.6113 49.5843 33.3524 49.3482 33.162C49.1198 32.9717 48.8685 32.8384 48.5943 32.7623C48.3278 32.6861 48.0651 32.648 47.8062 32.648C47.3798 32.648 47.0066 32.7356 46.6868 32.9108C46.367 33.0783 46.0967 33.3029 45.8758 33.5847C45.6626 33.8664 45.4989 34.1824 45.3847 34.5327C45.2781 34.883 45.2248 35.2333 45.2248 35.5836C45.2248 35.9719 45.2895 36.3489 45.4189 36.7144C45.5484 37.0723 45.7273 37.3921 45.9558 37.6739C46.1918 37.948 46.4698 38.165 46.7896 38.3249C47.1094 38.4849 47.4597 38.5648 47.8405 38.5648C48.0994 38.5648 48.3697 38.5191 48.6515 38.4277C48.9332 38.3364 49.1921 38.1955 49.4282 38.0051C49.6718 37.8071 49.8622 37.5482 49.9993 37.2284L51.0616 37.8338C50.894 38.2374 50.6313 38.58 50.2734 38.8618C49.9231 39.1435 49.5272 39.3568 49.0855 39.5014C48.6515 39.6461 48.2212 39.7185 47.7948 39.7185C47.2237 39.7185 46.702 39.6004 46.2299 39.3644C45.7578 39.1207 45.3504 38.8009 45.0077 38.4049C44.6651 38.0013 44.3985 37.552 44.2082 37.0571C44.0178 36.5545 43.9226 36.0481 43.9226 35.5379Z" fill="#EBF6F6"/>
<path fill-rule="evenodd" clip-rule="evenodd" d="M31.2105 23.3813C32.2915 23.8952 33.4523 24.1522 34.6928 24.1522C36.7784 24.1522 38.6126 23.3276 40.1954 21.6783V24.0193H42.6942V14.4761H36.2346V16.6825H40.1954V18.6915C39.4639 19.5595 38.6841 20.2278 37.8562 20.6965C36.9346 21.2104 35.9599 21.4674 34.9321 21.4674C34.0637 21.4674 33.2574 21.2901 32.513 20.9357C31.7687 20.5813 31.1219 20.0939 30.5725 19.4737C30.0231 18.8357 29.5978 18.1002 29.2965 17.2673C28.9953 16.4344 28.8446 15.5394 28.8446 14.5824C28.8446 13.6786 28.9775 12.8191 29.2434 12.0039C29.5092 11.171 29.8991 10.4355 30.413 9.79755C30.9447 9.14184 31.5738 8.62791 32.3004 8.25575C33.027 7.8836 33.8333 7.69752 34.7194 7.69752C35.8004 7.69752 36.7929 7.95448 37.6967 8.46841C38.6182 8.98235 39.3271 9.75324 39.8233 10.7811L42.1094 9.13298C41.4891 7.89246 40.5587 6.90003 39.3182 6.15572C38.0954 5.39368 36.5891 5.01266 34.7992 5.01266C33.5055 5.01266 32.3092 5.26077 31.2105 5.75698C30.1295 6.25319 29.1814 6.94434 28.3661 7.83043C27.5687 8.71652 26.9395 9.72666 26.4788 10.8609C26.0357 11.9951 25.8142 13.209 25.8142 14.5027C25.8142 15.7964 26.0357 17.0192 26.4788 18.1711C26.9395 19.323 27.5687 20.3509 28.3661 21.2547C29.1814 22.1585 30.1295 22.8674 31.2105 23.3813ZM40.4879 18.3306C40.3913 18.4545 40.2938 18.5748 40.1954 18.6915V21.6783C40.2019 21.6715 40.2084 21.6648 40.2149 21.658C40.3067 21.5618 40.3977 21.4628 40.4879 21.361V18.3306Z" fill="#EBF6F6"/>
<path d="M40.4879 21.361V18.3306C40.3913 18.4545 40.2938 18.5748 40.1954 18.6915V21.6783L40.2149 21.658C40.3067 21.5618 40.3977 21.4628 40.4879 21.361Z" fill="#EBF6F6"/>
</svg>
