<svg width="100" height="92" viewBox="0 0 100 92" fill="none" xmlns="http://www.w3.org/2000/svg">
<g filter="url(#filter0_d_830_5479)">
<mask id="mask0_830_5479" style="mask-type:alpha" maskUnits="userSpaceOnUse" x="21" y="21" width="58" height="50">
<path d="M49.9988 40.2148L66.8796 69.4656L67.1482 69.931H67.6856H75H76.6114L75.806 68.5354L50.8047 25.2121L49.9987 23.8155L49.1928 25.2122L24.194 68.5354L23.3887 69.931H25H32.3144H32.8518L33.1204 69.4655L49.9988 40.2148ZM43.2862 61.732H42.7488L42.4802 62.1975L38.823 68.5354L38.0176 69.931H39.6289H60.3712H61.9825L61.1772 68.5354L57.5199 62.1975L57.2513 61.732H56.714H43.2862Z" fill="#38A3A5" stroke="black" stroke-width="1.86105"/>
</mask>
<g mask="url(#mask0_830_5479)">
<rect x="-27.5078" y="-6.84082" width="176.706" height="95.0119" fill="#F1F4F3"/>
</g>
</g>
<defs>
<filter id="filter0_d_830_5479" x="0.724712" y="0.901104" width="98.5506" height="91.0131" filterUnits="userSpaceOnUse" color-interpolation-filters="sRGB">
<feFlood flood-opacity="0" result="BackgroundImageFix"/>
<feColorMatrix in="SourceAlpha" type="matrix" values="0 0 0 0 0 0 0 0 0 0 0 0 0 0 0 0 0 0 127 0" result="hardAlpha"/>
<feOffset/>
<feGaussianBlur stdDeviation="10.5263"/>
<feComposite in2="hardAlpha" operator="out"/>
<feColorMatrix type="matrix" values="0 0 0 0 0.219608 0 0 0 0 0.639216 0 0 0 0 0.647059 0 0 0 0.5 0"/>
<feBlend mode="normal" in2="BackgroundImageFix" result="effect1_dropShadow_830_5479"/>
<feBlend mode="normal" in="SourceGraphic" in2="effect1_dropShadow_830_5479" result="shape"/>
</filter>
</defs>
</svg>
