<svg width="71" height="29" viewBox="0 0 71 29" fill="none" xmlns="http://www.w3.org/2000/svg">
<path d="M31.947 19.2288H30.8016V14.5817H32.4833C32.857 14.5817 33.338 14.6267 33.7324 14.9693C34.0473 15.2392 34.1996 15.6129 34.1996 16.1077C34.1996 16.561 34.0612 16.9347 33.7913 17.208C33.421 17.5748 32.947 17.6233 32.5767 17.6233H31.947V19.2288ZM31.947 16.689H32.2999C32.4141 16.689 32.684 16.689 32.857 16.5264C32.9608 16.4226 33.0231 16.2669 33.0231 16.0973C33.0231 15.9243 32.9643 15.7721 32.8605 15.6752C32.7082 15.5333 32.4798 15.5125 32.2792 15.5125H31.947V16.689ZM35.9643 19.3326C35.4556 19.3326 35.0854 19.1838 34.7705 18.8551C34.4625 18.5333 34.3068 18.1388 34.3068 17.6855C34.3068 17.1907 34.4868 16.734 34.8016 16.426C35.0854 16.1492 35.4764 15.997 35.9124 15.997C36.1961 15.997 36.5802 16.0662 36.8605 16.381V16.0973H37.9366V19.2288H36.8605V18.9312C36.6425 19.1977 36.3449 19.3326 35.9643 19.3326ZM36.1615 16.9174C35.9643 16.9174 35.767 16.997 35.6321 17.1285C35.5317 17.2288 35.4106 17.3984 35.4106 17.6613C35.4106 17.9208 35.5214 18.0904 35.6113 18.1873C35.7497 18.3326 35.9643 18.4157 36.1823 18.4157C36.3691 18.4157 36.5525 18.343 36.684 18.2115C36.7913 18.1112 36.9193 17.9347 36.9193 17.6579C36.9193 17.4468 36.8397 17.2496 36.6978 17.1181C36.5387 16.9693 36.3172 16.9174 36.1615 16.9174ZM41.3691 20.0939V19.2288H39.2999V20.0939H38.3345V18.4122L38.3657 18.4087C38.5214 18.3914 38.6563 18.3291 38.774 18.2253C39.0162 18.0073 39.0369 17.689 39.0369 17.3222V16.1008H41.8743V18.4087H42.338V20.0939H41.3691ZM39.729 18.4087H40.7947V16.9243H40.03V17.4745C40.03 17.7824 39.9885 17.9485 39.9574 18.0489C39.9262 18.1388 39.8639 18.2703 39.729 18.4087ZM43.812 19.2288H42.7359V16.0973H43.812V19.2288ZM43.2757 15.4399C42.9262 15.4399 42.6529 15.17 42.6529 14.8309C42.6529 14.4883 42.9262 14.2219 43.2757 14.2219C43.6252 14.2219 43.8985 14.4918 43.8985 14.8309C43.8985 15.17 43.6252 15.4399 43.2757 15.4399ZM46.0715 19.3326C45.5144 19.3326 45.0093 19.1492 44.6805 18.8274C44.3795 18.5333 44.1996 18.0973 44.1996 17.6648C44.1996 17.2288 44.3795 16.7963 44.6805 16.5022C45.0058 16.1804 45.5144 15.997 46.0715 15.997C46.6286 15.997 47.1338 16.1804 47.4625 16.5022C47.7636 16.7963 47.9435 17.2323 47.9435 17.6648C47.9435 18.1008 47.7636 18.5333 47.4625 18.8274C47.1338 19.1492 46.6286 19.3326 46.0715 19.3326ZM46.0715 16.9035C45.8535 16.9035 45.6702 16.9727 45.5283 17.1146C45.3795 17.2599 45.3068 17.4399 45.3068 17.6682C45.3068 17.8932 45.3795 18.0766 45.5283 18.2219C45.6702 18.3603 45.857 18.433 46.0785 18.433C46.293 18.433 46.4729 18.3637 46.6148 18.2219C46.7636 18.0766 46.8362 17.8966 46.8362 17.6682C46.8362 17.4433 46.7636 17.2599 46.6148 17.1146C46.4729 16.9727 46.2895 16.9035 46.0715 16.9035ZM32.9089 26.6786C32.1407 26.6786 31.5144 26.4503 31.0508 26.0039C30.5733 25.5541 30.3103 24.9278 30.3103 24.2426C30.3103 23.5783 30.5802 22.9381 31.0508 22.4952C31.5075 22.0627 32.1338 21.8274 32.8189 21.8274C33.1719 21.8274 33.5456 21.9105 33.9539 22.0835L33.9747 22.0938V23.4226L33.9158 23.3637C33.6113 23.0454 33.2515 22.8862 32.8466 22.8862C32.4729 22.8862 32.158 23.0039 31.9158 23.2323C31.6425 23.4918 31.4833 23.8689 31.4833 24.2669C31.4833 24.7963 31.7324 25.1111 31.8778 25.253C31.992 25.3672 32.3207 25.6267 32.8639 25.6267C33.2445 25.6267 33.5871 25.4745 33.9124 25.1631L33.9712 25.1077V26.4226L33.9539 26.4295C33.5075 26.6509 33.1615 26.6786 32.9089 26.6786ZM36.4003 26.5748H34.4591V23.4433H36.1684C36.3622 23.4433 36.7186 23.4433 36.9677 23.6509C37.1442 23.7997 37.2307 24.0108 37.2307 24.2738C37.2307 24.4987 37.1684 24.6579 37.03 24.7928C36.9816 24.8447 36.9228 24.8897 36.8535 24.9243C36.9954 24.9658 37.1304 25.0385 37.2272 25.1285C37.3691 25.2669 37.4418 25.4502 37.4418 25.6752C37.4418 25.9208 37.3587 26.1354 37.1996 26.2911C37.0681 26.4226 36.8224 26.5748 36.4003 26.5748ZM35.5352 25.8482H35.9574C36.0404 25.8482 36.1546 25.8482 36.2376 25.7755C36.293 25.7271 36.3241 25.6475 36.3241 25.561C36.3241 25.4676 36.2757 25.4053 36.2376 25.3741C36.1477 25.3015 36.0023 25.3015 35.9158 25.3015H35.5352V25.8482ZM35.5352 24.6682H35.9158C35.9712 24.6682 36.075 24.6613 36.1511 24.6129C36.2134 24.5679 36.2411 24.5056 36.2411 24.4156C36.2411 24.3049 36.1857 24.2496 36.1615 24.2288C36.1131 24.1907 35.9954 24.1734 35.902 24.1734H35.5352V24.6682ZM39.6079 26.6786C39.0508 26.6786 38.5456 26.4952 38.2169 26.1734C37.9158 25.8793 37.7359 25.4433 37.7359 25.0108C37.7359 24.5748 37.9158 24.1423 38.2169 23.8482C38.5421 23.5264 39.0508 23.343 39.6079 23.343C40.165 23.343 40.6702 23.5264 40.9989 23.8482C41.2999 24.1423 41.4798 24.5783 41.4798 25.0108C41.4798 25.4468 41.2999 25.8793 40.9989 26.1734C40.6736 26.4952 40.165 26.6786 39.6079 26.6786ZM39.6079 24.2496C39.3899 24.2496 39.2065 24.3188 39.0646 24.4606C38.9158 24.606 38.8432 24.7859 38.8432 25.0143C38.8432 25.2392 38.9158 25.4226 39.0646 25.5679C39.2065 25.7063 39.3933 25.779 39.6148 25.779C39.8293 25.779 40.0093 25.7098 40.1511 25.5679C40.2999 25.4226 40.3726 25.2426 40.3726 25.0143C40.3726 24.7894 40.2999 24.606 40.1511 24.4606C40.0127 24.3188 39.8293 24.2496 39.6079 24.2496ZM43.7151 26.6786C43.1546 26.6786 42.7359 26.5333 42.4037 26.215C41.8397 25.6682 41.8397 24.8724 41.8397 24.6094C41.8397 24.0731 41.9193 23.0904 42.466 22.5195C42.8328 22.1354 43.2965 22.035 43.6044 21.9658L43.8535 21.9105C44.1304 21.8516 44.3311 21.8067 44.4349 21.6925C44.4902 21.6302 44.5041 21.5644 44.5041 21.5229V21.4883H45.4591L45.4556 21.5264C45.4245 21.8378 45.2757 22.1596 45.075 22.3499C44.9158 22.5056 44.6632 22.6302 44.3034 22.7271L43.8812 22.8413C43.6183 22.9139 43.3172 22.9935 43.1165 23.17C42.9574 23.3118 42.8501 23.516 42.812 23.734C43.0785 23.4676 43.4279 23.3361 43.8778 23.3361C44.376 23.3361 44.8155 23.4918 45.1131 23.779C45.4141 24.0662 45.5871 24.4849 45.5871 24.9312C45.5871 25.4226 45.4037 25.8655 45.0715 26.1838C44.6252 26.6233 44.1131 26.6786 43.7151 26.6786ZM43.7082 24.2565C43.4279 24.2565 43.2515 24.388 43.1719 24.4676C43.03 24.6094 42.9435 24.8136 42.9435 25.0212C42.9435 25.2219 43.0231 25.4156 43.165 25.5541C43.2446 25.6336 43.4245 25.7651 43.7221 25.7651C43.9124 25.7651 44.0819 25.6994 44.2272 25.5748C44.3864 25.4329 44.4833 25.215 44.4833 24.997C44.4833 24.8101 44.4037 24.6267 44.2618 24.4779C44.1131 24.3291 43.9297 24.2565 43.7082 24.2565ZM47.8155 26.6786C47.2584 26.6786 46.7532 26.4952 46.4245 26.1734C46.1234 25.8793 45.9435 25.4433 45.9435 25.0108C45.9435 24.5748 46.1234 24.1423 46.4245 23.8482C46.7497 23.5264 47.2584 23.343 47.8155 23.343C48.3726 23.343 48.8778 23.5264 49.2065 23.8482C49.5075 24.1423 49.6875 24.5783 49.6875 25.0108C49.6875 25.4468 49.5075 25.8793 49.2065 26.1734C48.8812 26.4952 48.3726 26.6786 47.8155 26.6786ZM47.8155 24.2496C47.5975 24.2496 47.4141 24.3188 47.2722 24.4606C47.1234 24.606 47.0508 24.7859 47.0508 25.0143C47.0508 25.2392 47.1234 25.4226 47.2722 25.5679C47.4141 25.7063 47.601 25.779 47.8224 25.779C48.0369 25.779 48.2169 25.7098 48.3587 25.5679C48.5075 25.4226 48.5802 25.2426 48.5802 25.0143C48.5802 24.7894 48.5075 24.606 48.3587 24.4606C48.2169 24.3188 48.0335 24.2496 47.8155 24.2496ZM52.8016 27.4433V26.5783H50.7324V27.4433H49.767V25.7582L49.7982 25.7547C49.9539 25.7374 50.0888 25.6752 50.2065 25.5714C50.4487 25.3534 50.4695 25.035 50.4695 24.6682V23.4468H53.3068V25.7547H53.7705V27.4433H52.8016ZM51.1615 25.7547H52.2272V24.2703H51.4625V24.8205C51.4625 25.1285 51.421 25.2945 51.3899 25.3949C51.3587 25.4849 51.2965 25.6163 51.1615 25.7547ZM55.5317 26.6786C55.0231 26.6786 54.6529 26.5298 54.338 26.2011C54.03 25.8793 53.8743 25.4849 53.8743 25.0316C53.8743 24.5368 54.0542 24.08 54.3691 23.772C54.6529 23.4952 55.0439 23.343 55.4798 23.343C55.7636 23.343 56.1477 23.4122 56.4279 23.7271V23.4433H57.5041V26.5748H56.4279V26.2738C56.2099 26.5437 55.9124 26.6786 55.5317 26.6786ZM55.729 24.2634C55.5317 24.2634 55.3345 24.343 55.1996 24.4745C55.0992 24.5748 54.9781 24.7444 54.9781 25.0073C54.9781 25.2669 55.0888 25.4364 55.1788 25.5333C55.3172 25.6786 55.5317 25.7617 55.7497 25.7617C55.9366 25.7617 56.12 25.689 56.2515 25.5575C56.3587 25.4572 56.4868 25.2807 56.4868 25.0039C56.4868 24.7928 56.4072 24.5956 56.2653 24.4641C56.1061 24.3153 55.8847 24.2634 55.729 24.2634Z" fill="#5C666F"/>
<path d="M30.5594 9.11462C28.1753 9.39143 27.5041 11.8586 25.7117 13.99C23.3138 16.8343 19.7567 15.3741 19.7567 15.3741C22.1546 15.0766 22.8432 12.5921 24.6805 10.471C27.12 7.65441 30.5594 9.11462 30.5594 9.11462ZM21.9158 13.2876C21.9158 13.2876 24.8985 10.9243 23.6113 7.44333C22.6425 4.81704 20.774 2.95545 21.7636 0.765137C21.7636 0.765137 18.8086 3.16306 20.0404 6.60943C20.9816 9.2461 22.9054 11.0973 21.9158 13.2876ZM21.7428 12.7859C21.7428 12.7859 22.03 8.95545 18.7255 7.4987C16.1477 6.36375 13.4383 6.47102 12.511 4.25302C12.511 4.25302 12.1442 8.05925 15.6494 9.5333C18.2445 10.6267 20.8155 10.5679 21.7428 12.7859ZM17.8155 19.2184H24.5179L26.0819 16.0731H17.8155V19.2184ZM18.8847 28.4468H19.4487L23.2965 19.6406H18.8847V28.4468Z" fill="#EA6903"/>
</svg>
