<svg width="71" height="14" viewBox="0 0 71 14" fill="none" xmlns="http://www.w3.org/2000/svg">
<path d="M36.8818 9.05418C36.8818 10.4479 35.1474 10.3652 35.1474 10.3652H33.4131V7.84683H35.1474C36.9323 7.83486 36.8818 9.05418 36.8818 9.05418ZM33.4131 4.00617H34.7347C36.107 4.07867 36.0552 5.10039 36.0552 5.10039C36.0552 6.37011 34.5378 6.39081 34.5378 6.39081H33.4131V4.00617ZM36.561 6.88604C36.561 6.88604 37.7481 6.38019 37.7375 5.03847C37.7375 5.03847 37.918 2.83959 35.0047 2.57139H31.772V11.7896H35.4775C35.4775 11.7896 38.5735 11.7988 38.5735 9.18864C38.5735 9.18864 38.6467 7.41236 36.561 6.88604ZM28.1948 0.765137H41.8052V13.5907H28.1948V0.765137ZM21.1868 9.05418C21.1868 10.4479 19.4525 10.3652 19.4525 10.3652H17.7181V7.84683H19.4525C21.2375 7.83486 21.1868 9.05418 21.1868 9.05418ZM17.7181 4.00617H19.0399C20.4123 4.07867 20.3603 5.10039 20.3603 5.10039C20.3603 6.37011 18.843 6.39081 18.843 6.39081H17.7181V4.00617ZM20.8662 6.88604C20.8662 6.88604 22.0535 6.38019 22.0428 5.03847C22.0428 5.03847 22.2232 2.83959 19.3099 2.57139H16.077V11.7896H19.7827C19.7827 11.7896 22.8788 11.7988 22.8788 9.18864C22.8788 9.18864 22.9517 7.41236 20.8662 6.88604ZM12.5 0.765137H26.1104V13.5907H12.5V0.765137ZM54.7235 3.23226V4.93533C54.7235 4.93533 53.0612 3.91374 51.2242 3.89318C51.2242 3.89318 47.7969 3.8259 47.6424 7.1784C47.6424 7.1784 47.5186 10.2615 51.1829 10.4372C51.1829 10.4372 52.7203 10.6223 54.806 9.29232V11.0561C54.806 11.0561 52.0082 12.7184 48.7671 11.4381C48.7671 11.4381 46.0426 10.4432 45.9388 7.1784C45.9388 7.1784 45.8255 3.82055 49.4592 2.7059C49.4592 2.7059 50.4295 2.33442 52.1733 2.49953C52.1733 2.49948 53.2155 2.60258 54.7235 3.23226ZM43.8896 13.5907H57.5V0.765137H43.8896V13.5907Z" fill="#A71111"/>
</svg>
