<svg width="70" height="16" viewBox="0 0 70 16" fill="none" xmlns="http://www.w3.org/2000/svg">
<path d="M42.2189 15.6555H40.7658L41.0939 14.1555H42.547L42.2189 15.6555ZM43.6252 15.6555L44.7502 10.2649H46.1095L45.9689 11.0618H46.0158C46.2502 10.8274 46.4845 10.593 46.7658 10.4055C47.1408 10.218 47.5158 10.1243 47.9377 10.1243C48.2189 10.1243 48.7345 10.1711 49.1095 10.5461C49.3439 10.8274 49.4845 11.2024 49.4377 11.5774C49.4377 11.7649 49.3908 11.9055 49.3908 12.0461L48.6408 15.6555H47.2345L47.8908 12.3743C47.9377 12.2805 47.9377 12.1399 47.9377 12.0461C47.9377 11.8586 47.8908 11.6243 47.7033 11.4836C47.5627 11.343 47.3752 11.2961 47.1408 11.2961C46.8127 11.2961 46.4845 11.3899 46.2033 11.6243C45.7814 11.9524 45.6408 12.3743 45.547 12.7493L44.9377 15.6555H43.5783H43.6252ZM51.4064 13.4993C51.3595 13.593 51.3595 13.6399 51.3595 13.7336C51.3595 14.0149 51.5002 14.2961 51.7345 14.4836C52.0158 14.6711 52.3908 14.7649 52.7658 14.7649C53.0939 14.7649 53.3752 14.718 53.7033 14.6243C53.9845 14.5774 54.2658 14.4836 54.547 14.3899L54.3127 15.468C53.7033 15.7024 53.0939 15.7961 52.4377 15.7961C51.7814 15.7961 51.0314 15.6555 50.5627 15.2336C50.2345 14.9524 49.9064 14.4368 49.9064 13.5461C49.9064 12.7024 50.2345 11.8586 50.8439 11.2493C51.5002 10.593 52.3439 10.218 53.2814 10.218C54.1252 10.218 54.5939 10.5461 54.8752 10.8743C55.1095 11.1555 55.3439 11.6243 55.3439 12.2805C55.3439 12.5618 55.297 12.843 55.2502 13.1243L55.2033 13.5461H51.4533V13.4993H51.4064ZM53.797 12.4211C53.8439 12.3274 53.8439 12.1868 53.8439 12.093C53.8439 11.8586 53.797 11.6243 53.6564 11.4368C53.5158 11.2961 53.3283 11.1555 52.9533 11.1555C52.6252 11.1555 52.297 11.2961 52.0627 11.5774C51.8283 11.8118 51.6877 12.093 51.5939 12.4211H53.797ZM55.7189 11.2024L55.9064 10.3118H56.7502L56.9845 9.09301L58.3908 8.95238L58.0627 10.3586H59.3283L59.1408 11.2493H57.9689L57.4533 13.8274C57.4064 13.968 57.4064 14.1555 57.4064 14.2961C57.4064 14.4368 57.4533 14.5774 57.547 14.6711C57.6877 14.7649 57.8283 14.8118 57.9689 14.8118C58.1564 14.8118 58.3908 14.7649 58.5783 14.718L58.3439 15.7493C58.0158 15.843 57.6408 15.843 57.3127 15.8899C56.8908 15.8899 56.5158 15.7961 56.2814 15.5618C56.047 15.3274 55.9064 15.0461 55.9533 14.718C55.9533 14.5305 55.9533 14.3899 56.0002 14.2024L56.5627 11.2961H55.8127L55.7189 11.2024Z" fill="#EA4949"/>
<path d="M23.7033 8.10863L22.2502 15.7024H19.4377L20.5158 10.218H19.1564L18.922 11.4836C18.547 13.3118 18.2658 15.6555 15.5002 15.6555C15.0314 15.6555 14.5627 15.6086 14.0939 15.468L14.4689 13.593C14.6564 13.6399 14.8908 13.6399 15.0783 13.6399C15.4064 13.6399 15.6877 13.4524 15.8283 13.1711C15.9689 12.9368 16.2033 12.4211 16.5783 10.4993L17.0939 8.01488H23.7033V8.10863ZM27.547 8.10863H24.7814L24.3595 10.3118H27.172L27.547 8.10863ZM23.422 14.8118L23.2814 15.7024H26.0939L27.1252 10.5461C24.6877 10.8274 23.8439 12.6555 23.422 14.8118ZM39.8752 15.7024H36.922L36.7345 14.1086H34.5314L33.7345 15.7024H30.922L35.0002 8.10863H38.797L39.8752 15.7024ZM36.7814 12.2805L36.5002 9.98363H36.4533L35.2345 12.2805H36.7814ZM32.8439 10.3118L33.9689 8.10863H28.6252L27.1252 15.7024H29.9377L31.0158 10.3118H32.8439Z" fill="#EA4949"/>
<path d="M9.21892 10.8743C8.65642 10.7805 8.09392 10.593 7.57829 10.2649C8.84392 10.218 10.672 9.70238 10.9533 8.24926C11.0002 8.10863 11.0002 7.92113 10.9533 7.78051C12.172 7.73363 14.1408 7.21801 14.422 5.76488C14.6564 4.45238 13.0158 3.98363 12.5939 2.95238C12.4533 2.57738 12.4533 1.87426 12.7814 1.59301C14.5627 2.67113 15.5002 4.73363 15.172 6.79613C14.5627 9.51488 11.9845 11.343 9.21892 10.8743ZM7.43767 10.218C5.04704 8.76488 4.29704 5.62426 5.75017 3.18676C6.82829 1.40551 8.89079 0.468009 10.9533 0.843009C11.5158 0.936759 12.0783 1.17113 12.5939 1.45238C11.3752 1.49926 9.54704 2.01488 9.31267 3.46801C9.21892 3.60863 9.21892 3.79613 9.26579 3.93676C8.00017 3.98363 6.07829 4.45238 5.79704 5.95238C5.56267 7.31176 7.20329 7.73363 7.62517 8.76488C7.76579 9.18676 7.76579 9.88988 7.43767 10.218ZM9.31267 4.03051C9.54704 4.96801 10.8127 5.43676 11.1408 6.32738C11.2814 6.70238 11.2814 7.45238 10.9064 7.73363C10.672 6.79613 9.40642 6.32738 9.07829 5.43676C8.93767 5.01488 8.93767 4.35863 9.31267 4.03051Z" fill="#EA4949"/>
</svg>
