<svg width="71" height="15" viewBox="0 0 71 15" fill="none" xmlns="http://www.w3.org/2000/svg">
<path fill-rule="evenodd" clip-rule="evenodd" d="M58.0308 3.61228H58.708V4.29126H58.0308V3.61228ZM59.2207 3.61228H59.8997V4.29126H59.2207V3.61228ZM36.4059 7.33107H38.2246V7.92691H36.4059V7.33107ZM39.0352 5.13478H39.6778L41.2522 8.09665L42.6309 5.13478H43.2649L41.4531 8.89341L41.3717 9.06315L41.292 9.21731L41.2176 9.35241L41.1483 9.47539L41.0773 9.58451L41.0115 9.67631L40.9543 9.75426L40.8989 9.81661L40.8729 9.84259L40.8417 9.86857L40.8105 9.89109L40.7759 9.91188L40.7101 9.94825L40.6356 9.9777L40.5525 10.0037L40.4659 10.021L40.3741 10.0297L40.2771 10.0349L40.2112 10.0297L40.1454 10.0262L40.0761 10.0175L40.0017 10.0037L39.922 9.98636L39.8388 9.96903L39.7574 9.94825L39.6691 9.91707V9.36973L39.7349 9.40438L39.8007 9.43555L39.8666 9.46153L39.9324 9.48405L40.0017 9.50137L40.0709 9.51003L40.142 9.51869H40.2684L40.3256 9.51003L40.3775 9.49618L40.4295 9.48405L40.478 9.46153L40.5265 9.43555L40.5698 9.40438L40.6131 9.36973L40.6581 9.32643L40.7014 9.26927L40.7499 9.20345L40.7932 9.12551L40.8417 9.03371L40.8902 8.92805L40.9422 8.81373L40.9907 8.68729L39.0352 5.13478ZM44.3803 5.13478H45.0195V7.25312H45.1251L45.2204 7.24446L45.3122 7.23061L45.3919 7.20809L45.4663 7.18731L45.5322 7.15613L45.5616 7.144L45.5876 7.12149L45.6153 7.10416L45.6361 7.08165L45.6811 7.03315L45.7331 6.96733L45.7816 6.88939L45.837 6.79239L45.8994 6.68327L45.96 6.56202L46.0206 6.42172L46.0916 6.26757L46.1401 6.15498L46.1869 6.04932L46.2319 5.95233L46.2752 5.86053L46.3151 5.78258L46.3532 5.7133L46.3895 5.65094L46.4242 5.59898L46.4536 5.55048L46.4935 5.50199L46.5333 5.45868L46.5818 5.41538L46.6303 5.37554L46.6771 5.3409L46.7342 5.30106L46.7914 5.26642L46.852 5.23524L46.9178 5.20926L46.9802 5.18848L47.046 5.16596L47.1101 5.1521L47.1811 5.14344L47.2504 5.13478H47.6055L47.6799 5.13998H47.7146V5.69425H47.6626L47.5829 5.69078L47.4998 5.68559H47.4565L47.382 5.69078L47.3127 5.69425L47.2469 5.7081L47.1898 5.72542L47.1326 5.74794L47.0841 5.76873L47.0408 5.7999L47.001 5.83455L46.9629 5.87785L46.923 5.93154L46.878 5.99217L46.8399 6.06665L46.7966 6.15498L46.7481 6.24678L46.703 6.35071L46.6563 6.47022L46.5939 6.61398L46.5385 6.74562L46.4813 6.8634L46.4276 6.96733L46.3809 7.05913L46.3324 7.13361L46.2839 7.19597L46.244 7.23927L46.2007 7.27911L46.1522 7.31894L46.1089 7.35359L46.057 7.38303L46.0085 7.41421L45.9513 7.44539L45.8994 7.47137L45.8422 7.49735L45.8994 7.51467L45.9565 7.53719L46.0171 7.56663L46.0743 7.59781L46.1315 7.63765L46.1869 7.67749L46.2492 7.72425L46.3064 7.77795L46.3636 7.83337L46.419 7.89573L46.4761 7.96155L46.5333 8.03083L46.5905 8.10531L46.6476 8.18499L46.703 8.27159L46.7602 8.35993L47.7579 9.96903H46.9663L46.1574 8.65611L46.0743 8.52621L45.9998 8.40669L45.9202 8.29757L45.8509 8.19711L45.7851 8.11051L45.7192 8.03083L45.6586 7.96501L45.6015 7.90785L45.5408 7.86109L45.4785 7.82125L45.4127 7.78661L45.3434 7.76063L45.2689 7.73291L45.1909 7.72079L45.1078 7.71213L45.0195 7.70693V9.96903H44.3803V5.13478ZM48.8647 9.96903V5.13478H51.1094L51.1978 5.14344L51.2809 5.1521L51.3554 5.16076L51.4212 5.16943L51.5095 5.18675L51.5927 5.20407L51.6758 5.23005L51.7503 5.25603L51.8248 5.28721L51.8906 5.31838L51.9564 5.35822L52.0222 5.39806L52.0794 5.44136L52.1366 5.48986L52.1885 5.54182L52.237 5.59379L52.2855 5.65441L52.3288 5.72023L52.3687 5.78951L52.4085 5.8588L52.4431 5.93674L52.4743 6.01122L52.4968 6.09436L52.5193 6.1723L52.5367 6.25544L52.5453 6.34378L52.554 6.42692V6.67461L52.5453 6.74909L52.5367 6.82357L52.5228 6.89285L52.5055 6.95867L52.483 7.02795L52.4605 7.09377L52.4345 7.15959L52.4085 7.22021L52.3739 7.28084L52.3392 7.34146L52.2994 7.39862L52.2595 7.45578L52.2162 7.51294L52.1677 7.5649L52.1158 7.61686L52.0586 7.66536L51.998 7.70866L51.9322 7.75197L51.8629 7.7918L51.7849 7.82644L51.707 7.85762L51.6187 7.8836L51.5269 7.90958L51.4299 7.9321L51.3294 7.94942L51.2238 7.96674L51.1146 7.9754L50.9969 7.98406H49.5142V9.94825H48.8751L48.8647 9.96903ZM49.5038 7.43153H50.9033L51.0384 7.41767L51.1042 7.40901L51.1649 7.40035L51.2255 7.38649L51.2775 7.37264L51.3346 7.35878L51.3831 7.34146L51.4316 7.32414L51.4801 7.30162L51.5199 7.27911L51.5598 7.25312L51.5996 7.22714L51.6343 7.20116L51.6654 7.16998L51.6914 7.13881L51.7226 7.10416L51.7451 7.07299L51.7711 7.03835L51.7936 6.99851L51.8109 6.95867L51.8283 6.91883L51.8421 6.87899L51.856 6.83569L51.8698 6.79239L51.8785 6.74909L51.8923 6.65209V6.40267L51.8785 6.33339L51.8612 6.26757L51.8386 6.20694L51.8127 6.14632L51.7815 6.0857L51.7468 6.03374L51.707 5.98177L51.6637 5.93327L51.6204 5.88997L51.5684 5.85533L51.5165 5.82069L51.4645 5.79471L51.4074 5.76873L51.3467 5.75141L51.2982 5.73755L51.2463 5.72889H51.1857L51.1164 5.72023H49.509V7.45231L49.5038 7.43153ZM52.9472 9.96903L54.8022 5.13478H55.4951L57.4731 9.96903H56.7404L56.1758 8.50369H54.1544L53.6244 9.96903H52.9472ZM54.3328 7.98233H55.9731L55.4656 6.64863L55.4136 6.49967L55.3617 6.3559L55.3132 6.2208L55.2699 6.09436L55.2266 5.97138L55.1919 5.8536L55.1573 5.74794L55.1261 5.64228L55.1036 5.76007L55.0776 5.87785L55.0464 5.99217L55.0153 6.10648L54.9806 6.22427L54.946 6.33858L54.9061 6.4529L54.8663 6.56722L54.3328 7.98406V7.98233ZM58.6474 5.13478H59.29V9.96903H58.6474V5.13478ZM60.9961 9.96903V5.13478H61.6352V7.12149H64.1468V5.13478H64.7859V9.96903H64.1468V7.68961H61.6352V9.96903H60.9961ZM65.884 9.96903L67.7391 5.13478H68.4319L70.4047 9.96903H69.679L69.1143 8.50369H67.0913L66.5613 9.96903H65.8823H65.884ZM67.2697 7.98233H68.9169L68.4146 6.64863L68.3574 6.49967L68.3055 6.3559L68.257 6.2208L68.2137 6.09436L68.1704 5.97138L68.1357 5.8536L68.1011 5.74794L68.0699 5.64228L68.0474 5.76007L68.0214 5.87785L67.9902 5.99217L67.959 6.10648L67.9244 6.22427L67.8898 6.33858L67.8499 6.4529L67.8101 6.56722L67.2766 7.98406L67.2697 7.98233ZM25.0348 12.1965H25.3812V13.9286H25.0348V12.1965ZM26.2473 13.9286V12.1965H26.5937V12.8737H27.2761V12.1965H27.6225V13.9286H27.2761V13.1665H26.5937V13.9182H26.2473V13.9286ZM29.5382 13.7277V13.9286H29.1918V13.7277H29.0913L28.9995 13.7138L28.9164 13.6965L28.8419 13.674L28.7726 13.6428L28.712 13.6081L28.6808 13.5908L28.6583 13.5735L28.6323 13.551L28.6098 13.525L28.57 13.4765L28.5353 13.4245L28.5042 13.3726L28.4816 13.3154L28.4643 13.2548L28.447 13.189V12.9846L28.4557 12.9153L28.4695 12.8495L28.4868 12.7889L28.5128 12.7317L28.544 12.6746L28.5786 12.6261L28.6219 12.5776L28.6704 12.5343L28.7224 12.4996L28.783 12.465L28.8523 12.439L28.9268 12.4165L29.0099 12.3992L29.0983 12.3905L29.1953 12.3818V12.2086H29.5417V12.3818L29.6421 12.3905L29.7339 12.3992L29.8171 12.4165L29.8915 12.439L29.9608 12.4702L30.0215 12.5013L30.0526 12.5239L30.0751 12.5412L30.1011 12.5637L30.1236 12.5862L30.1635 12.6347L30.1981 12.6867L30.2293 12.7438L30.2518 12.801L30.2743 12.8616L30.2882 12.9222L30.2969 12.9915V13.1318L30.2882 13.1976L30.2743 13.2583L30.2518 13.3189L30.2293 13.376L30.1981 13.4332L30.1635 13.4852L30.1236 13.5337L30.1011 13.5562L30.0786 13.5787L30.0526 13.596L30.0215 13.6185L29.9608 13.6497L29.8915 13.6809L29.8171 13.7034L29.7339 13.7207L29.6421 13.7346H29.5417L29.5382 13.7277ZM29.5382 13.4384H29.604L29.6646 13.4297L29.7218 13.4159L29.7738 13.3934L29.8171 13.3674L29.8569 13.3414L29.8881 13.3068L29.9141 13.2721L29.9314 13.2288L29.9452 13.1769L29.9539 13.1162V12.9586L29.9452 12.9188L29.9314 12.8841L29.9175 12.8495L29.9002 12.8183L29.8777 12.7923L29.8517 12.7664L29.8257 12.7438L29.7946 12.7265L29.7599 12.7092L29.7253 12.6953L29.682 12.6867L29.6387 12.678H29.5434V13.4523L29.5382 13.4384ZM29.1918 13.4384V12.6642H29.0913L29.0428 12.6728L29.003 12.6815L28.9632 12.6953L28.9285 12.7127L28.9025 12.7352L28.8766 12.7577L28.8506 12.7837L28.8333 12.8149L28.8159 12.846L28.8021 12.8807L28.7882 12.9205V13.1422L28.7969 13.1821L28.8055 13.2167L28.8229 13.2513L28.8402 13.2825L28.8575 13.3085L28.8835 13.3345L28.9095 13.357L28.9406 13.3795L28.9753 13.3934L29.0151 13.4072L29.055 13.4211H29.1953L29.1918 13.4384ZM31.0243 13.0747V12.9482L31.033 12.8911L31.0416 12.8339L31.0503 12.7819L31.0642 12.73L31.0815 12.6815L31.0988 12.633L31.13 12.5724L31.1698 12.5117L31.2131 12.4546L31.2616 12.3974L31.3136 12.3489L31.3655 12.3056L31.4227 12.271L31.4833 12.245L31.5232 12.2277L31.5665 12.2138L31.6098 12.2L31.6531 12.1913L31.7016 12.1826H31.9458L32.0341 12.1913L32.1173 12.2138L32.1952 12.2398L32.2697 12.271L32.339 12.3143L32.4048 12.3628L32.4619 12.4147L32.4879 12.4459L32.5139 12.4771L32.5399 12.5117L32.5624 12.5464L32.5849 12.581L32.6022 12.6209L32.6196 12.6607L32.6334 12.7005L32.6594 12.7837L32.6767 12.8755L32.6906 12.9725V13.1786L32.6767 13.2756L32.6594 13.3639L32.6334 13.4471L32.6196 13.4904L32.6022 13.5302L32.5849 13.5648L32.5624 13.5995L32.5399 13.6341L32.5174 13.6688L32.4914 13.6999L32.4602 13.7311L32.4031 13.7831L32.3372 13.8316L32.2714 13.8749L32.1969 13.9061L32.119 13.932L32.0359 13.9494L31.9475 13.9632H31.7587L31.6773 13.9286L31.5942 13.9113L31.5162 13.8853L31.4764 13.8714L31.4418 13.8541L31.4071 13.8316L31.3725 13.8143L31.3413 13.7883L31.3067 13.7658L31.2807 13.7398L31.2495 13.7086L31.2235 13.6774L31.1975 13.6463L31.1715 13.6151L31.1577 13.5822L31.1404 13.5475L31.1179 13.5077L31.1005 13.4678L31.0867 13.428L31.0607 13.3449L31.0434 13.2565L31.0347 13.1595V13.0591L31.0243 13.0747ZM31.3829 13.066V13.1353L31.3915 13.2011L31.4002 13.2617L31.4175 13.3224L31.4348 13.3743L31.4573 13.4228L31.4885 13.4661L31.5197 13.506L31.5543 13.5406L31.589 13.5718L31.6288 13.5978L31.6721 13.6203L31.7154 13.6376L31.7639 13.6514H31.9614L32.0099 13.6376L32.0532 13.6203L32.093 13.5978L32.1328 13.5718L32.1727 13.5406L32.2073 13.506L32.2385 13.4661L32.2645 13.4228L32.287 13.3743L32.3043 13.3224L32.3216 13.2617L32.3303 13.2011L32.339 13.1318V12.9881L32.3303 12.9222L32.3216 12.8616L32.3078 12.801L32.2853 12.749L32.2628 12.7005L32.2368 12.6572L32.2056 12.6174L32.1744 12.5862L32.1346 12.555L32.0947 12.5291L32.0549 12.5065L32.0116 12.4927L31.9631 12.4788H31.7587L31.7102 12.4927L31.6669 12.51L31.6236 12.5273L31.5838 12.5533L31.5491 12.5845L31.5145 12.6191L31.4833 12.659L31.4573 12.7023L31.4348 12.7508L31.4175 12.8027L31.4002 12.8599L31.3915 12.9257L31.3829 12.9915V13.0625V13.066ZM33.496 13.932V12.1965H34.3187L34.4105 12.2052L34.4711 12.219L34.5058 12.2277L34.5404 12.2415L34.5751 12.2589L34.6062 12.2814L34.6374 12.3039L34.6634 12.3299L34.6946 12.3558L34.7206 12.387L34.7431 12.4217L34.7656 12.4563L34.7795 12.4961L34.795 12.5429L34.8037 12.5862L34.8124 12.6347V12.8097L34.7985 12.8789L34.7898 12.9101L34.7812 12.9413L34.7673 12.9725L34.7535 12.9985L34.7223 13.0504L34.6877 13.0937L34.6478 13.1336L34.608 13.1682L34.5647 13.1942L34.5162 13.2202L34.4729 13.2375L34.4296 13.2513L34.3603 13.26L34.2772 13.2687H33.8407V13.9199H33.4943L33.496 13.932ZM33.8424 12.5013V12.9863H34.2044L34.265 12.9777L34.3049 12.9638L34.3395 12.95L34.3707 12.9274L34.3932 12.9049L34.4157 12.8789L34.433 12.8478L34.4469 12.8166L34.4556 12.7819V12.6988L34.4486 12.6468L34.4313 12.607L34.4088 12.5758L34.3793 12.5429L34.3447 12.5204L34.3101 12.5065L34.2702 12.4927H33.8493L33.8424 12.5013ZM35.5918 13.932V12.1965H36.1114L36.4267 13.3726L36.7367 12.1965H37.2563V13.9286H36.9428V12.5724L36.5964 13.9286H36.2604L35.914 12.5724V13.9286H35.5901L35.5918 13.932ZM39.6916 13.932H39.3106L39.1616 13.5389H38.4688L38.325 13.932H37.9578L38.6264 12.2H38.9988L39.6916 13.932ZM39.0559 13.2357L38.8204 12.5966L38.5848 13.2357H39.0577H39.0559ZM40.4174 12.1965H40.7638V13.6307H41.4375V12.1965H41.784V13.6307H41.9277V14.2958H41.6385V13.9199H40.4139V12.1965H40.4174ZM42.6881 12.1965H43.0345V13.9286H42.6881V12.1965ZM43.9006 12.1965H44.2245V13.3431L44.9173 12.1965H45.2637V13.9286H44.9398V12.8045L44.247 13.9286H43.9006V12.1965ZM44.7926 11.7669H44.9537V11.8068L44.945 11.8414L44.9363 11.8761L44.9225 11.9072L44.9052 11.9384L44.8878 11.9696L44.8705 11.9956L44.8411 12.0233L44.8151 12.0458L44.7891 12.0631L44.7631 12.0804L44.7285 12.0943L44.6973 12.103L44.6627 12.1116H44.5154L44.4808 12.103L44.4496 12.0943L44.4184 12.0804L44.3873 12.0631L44.3613 12.0458L44.3353 12.0233L44.3128 12.0008L44.2903 11.9748L44.2729 11.9436L44.2556 11.9124L44.2418 11.8813L44.2331 11.8466L44.2245 11.812V11.7721H44.3855L44.3942 11.812L44.4029 11.8432L44.4202 11.8743L44.4427 11.9003L44.4739 11.9176L44.5085 11.9315L44.5483 11.9401H44.6367L44.6765 11.9315L44.7112 11.9176L44.7423 11.9003L44.7649 11.8743L44.7822 11.8432L44.796 11.812V11.7721L44.7926 11.7669ZM46.1574 13.9199V12.1965H46.5039V12.8737H47.1863V12.1965H47.5327V13.9286H47.1863V13.1665H46.5039V13.9182H46.1574V13.9199ZM48.423 13.9199V12.1965H49.7013V12.4892H48.7746V12.8703H49.6406V13.1595H48.7746V13.6324H49.7376V13.9217H48.4247L48.423 13.9199ZM53.4581 13.9199H53.0823L52.9299 13.5267H52.237L52.0933 13.9199H51.7347L52.4033 12.1878H52.7757L53.4685 13.9199H53.4581ZM52.8242 13.2357L52.5834 12.5966L52.3513 13.2357H52.8242ZM54.1943 12.1965H55.3669V12.4858H54.5407V13.9199H54.1943V12.1965ZM56.0718 13.9286V12.1965H57.3536V12.4892H56.4217V12.8703H57.2877V13.1595H56.4217V13.6324H57.3847V13.9217H56.0718V13.9286ZM58.2109 13.9286V12.1965H58.5574V12.8737H59.2398V12.1965H59.5862V13.9286H59.2398V13.1665H58.5574V13.9182H58.2109V13.9286ZM60.8662 13.9286V12.4979H60.3466V12.1965H61.7167V12.4892H61.2092V13.9199H60.8627L60.8662 13.9286ZM63.5838 13.2946L63.9199 13.4038L63.8973 13.4696L63.8748 13.5354L63.8436 13.5926L63.8125 13.6497L63.7813 13.6982L63.7414 13.7467L63.7016 13.7866L63.6583 13.8212L63.6098 13.8558L63.5613 13.8818L63.5094 13.9043L63.4522 13.9269L63.395 13.9407L63.3292 13.9546H63.1162L63.0382 13.9407L62.9603 13.9234L62.891 13.8974L62.8217 13.8662L62.7559 13.8264L62.6953 13.7779L62.6381 13.7207L62.6121 13.6896L62.5862 13.6584L62.5636 13.6272L62.5411 13.5926L62.5082 13.5129L62.477 13.4384L62.4545 13.3553L62.4372 13.2635L62.4233 13.1717V12.9707L62.4372 12.8703L62.4545 12.7785L62.477 12.6901L62.4944 12.6503L62.5082 12.6105L62.5307 12.5706L62.5481 12.536L62.5706 12.5013L62.5966 12.4667L62.6191 12.4355L62.6502 12.4043L62.7074 12.3472L62.768 12.2987L62.8338 12.2554L62.9031 12.2242L62.9776 12.1982L63.0607 12.1809L63.1439 12.1671H63.3102L63.3742 12.1792L63.4435 12.193L63.5094 12.2156L63.57 12.2415L63.6271 12.2727L63.6843 12.3125L63.7363 12.3558L63.7622 12.387L63.7882 12.4182L63.8142 12.4528L63.8367 12.4927L63.8592 12.5325L63.8765 12.5758L63.8939 12.6243L63.9112 12.6728L63.5648 12.756L63.5561 12.7248L63.5475 12.6936L63.5336 12.6624L63.5163 12.6364L63.499 12.6105L63.4816 12.5879L63.4591 12.5654L63.4366 12.5429L63.4106 12.5256L63.3846 12.5083L63.3587 12.4944L63.3275 12.4858L63.2963 12.4771L63.2651 12.4684H63.1092L63.0659 12.4823L63.0261 12.4961L62.9915 12.5135L62.9568 12.5395L62.9222 12.5654L62.891 12.6001L62.865 12.6347L62.839 12.678L62.8165 12.7265L62.7992 12.7785L62.7853 12.8356L62.7767 12.9015V13.1942L62.7853 13.26L62.7992 13.3206L62.8165 13.3778L62.839 13.4263L62.8616 13.4696L62.8927 13.5094L62.9239 13.5406L62.9551 13.5718L62.9897 13.5943L63.0244 13.6168L63.0642 13.6307L63.1075 13.6445H63.2946L63.3258 13.6359L63.3569 13.622L63.3829 13.6047L63.4089 13.5874L63.4349 13.57L63.4609 13.5441L63.4834 13.5181L63.5007 13.4869L63.5232 13.4557L63.5475 13.409L63.5613 13.3691L63.5752 13.3258L63.589 13.2825L63.5838 13.2946ZM65.0751 13.9286V12.4979H64.5555V12.1965H65.9291V12.4892H65.4094V13.9199H65.063L65.0751 13.9286ZM66.6894 12.1965H67.6248L67.6854 12.2052L67.7339 12.2138L67.7772 12.2311L67.8205 12.2485L67.8638 12.2744L67.8984 12.3056L67.9331 12.3368L67.9642 12.3766L67.9954 12.4199L68.0179 12.4684L68.0353 12.5169L68.0439 12.5689V12.6815L68.0301 12.7386L68.0127 12.7906L67.9816 12.8426L67.9469 12.8911L67.9036 12.9309L67.8603 12.9655L67.8084 12.9967L67.843 13.0054L67.8828 13.0227L67.914 13.04L67.9452 13.0573L67.9764 13.0747L68.0023 13.1006L68.0283 13.1232L68.0508 13.1491L68.0682 13.1803L68.0855 13.2063L68.1028 13.2375L68.1115 13.2721L68.1253 13.3033V13.4696L68.1167 13.5267L68.0993 13.5839L68.0768 13.6411L68.0457 13.693L68.011 13.7415L67.9712 13.7814L67.9279 13.8212L67.8759 13.8472L67.8187 13.8732L67.7581 13.8905L67.6923 13.8991H66.686V12.1965H66.6894ZM67.0359 12.4806V12.8893H67.5156L67.5555 12.8807L67.5953 12.8668L67.6265 12.8495L67.6577 12.827L67.6802 12.801L67.6975 12.7698L67.7044 12.7161V12.6416L67.6958 12.607L67.6819 12.5758L67.6594 12.5498L67.6369 12.5239L67.6057 12.5065L67.5711 12.4979L67.5278 12.4892H67.0324L67.0359 12.4806ZM67.0359 13.1734V13.6376H67.5988L67.6334 13.6289L67.6681 13.6151L67.7044 13.5822L67.7304 13.5596L67.7529 13.5285L67.7668 13.4938L67.7754 13.454V13.3709L67.7668 13.3397L67.7529 13.305L67.7391 13.2791L67.7166 13.2531L67.6906 13.2306L67.6594 13.2132L67.6248 13.1994L67.5815 13.1855H67.0376L67.0359 13.1734ZM68.8251 13.0729V12.8893L68.8337 12.8322L68.8476 12.7802L68.8615 12.7282L68.8753 12.6797L68.8978 12.6313L68.929 12.5706L68.9688 12.51L69.0087 12.4528L69.0572 12.3957L69.1091 12.3472L69.1663 12.3039L69.2235 12.2692L69.2806 12.2433L69.3239 12.2259L69.3638 12.2121L69.4071 12.1982L69.4556 12.1896L69.5041 12.1809H69.75L69.8383 12.1896L69.9215 12.2121L69.9994 12.2381L70.0739 12.2692L70.1397 12.3125L70.2055 12.361L70.2662 12.413L70.2921 12.4442L70.3181 12.4754L70.3406 12.51L70.3666 12.5446L70.3839 12.5793L70.4065 12.6191L70.4203 12.659L70.4376 12.6988L70.4636 12.7819L70.4809 12.8737L70.4896 12.9707V13.1769L70.4809 13.2739L70.4636 13.3622L70.4376 13.4453L70.4065 13.5285L70.3666 13.5978L70.3441 13.6324L70.3181 13.667L70.2921 13.6982L70.2662 13.7294L70.235 13.7554L70.2038 13.7814L70.1726 13.8073L70.1415 13.8299L70.0722 13.8732L69.9977 13.9043L69.9232 13.9303L69.8401 13.9476L69.7517 13.9615H69.5629L69.4746 13.9476L69.3863 13.9303L69.3083 13.9043L69.2737 13.8905L69.239 13.8732L69.1992 13.8506L69.168 13.8333L69.1334 13.8073L69.1022 13.7848L69.071 13.7588L69.0451 13.7277L69.0139 13.6965L68.9879 13.6653L68.9654 13.6341L68.9429 13.5995L68.9203 13.5648L68.903 13.525L68.8857 13.4852L68.8718 13.4453L68.8459 13.3622L68.8285 13.2739L68.8199 13.1769V13.0764L68.8251 13.0729ZM69.1836 13.0643V13.1336L69.1923 13.1994L69.2009 13.26L69.2148 13.3206L69.2373 13.3726L69.2633 13.409L69.2893 13.4523L69.3239 13.4921L69.3586 13.5267L69.3932 13.5579L69.433 13.5839L69.4763 13.6064L69.5196 13.6237L69.5629 13.6376H69.7639L69.8072 13.6237L69.8505 13.6064L69.8938 13.5839L69.9336 13.5579L69.9683 13.5267L70.0029 13.4921L70.0341 13.4523L70.0652 13.409L70.0878 13.3605L70.1051 13.3085L70.1189 13.2479L70.1328 13.1873V12.9084L70.1189 12.8478L70.1051 12.7871L70.0878 12.7352L70.0652 12.6867L70.0393 12.6434L70.0081 12.6035L69.9734 12.5724L69.9388 12.5412L69.899 12.5152L69.8557 12.4927L69.8124 12.4788L69.7639 12.465H69.5629L69.5144 12.4788L69.4711 12.4961L69.4278 12.5135L69.388 12.5395L69.3482 12.5706L69.317 12.6053L69.2858 12.6451L69.2546 12.6884L69.2321 12.7369L69.2148 12.7889L69.2009 12.846L69.1871 12.9118V13.0625L69.1836 13.0643ZM35.3147 5.13478L33.8528 7.62033L35.5849 9.96557H34.1992L33.3332 8.60935L32.5624 9.96557H31.1577L31.201 9.89109L31.3274 9.69883L31.5162 9.40957L31.7483 9.06315L31.9977 8.67343L32.2506 8.28025L32.4862 7.90785L32.6836 7.58395L31.1248 5.13825H32.3372L33.3089 6.68327L34.1265 5.13825H35.3147V5.13478ZM29.2819 9.62262L29.2212 9.68324L29.1554 9.7404L29.0861 9.7889L29.0168 9.8374L28.9476 9.87723L28.8696 9.91188L28.7917 9.93786L28.7085 9.96384L28.6202 9.98636L28.5319 10.0037L28.4401 10.0175L28.3431 10.0262H27.6329L27.5013 10.0175L27.3748 10.0002L27.2519 9.9777L27.1341 9.95518L27.0163 9.924L26.9072 9.88936L26.7981 9.85472L26.6924 9.81141L26.5954 9.76811L26.4984 9.71961L26.4066 9.66765L26.3235 9.61049L26.2403 9.54987L26.1624 9.48925L26.0879 9.42862L26.0221 9.35934L25.9615 9.28659L25.9008 9.21211L25.8437 9.14283L25.7952 9.06835L25.7467 8.99041L25.7069 8.91246L25.667 8.83452L25.6358 8.75657L25.6047 8.67343L25.5821 8.59029L25.5648 8.51235L25.551 8.42921L25.5423 8.34607V8.26293L25.551 8.15381L25.5648 8.04815L25.5821 7.94769L25.6047 7.85069L25.6272 7.7537L25.6584 7.6619L25.693 7.57876L25.7276 7.49042L25.7709 7.41248L25.8142 7.338L25.8662 7.26352L25.9182 7.19423L25.9753 7.12841L26.036 7.06259L26.1018 7.00197L26.1711 6.94481L26.2455 6.89285L26.32 6.84089L26.398 6.79239L26.4811 6.74909L26.5694 6.70579L26.6543 6.65382L26.7461 6.61918L26.8431 6.58454L26.9436 6.55336L27.044 6.52218L27.1531 6.4962L27.2623 6.47369L27.3714 6.45117L27.4892 6.42865L27.6069 6.41479L27.7299 6.39747L27.839 6.38881L27.9482 6.38015H28.3517L28.4487 6.38881L28.5405 6.39747L28.6375 6.41133L28.7293 6.42519L28.8177 6.44251L28.9095 6.45983L29.0931 6.50833L29.2819 6.56029V6.42519L29.2732 6.35937L29.2524 6.30741L29.2351 6.25025L29.2091 6.19309L29.1745 6.14113L29.1346 6.09263L29.1086 6.07011L29.0861 6.04759L29.055 6.03027L29.0238 6.00775L28.9926 5.99043L28.958 5.97658L28.9181 5.95926L28.8783 5.9454L28.7865 5.92288L28.686 5.90556L28.5717 5.8969H26.1589L26.0931 5.90556L26.0325 5.92288L25.9719 5.9454L25.9199 5.97138L25.8679 6.00602L25.8194 6.04066L25.7709 6.0805L25.7276 6.129L25.6878 6.1775L25.648 6.226L25.6133 6.27796L25.5787 6.33512L25.5475 6.39228L25.5163 6.4529L25.4852 6.51352L25.3119 6.84955L25.1665 7.17345L25.0175 7.49735L24.8824 7.81259L24.749 8.13129L24.6139 8.44134L24.4788 8.74791L24.3437 9.05449L24.2 9.36107L24.051 9.66765L23.9731 9.82008L23.8899 9.9725L23.8016 10.1301L23.7098 10.2912L23.618 10.4488L23.521 10.6064L23.4153 10.7675L23.3097 10.9251L23.2005 11.0984L23.0828 11.2594L22.9598 11.4326L22.8333 11.6059L22.6896 11.7635L22.5458 11.9124L22.3969 12.0527L22.2479 12.1878L22.0955 12.3143L21.9431 12.4321L21.7854 12.5464L21.6278 12.6555L21.4667 12.756L21.3057 12.8478L21.1325 12.9361L20.9592 13.0192L20.786 13.0972L20.6128 13.1665L20.4396 13.2323L20.2664 13.2929L20.0932 13.3501L19.92 13.3986L19.7468 13.4471L19.5736 13.4904L19.4004 13.525L19.2272 13.5596L19.054 13.5908L18.8808 13.6168L18.6972 13.6393L18.5136 13.6566L18.33 13.674L18.1464 13.6878L17.9628 13.6965L17.7792 13.7051H17.3323L17.3184 13.6965L17.3046 13.6878L17.2907 13.6792L17.2821 13.6653V13.5527L17.2907 13.5267L17.3046 13.4956L17.3565 13.3864L17.4258 13.234L17.4951 13.0729L17.5609 12.9326L17.5834 12.8841L17.6146 12.8322L17.6371 12.801L17.6596 12.775L17.6822 12.749L17.7133 12.7231L17.7445 12.7005L17.7844 12.6832L17.8242 12.6694L17.8675 12.6607H17.9714L18.032 12.6694L18.0979 12.6867L18.2295 12.7265L18.3559 12.7664L18.4824 12.7975L18.6054 12.8287L18.7231 12.8547L18.8409 12.8772L18.95 12.8945L19.0644 12.9084L19.1544 12.8893L19.2601 12.898H19.4662L19.5632 12.8893L19.6602 12.8807L19.752 12.8668L19.8438 12.8495L19.9356 12.827L20.0187 12.7958L20.1071 12.7646L20.1902 12.73L20.2733 12.6901L20.3513 12.6468L20.4292 12.5949L20.5037 12.5429L20.5782 12.4823L20.6527 12.4217L20.722 12.3524L20.7912 12.2779L20.8605 12.2034L20.9298 12.1203L20.9956 12.0285L21.0614 11.9367L21.2676 11.5435L21.4564 11.1798L21.6296 10.8472L21.7872 10.5372L21.9361 10.2444L22.0764 9.96384L22.2081 9.68844L22.3397 9.40784L22.4661 9.12724L22.5978 8.82932L22.7381 8.51928L22.8784 8.18325L23.0308 7.81952L23.204 7.41767L23.3772 6.97945L23.5747 6.48927L23.6007 6.42345L23.6232 6.36283L23.637 6.30567L23.6457 6.25371V6.12207L23.637 6.08743L23.6232 6.05279L23.6007 6.02161L23.5781 5.99563L23.5522 5.97311L23.521 5.9506L23.4863 5.92808L23.4517 5.91422L23.4084 5.90037L23.3651 5.88651L23.3166 5.87785L23.2681 5.86919L23.2161 5.86053L23.0984 5.85187H22.2185L22.0453 5.86572L21.8842 5.88304L21.7266 5.90903L21.5828 5.9402L21.4425 5.97484L21.3161 6.01815L21.1983 6.06145L21.084 6.11341L20.9783 6.16537L20.8865 6.22253L20.7947 6.28316L20.7168 6.34898L20.6423 6.41826L20.573 6.48408L20.5124 6.55856L20.4552 6.62784L20.4067 6.70232L20.3634 6.7768L20.3236 6.85474L20.2889 6.92922L20.2456 7.00024L20.2197 7.07472L20.1971 7.1492L20.1833 7.22368L20.1694 7.29296L20.1608 7.36225V7.66883L20.2006 7.80393L20.2491 7.92691L20.2751 7.98753L20.3011 8.04469L20.327 8.09665L20.3582 8.14861L20.3929 8.19711L20.4275 8.24561L20.4621 8.29411L20.502 8.33741L20.5418 8.37725L20.5903 8.41709L20.6336 8.45692L20.6821 8.49157L20.7341 8.52621L20.7912 8.55739L20.8484 8.58856L20.909 8.61974L20.9696 8.64572L21.0389 8.6717L21.1082 8.69768L21.1775 8.7202L21.3351 8.7635L21.5083 8.79815L21.6971 8.83279L21.898 8.85877H21.9292L21.9638 8.87262L21.995 8.88648L22.021 8.9038L22.0297 8.91766V8.99041L22.0158 9.00773L21.9985 9.02505L21.9102 9.09433L21.7958 9.19133L21.6607 9.30911L21.5118 9.43555L21.3628 9.56719L21.2277 9.69017L21.1047 9.79929L21.0129 9.88243L21.0043 9.89109L20.987 9.90495L20.961 9.92747L20.9385 9.94479L20.9159 9.95345L20.8934 9.96211H20.7566L20.7306 9.94479L20.6076 9.88763L20.4899 9.827L20.3755 9.75772L20.2699 9.68844L20.1642 9.61396L20.0672 9.53948L19.9754 9.46153L19.8923 9.38359L19.8143 9.30045L19.7399 9.22251L19.6706 9.13937L19.61 9.05623L19.5528 8.97828L19.5043 8.90034L19.4558 8.82586L19.4212 8.75138L19.3779 8.65438L19.3432 8.56258L19.3172 8.47424L19.2947 8.38244L19.2774 8.29411L19.2635 8.20577L19.2549 8.11744V7.86109L19.2635 7.77795L19.2722 7.68961L19.2947 7.5164L19.3259 7.34319L19.3398 7.26525L19.3571 7.18731L19.3796 7.10416L19.4108 7.02102L19.442 6.93269L19.4766 6.84089L19.5199 6.75255L19.5684 6.66075L19.6204 6.56895L19.6775 6.47195L19.7381 6.38015L19.804 6.28835L19.8784 6.19655L19.9529 6.10822L20.0361 6.01641L20.1244 5.93327L20.2162 5.84494L20.3132 5.76699L20.4136 5.68905L20.5228 5.61457L20.6319 5.54009L20.7497 5.47427L20.8726 5.41365L20.9991 5.35649L21.1307 5.30453L21.271 5.25603L21.4113 5.21619L21.5603 5.18155L21.7127 5.15557L21.8703 5.13825L22.0314 5.12439H23.9575L24.0094 5.11573L24.0527 5.10707L24.0926 5.09321L24.1324 5.07936L24.167 5.05684L24.2017 5.03432L24.2329 5.00834L24.264 4.97716L24.29 4.93733L24.3212 4.89402L24.4442 4.65326L24.562 4.4177L24.6763 4.1856L24.7854 3.96216L24.9915 3.5378L25.189 3.13596L25.286 2.94716L25.3864 2.76356L25.4869 2.59035L25.5925 2.41714L25.7017 2.25952L25.816 2.1071L25.9338 1.95814L26.0567 1.82304L26.1918 1.6914L26.3321 1.56842L26.4846 1.4541L26.6456 1.34844L26.8188 1.25145L27.0024 1.16311L27.2034 1.08517L27.4181 1.01069L27.6502 0.950064L27.8945 0.898101L28.1612 0.854799L28.4418 0.820158L28.7432 0.794176L29.0671 0.776855H29.7807L29.8327 0.785516L29.8812 0.799373L29.9123 0.816693L29.9348 0.834014L29.9522 0.856531V0.90503L29.9435 0.936207L29.9175 0.993366L29.8777 1.05919L29.8344 1.11981L29.7946 1.18043L29.7547 1.24625L29.7149 1.31553L29.6716 1.39001L29.6231 1.46796L29.5711 1.5511L29.5191 1.6429L29.462 1.7347L29.4014 1.83516L29.313 1.97026L29.2386 2.06206L29.2074 2.0967L29.1762 2.12788L29.1502 2.1452L29.1277 2.15906H29.0619L29.0394 2.1452L28.9961 2.10537L28.9476 2.0534L28.9164 2.01356L28.8817 1.98239L28.8471 1.95641L28.8073 1.93042L28.7674 1.90791L28.7276 1.89059L28.6843 1.87327L28.641 1.85941L28.544 1.83689L28.4383 1.81957L28.3206 1.80225L28.1889 1.78493H28.0365L27.9586 1.79359L27.8893 1.80225L27.82 1.81611L27.7507 1.83862L27.6814 1.86461L27.6156 1.89578L27.5498 1.93562L27.4892 1.97546L27.4233 2.02742L27.3627 2.07938L27.3021 2.14001L27.2449 2.20929L27.1843 2.28377L27.1272 2.36691L27.07 2.45525L27.0128 2.55224L26.9557 2.6579L26.8985 2.76702L26.8414 2.89L26.7842 3.01298L26.7322 3.14808L26.6751 3.29184L26.6231 3.44427L26.566 3.60189L26.5088 3.7751L26.4516 3.9483L26.3425 4.33283L26.2247 4.74853L26.2161 4.78317V4.97543L26.2299 5.00661L26.2438 5.03259L26.2611 5.05511L26.2871 5.07243L26.3183 5.08629L26.3529 5.09495H29.1935L29.2905 5.1088L29.3875 5.12612L29.4845 5.14864L29.585 5.17982L29.6854 5.211L29.7824 5.25083L29.8794 5.29933L29.9764 5.34783L30.0682 5.40845L30.1566 5.46908L30.2397 5.53836L30.2917 5.61457L30.3315 5.65787L30.3661 5.69771L30.3973 5.74621L30.432 5.78951L30.4891 5.88651L30.5376 5.98351L30.5774 6.0805L30.6121 6.1775L30.6381 6.27276L30.6606 6.37322L30.6779 6.47888L30.6918 6.58454L30.7004 6.69886L30.7091 6.81317V9.9673H29.2784V9.62089L29.2819 9.62262ZM29.2819 9.06662V7.33453L29.1849 7.28603L29.0879 7.2462L28.9874 7.21155L28.8869 7.18038L28.7813 7.15786L28.6756 7.14054L28.57 7.12668L28.4643 7.11802H28.1525L28.0521 7.13188L27.9516 7.1492L27.8546 7.16652L27.7576 7.1925L27.6606 7.22368L27.5723 7.25486L27.484 7.29469L27.4008 7.338L27.3229 7.3813L27.2484 7.4298L27.1791 7.48696L27.1133 7.54411L27.0561 7.60127L27.0042 7.66709L26.9557 7.73291L26.9158 7.80739L26.8847 7.87668L26.8587 7.95462L26.8414 8.03256L26.8275 8.1157V8.2127L26.8362 8.29584L26.8535 8.37378L26.876 8.45173L26.902 8.52621L26.9366 8.60069L26.9799 8.66651L27.0232 8.73233L27.0752 8.79295L27.1324 8.85011L27.193 8.90727L27.2588 8.95576L27.3281 9.00426L27.406 9.04757L27.484 9.0874L27.5619 9.12204L27.6502 9.15669L27.7386 9.18267L27.8304 9.20518L27.9274 9.2277L28.0244 9.24156L28.1214 9.25542H28.5336L28.6393 9.24156L28.7449 9.22424L28.854 9.20172L28.9597 9.1792L29.0653 9.14456L29.171 9.10992L29.2767 9.07008L29.2819 9.06662ZM17.8727 6.22773V5.12959H16.4992V9.96384H17.8727V7.29989L17.9333 7.20289L18.0078 7.1059L18.0857 7.0141L18.1689 6.9223L18.2607 6.83916L18.3577 6.75602L18.4547 6.67807L18.5603 6.60013L18.666 6.53084L18.7716 6.46156L18.8808 6.40094L18.9899 6.34031L19.1042 6.28316L19.2133 6.23466L19.3224 6.18616L19.4281 6.14632L19.442 6.04066L19.4558 5.93154L19.4697 5.80856L19.4835 5.68212L19.5008 5.55048L19.5182 5.41018L19.5355 5.27508L19.5493 5.13478L19.4801 5.1521L19.4108 5.17462L19.3415 5.2006L19.2722 5.22658L19.1458 5.28374L19.0193 5.34437L18.9015 5.41018L18.7872 5.47947L18.6781 5.55395L18.5724 5.63189L18.472 5.70984L18.3802 5.78778L18.2884 5.86226L18.2001 5.9402L18.0268 6.08916L17.8744 6.22427L17.8727 6.22773ZM15.9917 8.26639L15.9778 8.30623L15.9345 8.41535L15.9033 8.48983L15.86 8.58163L15.8115 8.67863L15.7544 8.78429L15.6851 8.89861L15.6106 9.01639L15.5275 9.13417L15.4305 9.25715L15.3785 9.31777L15.3265 9.37493L15.2694 9.43555L15.2122 9.49271L15.1516 9.54987L15.091 9.60703L15.0252 9.65899L14.9559 9.71095L14.8762 9.77158L14.7983 9.82354L14.7151 9.86684L14.632 9.91014L14.5488 9.95345L14.4605 9.98809L14.3722 10.0227L14.2804 10.0539L14.1886 10.0799L14.0968 10.1024L13.9998 10.1249L13.9028 10.1388L13.8023 10.1526L13.7019 10.1613H13.352L13.2082 10.1526L13.0679 10.1353L12.9328 10.1128L12.7977 10.0834L12.6661 10.0435L12.5431 10.0037L12.4201 9.95171L12.3023 9.89455L12.188 9.83393L12.0789 9.76465L11.9698 9.69017L11.8693 9.60703L11.7689 9.51869L11.6771 9.4217L11.5853 9.31604L11.5073 9.21904L11.4328 9.12204L11.3636 9.02158L11.3029 8.91593L11.2458 8.80681L11.1886 8.70115L11.1401 8.58683L11.1003 8.47251L11.0604 8.35473L11.0258 8.23695L10.9998 8.11917L10.9773 7.99272L10.96 7.86975L10.9461 7.73811L10.9375 7.60647V7.33973L10.9461 7.20463L10.96 7.07299L10.9773 6.94654L10.9998 6.8201L11.0258 6.69712L11.0604 6.57415L11.1003 6.45636L11.1401 6.34205L11.1921 6.22773L11.244 6.11861L11.3012 6.01295L11.367 5.90729L11.4328 5.80683L11.5073 5.70984L11.5853 5.61457L11.6736 5.51411L11.7706 5.42231L11.8676 5.33397L11.9733 5.25603L12.0789 5.18155L12.188 5.11227L12.3023 5.05164L12.4201 4.99968L12.5431 4.95118L12.6661 4.90788L12.7977 4.87324L12.9294 4.84206L13.0697 4.81954L13.21 4.80222L13.3537 4.79356H13.6412L13.7815 4.80742L13.9166 4.82474L14.0483 4.84726L14.1747 4.8819L14.3012 4.91654L14.4189 4.96504L14.5333 5.017L14.6476 5.07416L14.7532 5.13998L14.8589 5.20926L14.9593 5.28721L15.0563 5.37035L15.1481 5.46215L15.2365 5.55914L15.3248 5.6648L15.382 5.74275L15.4391 5.82589L15.4876 5.90903L15.5361 5.99736L15.5794 6.0857L15.6141 6.17403L15.6487 6.26584L15.6799 6.35764L15.7111 6.44597L15.7336 6.53777L15.7561 6.62611L15.7734 6.71791L15.8046 6.89112L15.8271 7.06433L15.841 7.22195V7.60647L15.8323 7.76409V7.82471H12.195L12.2123 7.93383L12.2348 8.04296L12.266 8.14342L12.3058 8.24388L12.3491 8.34434L12.3976 8.44134L12.4548 8.53314L12.5154 8.62147L12.5639 8.68209L12.6124 8.73406L12.6643 8.78602L12.7163 8.83452L12.7683 8.87782L12.8254 8.91766L12.8861 8.9523L12.9467 8.98694L13.0073 9.01292L13.0731 9.0389L13.1424 9.06142L13.2117 9.07528L13.281 9.0926L13.3554 9.10126H13.6863L13.7694 9.0874L13.837 9.07874L13.9114 9.06142L13.9807 9.0441L14.0465 9.01812L14.1124 8.98694L14.1903 8.94364L14.2648 8.89514L14.3341 8.84318L14.3999 8.78602L14.4605 8.7254L14.5125 8.66824L14.5644 8.60762L14.6077 8.55046L14.677 8.44134L14.729 8.353L14.7636 8.29584L14.7723 8.27332H15.9847L15.9917 8.26639ZM12.2781 6.75775H14.5973L14.58 6.68846L14.5575 6.61918L14.5315 6.5499L14.5055 6.48408L14.4744 6.41826L14.4345 6.35244L14.3912 6.29182L14.3427 6.23119L14.3029 6.18789L14.2596 6.14459L14.2163 6.10475L14.173 6.07011L14.1245 6.03547L14.076 6.00429L14.024 5.97831L13.9755 5.95233L13.9184 5.92981L13.8664 5.91249L13.8092 5.89517L13.7521 5.88131L13.6915 5.87265L13.6343 5.86399H13.3814L13.3208 5.87265L13.2602 5.88131L13.203 5.88997L13.1459 5.90383L13.0887 5.92115L13.0315 5.94367L12.9796 5.96099L12.9276 5.98697L12.8791 6.01295L12.8272 6.04413L12.7787 6.07531L12.7354 6.10995L12.6869 6.14979L12.6436 6.18962L12.5829 6.25025L12.5258 6.31087L12.4738 6.37669L12.4253 6.44597L12.3855 6.52045L12.3456 6.5984L12.311 6.67634L12.2798 6.75948L12.2781 6.75775ZM9.92421 5.31492V3.6781L8.55068 4.06782V5.31492H7.63614V6.37322H8.55068V9.96037H9.92421V6.37322H10.8128V5.31492H9.92421ZM3.95202 5.8917V5.16076H2.75169V9.96384H4.04209V7.26352L4.05595 7.11975L4.0698 6.98812L4.08712 6.8738L4.10444 6.7768L4.13042 6.69366L4.15641 6.61918L4.18758 6.5499L4.22742 6.48927L4.27072 6.42345L4.31922 6.3663L4.37118 6.31433L4.43181 6.26237L4.49243 6.21387L4.56171 6.17403L4.65698 6.1342L4.72626 6.10302L4.80074 6.07704L4.87868 6.05972L4.95662 6.04586L5.03457 6.0372H5.24415L5.30477 6.04586L5.36193 6.05972L5.41389 6.07704L5.46585 6.09956L5.51782 6.12554L5.56631 6.15671L5.60962 6.19136L5.64945 6.226L5.68929 6.26584L5.72393 6.30914L5.75511 6.35244L5.78629 6.4044L5.81227 6.4529L5.83478 6.51006L5.85211 6.57588L5.86943 6.65382L5.88675 6.75428L5.89541 6.87207L5.90407 7.0037L5.91273 7.15613V9.9673H7.20312V6.60532L7.19446 6.4962L7.1858 6.39055L7.17195 6.29875L7.15809 6.21041L7.14077 6.13246L7.12345 6.05799L7.09747 5.9887L7.07148 5.91942L7.04031 5.8536L7.00913 5.78778L6.96929 5.72196L6.92945 5.66134L6.88615 5.60071L6.83766 5.54356L6.78569 5.49159L6.72507 5.43963L6.66445 5.39113L6.59516 5.34263L6.52069 5.29933L6.43755 5.25603L6.35441 5.21619L6.26261 5.18155L6.17081 5.15037L6.07381 5.12439L5.97335 5.09495H5.86943L5.76897 5.08109L5.66331 5.07243H5.43468L5.31689 5.08109L5.20258 5.09495L5.08826 5.12093L4.97914 5.14691L4.87348 5.18155L4.76783 5.22485L4.66737 5.27335L4.56691 5.33051L4.46991 5.39113L4.37292 5.45695L4.28112 5.53143L4.19278 5.60937L4.10444 5.69771L4.0213 5.79471L3.93816 5.89517L3.95202 5.8917ZM0.5 3.7214H1.73324V4.86804H0.5V3.7214ZM1.73324 5.12612V9.96037H0.5V5.12612H1.72977H1.73324Z" fill="#00A0A6"/>
</svg>
