<svg width="71" height="14" viewBox="0 0 71 14" fill="none" xmlns="http://www.w3.org/2000/svg">
<path d="M9.85216 10.0852C9.75851 10.0852 9.69616 10.0386 9.64933 9.94493C9.61027 9.85152 9.58698 9.73434 9.57145 9.58658C9.56369 9.44611 9.55592 9.29034 9.55592 9.11105C9.55592 8.93975 9.54816 8.76823 9.54039 8.6047C9.5171 8.27693 9.44698 8.01223 9.3298 7.82517C9.22086 7.63035 9.09616 7.48211 8.95592 7.3887C8.81569 7.28729 8.67545 7.22517 8.53498 7.19388C8.39474 7.16259 8.29333 7.14729 8.20745 7.14729L8.19969 7.108C8.32439 7.01482 8.40251 6.89012 8.44933 6.74165C8.48816 6.59365 8.51945 6.35977 8.52722 6.04047C8.53498 5.9233 8.54275 5.79083 8.54275 5.63506C8.55051 5.4793 8.55827 5.32306 8.5738 5.18283C8.5971 5.04259 8.62816 4.91789 8.66745 4.82448C8.71427 4.72283 8.76863 4.67624 8.85451 4.67624C8.9011 4.67624 8.92439 4.69177 8.93239 4.73083C8.94039 4.76213 8.94039 4.80095 8.94039 4.84001C8.94039 4.88683 8.94039 4.92565 8.92463 4.96448C8.9091 4.99577 8.90133 5.03483 8.8858 5.07365C8.8858 5.10471 8.87804 5.12848 8.87804 5.15154C8.87804 5.1753 8.87804 5.20612 8.87804 5.22965C8.87804 5.36212 8.9171 5.48706 9.00274 5.61153C9.08863 5.73647 9.2211 5.79859 9.40039 5.79859C9.58745 5.79859 9.72769 5.72824 9.82133 5.58024C9.92251 5.42424 9.96933 5.25295 9.96933 5.05789C9.96933 4.98001 9.9538 4.89412 9.93028 4.80071C9.89922 4.7073 9.86016 4.62142 9.7978 4.5433C9.74322 4.46542 9.66533 4.4033 9.56392 4.34871C9.47051 4.29413 9.34557 4.2706 9.20533 4.2706C9.04957 4.2706 8.91686 4.29413 8.80792 4.34095C8.70651 4.3953 8.61286 4.48095 8.55075 4.62142C8.48063 4.75389 8.4338 4.93318 8.39474 5.16683C8.35569 5.39295 8.33239 5.68118 8.31686 6.04C8.31686 6.28165 8.29333 6.47624 8.26227 6.61671C8.22322 6.75694 8.18439 6.86588 8.12204 6.93623C8.06769 7.00635 7.99733 7.05294 7.91945 7.07647C7.84933 7.09176 7.75569 7.10023 7.66227 7.10023H7.31922V4.54354H7.86486V4.34119H4.62251V4.54354H4.70816C4.73169 4.54354 4.76274 4.54354 4.80957 4.55154C4.85616 4.55154 4.90298 4.56707 4.9498 4.59836C5.00439 4.62166 5.05122 4.66848 5.09004 4.72283C5.12133 4.78518 5.14463 4.86307 5.14463 4.98001C5.14463 5.00354 5.13686 5.06589 5.1291 5.16706C5.12133 5.26071 5.08227 5.42424 5.01216 5.65836L4.3651 7.9967L3.16486 4.5433H3.64816V4.34095H1.66016V4.5433H2.06533L3.80345 9.50846C3.74886 9.67999 3.68651 9.80469 3.61639 9.89834C3.55404 9.98375 3.48392 10.0619 3.42157 10.1087C3.35922 10.1555 3.29686 10.1866 3.23451 10.2021C3.17216 10.2099 3.11757 10.2176 3.07098 10.2176C2.91498 10.2176 2.79027 10.1863 2.72016 10.1242C2.64227 10.0619 2.60322 10.0073 2.60322 9.95269C2.60322 9.9214 2.61874 9.89834 2.64227 9.87481C2.67333 9.85128 2.70463 9.83575 2.74369 9.81222C2.77474 9.79669 2.81357 9.7734 2.85263 9.75787C2.89169 9.74234 2.93051 9.71881 2.96157 9.69552C3.00863 9.65646 3.06298 9.5941 3.11757 9.50822C3.17216 9.42281 3.19545 9.3134 3.19545 9.16564C3.19545 8.95505 3.1411 8.79128 3.03192 8.67411C2.91474 8.55764 2.79027 8.49505 2.6498 8.49505C2.4938 8.49505 2.35357 8.55764 2.22886 8.68987C2.10439 8.82234 2.04204 9.00164 2.04204 9.23505C2.04204 9.39105 2.0731 9.54728 2.11992 9.68752C2.17451 9.83552 2.24463 9.96022 2.33827 10.0616C2.43169 10.1706 2.5411 10.2565 2.66557 10.319C2.79027 10.3889 2.92274 10.4202 3.07098 10.4202C3.24251 10.4202 3.39051 10.3734 3.51522 10.2877C3.63992 10.2019 3.7491 10.0849 3.84274 9.94469C3.93616 9.79646 4.02204 9.61716 4.09216 9.42258C4.16227 9.21975 4.23239 9.00164 4.31051 8.76776L5.35474 5.26824C5.3938 5.11977 5.45616 4.98754 5.53404 4.85507C5.60416 4.73036 5.75992 4.62118 5.9938 4.54307H6.3291V10.1395H5.79898V10.3421H7.86439V10.1395H7.31874V7.30282H7.71639C7.88769 7.30282 8.02039 7.34164 8.1138 7.41176C8.20722 7.48988 8.27733 7.58329 8.33192 7.70823C8.37875 7.83294 8.41004 7.98117 8.43333 8.1367C8.44886 8.29246 8.46439 8.46423 8.47239 8.63576C8.50369 8.97858 8.52698 9.26681 8.55804 9.49293C8.5891 9.71905 8.63592 9.89857 8.69051 10.031C8.7451 10.1635 8.82298 10.2569 8.92416 10.3113C9.02557 10.3736 9.15027 10.4047 9.3218 10.4205C9.37639 10.4282 9.43874 10.4282 9.5011 10.4205C9.57122 10.4049 9.65686 10.3816 9.77404 10.3426C9.89098 10.3037 9.99992 10.2334 10.0933 10.14L10.0155 10.0075C9.9611 10.0621 9.90651 10.0852 9.85216 10.0852Z" fill="#1A1A1A"/>
<path d="M18.8545 3.66298C18.9246 3.5771 18.9634 3.46816 18.9634 3.32793C18.9634 3.21075 18.9479 3.1251 18.9011 3.06299C18.862 3.00063 18.8075 2.95381 18.7531 2.93052C18.6987 2.89946 18.6517 2.88369 18.5971 2.87593C18.5503 2.87593 18.519 2.86816 18.4957 2.86816C18.4879 2.86816 18.4566 2.87593 18.4023 2.87593C18.3477 2.88393 18.2931 2.89946 18.2383 2.93052C18.1839 2.95381 18.1371 3.00063 18.0903 3.06299C18.0434 3.12534 18.0202 3.21099 18.0202 3.32793C18.0202 3.4604 18.0592 3.56934 18.1449 3.66298C18.2227 3.74863 18.3397 3.79545 18.4957 3.79545C18.6595 3.79545 18.7764 3.74887 18.8545 3.66298Z" fill="#1A1A1A"/>
<path d="M18.2152 4.54369H18.7531V10.1401H18.2152V10.3427H20.2886V10.1401H19.743V4.54369H20.2886V4.34133H18.2152V4.54369Z" fill="#1A1A1A"/>
<path d="M20.2651 2.93052C20.2105 2.89946 20.1562 2.88369 20.1091 2.87593C20.0547 2.87593 20.0234 2.86816 20.0079 2.86816C20.0002 2.86816 19.9689 2.87593 19.9145 2.87593C19.8602 2.88393 19.8056 2.89946 19.751 2.93052C19.6964 2.95381 19.6496 3.00063 19.603 3.06299C19.5562 3.12534 19.5329 3.21099 19.5329 3.32793C19.5329 3.4604 19.5719 3.56934 19.6498 3.66298C19.7357 3.74863 19.8524 3.79545 20.0084 3.79545C20.1722 3.79545 20.2891 3.74863 20.367 3.66298C20.4451 3.5771 20.4839 3.46816 20.4839 3.32793C20.4839 3.21075 20.4606 3.1251 20.4213 3.06299C20.3743 3.00063 20.3197 2.95381 20.2651 2.93052Z" fill="#1A1A1A"/>
<path d="M14.1387 5.36204C14.0764 5.15968 13.9672 4.98792 13.8192 4.83216C13.671 4.68416 13.4684 4.56745 13.219 4.47404C12.9696 4.38816 12.6578 4.34157 12.2837 4.34157H10.2649V4.54392H10.8025V10.1404H10.2649V10.343H12.4004V10.1404H11.7926V7.77826H12.2524C12.9072 7.77826 13.406 7.64579 13.7333 7.36532C14.0609 7.09238 14.2322 6.63285 14.2322 5.99356C14.2324 5.77545 14.2011 5.56462 14.1387 5.36204ZM13.11 6.25074C13.11 6.57027 13.0867 6.81215 13.0399 6.99097C12.9931 7.17026 12.923 7.30273 12.8371 7.38838C12.7514 7.48179 12.6423 7.52885 12.5176 7.55214C12.3929 7.56744 12.2604 7.57544 12.1122 7.57544H11.7926V4.54369H12.1745C12.3929 4.54369 12.5564 4.57498 12.6891 4.6218C12.8138 4.67639 12.9072 4.74674 12.9696 4.84016C13.0319 4.93357 13.071 5.04274 13.0865 5.16721C13.102 5.29968 13.1098 5.43992 13.1098 5.59592L13.11 6.25074Z" fill="#1A1A1A"/>
<path d="M68.9564 10.1399L67.468 4.27079H67.0465L65.8075 9.11924C65.7762 9.25124 65.7371 9.37595 65.7058 9.50112C65.675 9.61759 65.6355 9.727 65.5891 9.82018C65.5423 9.91383 65.4797 9.99171 65.4021 10.0463C65.3244 10.1087 65.2228 10.1397 65.1056 10.1397H64.4435V4.5435H64.9734V4.34114H61.2477V4.5435C61.4426 4.52797 61.5906 4.5515 61.6842 4.62161C61.7774 4.68397 61.8395 4.78514 61.8708 4.91785C61.9021 5.05055 61.9103 5.20632 61.9103 5.40138C61.9021 5.5882 61.8948 5.79079 61.8868 6.00914L61.8087 8.3943C61.7931 8.80724 61.7461 9.15054 61.6762 9.42324C61.5981 9.68818 61.4969 9.92983 61.3875 10.1402H60.8186L60.7409 12.0731H60.9978C61.0524 11.6677 61.1303 11.3484 61.2162 11.1223C61.3094 10.8884 61.411 10.7169 61.5204 10.5999C61.6294 10.4832 61.7461 10.4129 61.8706 10.3894C61.9955 10.3583 62.1049 10.3428 62.2216 10.3428H63.547C63.6402 10.3428 63.7491 10.3583 63.8821 10.3894C64.0223 10.4129 64.1546 10.483 64.2953 10.5999C64.4277 10.7169 64.56 10.8884 64.6767 11.1223C64.7861 11.3484 64.8715 11.6677 64.9263 12.0731H65.1837L65.1277 10.3428H66.5635V10.1402C66.4 10.1246 66.2748 10.1011 66.1894 10.0623C66.0957 10.0312 66.0259 9.94536 65.9863 9.81265C65.9633 9.7503 65.9555 9.68818 65.9633 9.63336C65.9633 9.571 65.9706 9.50865 65.9863 9.4463C66.0181 9.25948 66.0336 9.1423 66.0414 9.08771C66.0491 9.04112 66.0569 9.00983 66.0644 8.98654L66.1661 8.59666H67.5066L67.9197 10.1402H67.3976V10.3428H69.3383V10.1402L68.9564 10.1399ZM63.4538 10.1399H61.6298C61.6767 10.0621 61.7153 9.96842 61.7623 9.86747C61.8014 9.76583 61.84 9.64112 61.8795 9.50865C61.9181 9.36842 61.9416 9.21265 61.9649 9.03336C61.9884 8.85383 62.004 8.63595 62.0195 8.39407L62.1284 5.61926C62.1367 5.34632 62.1597 5.13573 62.183 4.98773C62.2061 4.83997 62.2376 4.73055 62.2847 4.6682C62.331 4.60561 62.3941 4.56703 62.4717 4.55903C62.5494 4.5515 62.6433 4.5435 62.7604 4.5435H63.4538V10.1399ZM66.2051 8.39407L66.8444 5.89973L67.4755 8.39407H66.2051Z" fill="#1A1A1A"/>
<path d="M16.22 4.2706H15.7988L14.5595 9.11905C14.5204 9.25105 14.4894 9.37575 14.4581 9.50093C14.427 9.6174 14.388 9.72681 14.3411 9.81999C14.2865 9.91363 14.2242 9.99151 14.1541 10.0461C14.0762 10.1085 13.9748 10.1395 13.8501 10.1395V10.3421H15.3075V10.1395C15.1517 10.124 15.027 10.1005 14.9334 10.0616C14.84 10.0306 14.7776 9.94469 14.7308 9.81199C14.7152 9.74963 14.7072 9.68752 14.7072 9.63269C14.715 9.57034 14.7228 9.50799 14.7308 9.44563C14.7621 9.25881 14.7854 9.14164 14.7934 9.08705C14.8011 9.04046 14.8089 9.00917 14.8167 8.98587L14.9181 8.59599H16.251L16.6642 10.1395H16.1418V10.3421H18.0828V10.1395H17.7009L16.22 4.2706ZM14.9496 8.39411L15.5967 5.89977L16.2282 8.39411H14.9496Z" fill="#1A1A1A"/>
<path d="M44.0691 4.54369H44.6067V10.1401H44.0691V10.3427H46.0489V10.1401H45.5966V4.54369H47.1013V10.1401H46.6491V10.3427H48.6289V10.1401H48.0907V4.54369H48.6289V4.34133H44.0691V4.54369Z" fill="#1A1A1A"/>
<path d="M60.4841 7.80889C60.3825 7.66137 60.2345 7.5209 60.0401 7.38843C59.8448 7.24819 59.5797 7.13878 59.2524 7.0456L59.2446 6.99878C59.6655 6.89713 59.9928 6.74137 60.2345 6.53102C60.4761 6.32067 60.6008 6.0089 60.6008 5.61149C60.6008 5.43996 60.5695 5.27643 60.5077 5.1202C60.4531 4.96444 60.3514 4.83197 60.2112 4.71503C60.071 4.60585 59.8839 4.5122 59.6578 4.44232C59.4317 4.37997 59.1434 4.34114 58.7924 4.34114H56.7505V4.5435H57.2804V10.1399H56.4307L54.9423 4.27079H54.5213L53.2898 9.11924C53.2512 9.25124 53.2121 9.37595 53.1886 9.50112C53.1568 9.61759 53.1183 9.727 53.0637 9.82018C53.0168 9.91383 52.9547 9.99171 52.8771 10.0463C52.799 10.1087 52.7053 10.1397 52.5806 10.1397V10.3423H54.0378V10.1397C53.882 10.1242 53.7491 10.1006 53.6641 10.0618C53.5705 10.0308 53.5001 9.94489 53.4611 9.81218C53.438 9.74983 53.438 9.68771 53.438 9.63289C53.438 9.57054 53.4453 9.50818 53.4611 9.44583C53.4924 9.25901 53.5079 9.14183 53.5157 9.08724C53.5312 9.04065 53.5392 9.00936 53.5392 8.98607L53.6404 8.59619H54.9813L55.3945 10.1397H54.8719V10.3423H58.8314C59.1121 10.3423 59.3695 10.3035 59.603 10.2331C59.8368 10.1552 60.0399 10.0461 60.2032 9.89806C60.3667 9.74983 60.4997 9.57053 60.5851 9.36018C60.6787 9.14983 60.7258 8.90818 60.7258 8.64277C60.7258 8.5263 60.7103 8.3936 60.679 8.2456C60.6477 8.0976 60.5851 7.95736 60.4841 7.80889ZM53.6799 8.39407L54.3187 5.89973L54.9503 8.39407H53.6799ZM58.2702 4.5435H58.7771C58.9559 4.5435 59.0964 4.58279 59.1975 4.65267C59.2907 4.73079 59.3611 4.8162 59.4081 4.91008C59.455 5.00326 59.4863 5.09714 59.4863 5.19032C59.494 5.2762 59.494 5.34608 59.494 5.38538V6.0009C59.494 6.21925 59.4627 6.39055 59.3924 6.50772C59.3225 6.63219 59.2444 6.71784 59.1507 6.78019C59.0575 6.83455 58.9714 6.8656 58.886 6.87384C58.8079 6.88937 58.7535 6.88937 58.7303 6.88937H58.2702V4.5435ZM59.6114 8.97854C59.6114 9.12654 59.6032 9.26677 59.5879 9.40724C59.5724 9.54771 59.5328 9.67218 59.4707 9.78112C59.4081 9.89053 59.315 9.97618 59.1978 10.0463C59.0733 10.1087 58.9018 10.1397 58.6834 10.1397H58.2702V7.09219H58.7615C58.9641 7.09219 59.1121 7.13902 59.2288 7.2249C59.3383 7.30278 59.4237 7.41172 59.4785 7.54419C59.5326 7.66866 59.5721 7.80889 59.5879 7.95736C59.603 8.0976 59.6114 8.23007 59.6114 8.34725V8.97854Z" fill="#1A1A1A"/>
<path d="M51.0686 7.77826C51.7307 7.77826 52.222 7.64579 52.5493 7.36532C52.8844 7.09238 53.0479 6.63285 53.0479 5.99356C53.0479 5.77545 53.0166 5.56486 52.9547 5.36204C52.8922 5.15968 52.7907 4.98792 52.6432 4.83216C52.487 4.68416 52.2922 4.56745 52.043 4.47404C51.7933 4.38816 51.4818 4.34157 51.1072 4.34157H49.0811V4.54392H49.6183V10.1404H49.0811V10.343H51.2166V10.1404H50.6086V7.77826H51.0686ZM50.6086 4.54369H50.9983C51.2089 4.54369 51.3802 4.57498 51.5046 4.6218C51.6296 4.67639 51.723 4.74674 51.7853 4.84016C51.8552 4.93357 51.8943 5.04274 51.9098 5.16721C51.9253 5.29968 51.9333 5.43992 51.9333 5.59592V6.25074C51.9333 6.57027 51.9025 6.81215 51.8552 6.99097C51.8089 7.17026 51.7385 7.30273 51.6526 7.38838C51.5672 7.48179 51.466 7.52885 51.3411 7.55214C51.2166 7.56744 51.0759 7.57544 50.9279 7.57544H50.6086V4.54369Z" fill="#1A1A1A"/>
<path d="M40.1328 4.27064H39.7041L38.4726 9.11909C38.4335 9.25109 38.4027 9.37579 38.3714 9.50097C38.3401 9.61744 38.3015 9.72685 38.2547 9.82003C38.2001 9.91367 38.1375 9.99156 38.0672 10.0461C38.0446 10.0643 38.0161 10.0739 37.9891 10.0868L37.9427 10.0071C37.8881 10.0617 37.8338 10.085 37.7712 10.085C37.6853 10.085 37.6154 10.0384 37.5764 9.94473C37.5373 9.85109 37.5138 9.73415 37.4983 9.58638C37.491 9.44591 37.4832 9.29015 37.4832 9.11085C37.4832 8.93956 37.4754 8.76803 37.4677 8.6045C37.4364 8.27674 37.374 8.01204 37.2568 7.82498C37.1479 7.63015 37.0157 7.48192 36.8754 7.38851C36.7347 7.2871 36.5947 7.22498 36.4623 7.19369C36.3216 7.16239 36.2126 7.1471 36.1345 7.1471L36.1267 7.1078C36.2517 7.01463 36.3293 6.88992 36.3764 6.74145C36.4154 6.59345 36.4467 6.35957 36.4545 6.04028C36.4623 5.9231 36.47 5.79063 36.47 5.63487C36.47 5.4791 36.4851 5.32287 36.5008 5.18264C36.5166 5.0424 36.5477 4.91769 36.5945 4.82428C36.6335 4.72264 36.6957 4.67605 36.7738 4.67605C36.8284 4.67605 36.8519 4.69158 36.8597 4.73064C36.867 4.76193 36.867 4.80075 36.867 4.83981C36.867 4.88664 36.8597 4.92546 36.8519 4.96428C36.8364 4.99558 36.8284 5.03464 36.8128 5.07346C36.8051 5.10452 36.8051 5.12828 36.8051 5.15134C36.8051 5.17511 36.8051 5.20593 36.8051 5.22946C36.8051 5.36193 36.8441 5.48687 36.9295 5.61134C37.0077 5.73628 37.1401 5.7984 37.3274 5.7984C37.5067 5.7984 37.6467 5.72804 37.7479 5.58005C37.8416 5.42405 37.8959 5.25275 37.8959 5.05769C37.8959 4.97981 37.8804 4.89393 37.8495 4.80052C37.826 4.70711 37.7792 4.62123 37.7246 4.54311C37.67 4.46523 37.5921 4.40311 37.4912 4.34852C37.3971 4.29393 37.2724 4.2704 37.1324 4.2704C36.9766 4.2704 36.8441 4.29393 36.735 4.34076C36.626 4.39511 36.5401 4.48076 36.478 4.62123C36.4077 4.7537 36.3531 4.93299 36.3218 5.16664C36.2832 5.39275 36.2592 5.68099 36.2441 6.03981C36.2364 6.28145 36.2206 6.47604 36.1896 6.61651C36.1505 6.75675 36.1041 6.86569 36.0493 6.93604C35.9867 7.00616 35.9244 7.05275 35.8467 7.07627C35.7686 7.09157 35.6827 7.10004 35.5893 7.10004H35.2465V4.54358H35.7844V4.34123H33.7267V4.54358H34.2566V10.14H33.7267V10.3426H35.7844V10.14H35.2465V7.30286H35.6441C35.8157 7.30286 35.9479 7.34168 36.0415 7.4118C36.1347 7.48992 36.2051 7.58333 36.2521 7.70827C36.3067 7.83298 36.3376 7.98121 36.3533 8.13674C36.3768 8.2925 36.3924 8.46427 36.4001 8.6358C36.4237 8.97862 36.4547 9.26685 36.4855 9.49297C36.5168 9.71909 36.5559 9.89862 36.6183 10.0311C36.6728 10.1636 36.751 10.257 36.8521 10.3113C36.9453 10.3737 37.0778 10.4047 37.2418 10.4205C37.3039 10.4283 37.3663 10.4283 37.4284 10.4205C37.4914 10.405 37.5846 10.3817 37.7013 10.3426C37.723 10.3358 37.7427 10.3221 37.7639 10.3125V10.3426H39.2216V10.14C39.0653 10.1245 38.9408 10.101 38.8474 10.0621C38.7538 10.0311 38.6912 9.9452 38.6448 9.8125C38.6293 9.75015 38.6213 9.68803 38.6213 9.6332C38.6291 9.57085 38.6368 9.5085 38.6448 9.44615C38.6757 9.25932 38.699 9.14215 38.707 9.08756C38.7147 9.04097 38.7225 9.00968 38.7305 8.98638L38.8321 8.5965H40.1648L40.578 10.14H40.0554V10.3426H41.9961V10.14H41.6147L40.1328 4.27064ZM38.8627 8.39415L39.5093 5.89981L40.1408 8.39415H38.8627Z" fill="#1A1A1A"/>
<path d="M29.0729 9.15802C28.9712 9.4152 28.8623 9.61778 28.7298 9.77378C28.6049 9.92978 28.4726 10.0387 28.3324 10.1088C28.1999 10.1792 28.0674 10.218 27.9503 10.218C27.8411 10.218 27.7322 10.1792 27.623 10.1088C27.506 10.0387 27.4046 9.91425 27.3112 9.74249C27.2176 9.56343 27.1474 9.32179 27.0851 9.02532C27.0305 8.72932 26.9994 8.34744 26.9994 7.87967L27.0072 6.62462C27.0072 6.48415 27.015 6.29756 27.0227 6.05592C27.0227 5.81427 27.0538 5.57239 27.1084 5.33898C27.163 5.10463 27.2564 4.90251 27.3889 4.73075C27.5213 4.55922 27.7084 4.4738 27.9656 4.4738C28.254 4.4738 28.5192 4.62957 28.7451 4.94886C28.9707 5.26863 29.1347 5.71262 29.2206 6.27403H29.3997V4.34133H29.1658C29.1425 4.41922 29.1115 4.4658 29.0646 4.48933C29.0103 4.51239 28.971 4.52816 28.9397 4.52816C28.9084 4.52816 28.8856 4.52816 28.8618 4.52063C28.8463 4.51263 28.8152 4.5051 28.7839 4.48957C28.6667 4.44275 28.5423 4.39592 28.4018 4.34157C28.2613 4.29475 28.1056 4.27122 27.9418 4.27122C27.63 4.27122 27.3496 4.36486 27.0999 4.54392C26.8427 4.73122 26.6244 4.96486 26.4529 5.25357C26.2738 5.54956 26.1333 5.86933 26.0399 6.22791C25.9385 6.58627 25.8919 6.93732 25.8919 7.28791C25.8919 7.65426 25.9387 8.02038 26.0322 8.38673C26.1256 8.76108 26.266 9.09637 26.4453 9.40037C26.6246 9.69661 26.8427 9.94578 27.1077 10.1328C27.3649 10.3277 27.6611 10.4213 27.9962 10.4213C28.1366 10.4213 28.2378 10.4058 28.3237 10.3745C28.4096 10.3434 28.4719 10.3121 28.5263 10.2811C28.6042 10.2423 28.6745 10.211 28.7369 10.1719C28.807 10.1331 28.8771 10.1175 28.9392 10.1175C28.9938 10.1175 29.0409 10.1331 29.0874 10.1566C29.134 10.1877 29.1809 10.2498 29.2199 10.3437H29.4458L29.5002 8.22367H29.274C29.2366 8.58932 29.1663 8.90861 29.0729 9.15802Z" fill="#1A1A1A"/>
<path d="M23.4999 4.54369H23.9519V7.07685H22.4552V4.54369H22.9074V4.34133H20.9354V4.54369H21.4656V10.1401H20.9354V10.3427H22.9074V10.1401H22.4552V7.27967H23.9519V10.1401H23.4999V10.3427H25.4717V10.1401H24.9418V4.54369H25.4717V4.34133H23.4999V4.54369Z" fill="#1A1A1A"/>
<path d="M32.9776 7.36532C32.8063 7.22509 32.6112 7.10791 32.3853 7.03026C32.1517 6.95991 31.9018 6.92109 31.6218 6.92109H31.3489V4.54369H31.8865V4.34133H29.8211V4.54369H30.3665V10.1401H29.8211V10.3427H31.7307C31.902 10.3427 32.0971 10.3272 32.3074 10.2961C32.5098 10.2648 32.7049 10.1867 32.8842 10.0623C33.0634 9.94531 33.2034 9.77378 33.3206 9.55543C33.4373 9.33731 33.4999 9.04108 33.4999 8.65896C33.4999 8.37873 33.4531 8.12932 33.3592 7.91073C33.266 7.69285 33.1416 7.51356 32.9776 7.36532ZM32.3778 8.98649C32.3778 9.21261 32.362 9.39967 32.331 9.5479C32.2997 9.6959 32.2529 9.81261 32.183 9.89849C32.1204 9.9919 32.0345 10.0543 31.9333 10.0853C31.8319 10.1244 31.715 10.1399 31.5823 10.1399H31.3489V7.12344H31.6218C31.7773 7.12344 31.9018 7.14721 32.0035 7.20132C32.0969 7.24838 32.1747 7.32603 32.2293 7.41991C32.2839 7.52132 32.323 7.63803 32.3465 7.78626C32.3698 7.9265 32.3778 8.09026 32.3778 8.27708V8.98649Z" fill="#1A1A1A"/>
</svg>
