<svg width="71" height="26" viewBox="0 0 71 26" fill="none" xmlns="http://www.w3.org/2000/svg">
<path d="M49.0538 11.3455C49.7963 9.78559 49.88 7.9919 49.2876 6.36946C47.4439 1.84461 39.7067 0.788398 32.0094 4.01454C24.5984 7.12443 19.9261 13.0667 21.2348 17.5466L20.8361 17.5766C19.1411 13.063 24.0147 6.6357 31.9069 3.07707C35.0081 1.62587 38.3767 0.838396 41.8003 0.764648C45.7852 0.764648 48.9251 2.1096 50.0613 4.69451C50.9212 6.65445 50.4813 9.01311 49.0538 11.3455ZM26.6134 14.0679C27.8583 13.1555 29.1558 12.3168 30.4995 11.558C31.9157 10.7093 32.7144 9.89558 32.8956 9.11436C32.9944 8.80062 32.9069 8.45688 32.6694 8.22939C32.4157 7.99815 32.0794 7.87815 31.7369 7.89315C31.1382 7.8819 30.5695 8.14939 30.1957 8.61563C29.832 9.08436 29.5833 9.63309 29.4708 10.2156H26.3009C26.7371 7.16818 29.4583 4.9795 32.5282 5.20825C33.6406 5.13075 34.7443 5.44699 35.6468 6.10196C36.473 6.79194 36.7318 7.80191 36.4218 9.13186C36.1055 10.3243 35.3406 11.348 34.2868 11.9893C33.9769 12.208 33.3244 12.5867 32.3269 13.1255C31.9644 13.3305 31.4719 13.5905 30.8495 13.9067C30.227 14.2254 29.8058 14.4492 29.5833 14.5854H35.1243L34.4518 17.5141H24.3934C24.5397 16.8566 24.8022 16.2304 25.1684 15.6654C25.5734 15.0667 26.0596 14.5292 26.6134 14.0679ZM36.4293 12.1093L43.5615 5.37949H46.8514L45.2502 12.3168H46.7489L46.1327 14.9829H44.6365L44.054 17.5128H40.6954L41.2778 14.9842H35.7655L36.4293 12.1093ZM41.8941 12.3155L42.7503 8.61563L39.0454 12.3155H41.8941ZM28.5658 25.5125C28.5808 25.5663 28.6083 25.615 28.647 25.655C28.702 25.6875 28.767 25.7013 28.8295 25.695H29.5133C29.617 25.695 29.6533 25.6438 29.6208 25.5425L29.2545 24.3601C29.202 24.1951 29.1358 24.0351 29.057 23.8814C28.9895 23.7539 28.8783 23.6551 28.7445 23.6039C28.8695 23.5476 28.972 23.4526 29.0383 23.3326C29.1283 23.1776 29.2008 23.0126 29.2545 22.8414L29.5733 21.8102C29.6058 21.7089 29.5695 21.6577 29.4658 21.6577H28.8295C28.7658 21.6502 28.702 21.6639 28.6458 21.6977C28.607 21.7377 28.5795 21.7877 28.5645 21.8402L28.2708 22.7739C28.2483 22.8514 28.2146 22.9239 28.1683 22.9914C28.1333 23.0414 28.0896 23.0839 28.0396 23.1164C27.9958 23.1439 27.9483 23.1639 27.8983 23.1751C27.8508 23.1851 27.8033 23.1901 27.7546 23.1901H27.4246V21.7814C27.4246 21.7489 27.4171 21.7164 27.4033 21.6864C27.3808 21.6502 27.3396 21.6314 27.2983 21.6389H26.5846C26.5446 21.6339 26.5046 21.6489 26.4771 21.6789C26.4559 21.7077 26.4459 21.7439 26.4471 21.7802V25.5625C26.4384 25.6288 26.4859 25.6888 26.5521 25.6975C26.5634 25.6988 26.5746 25.6988 26.5859 25.6975H27.2996C27.3408 25.705 27.3821 25.6863 27.4046 25.6525C27.4183 25.625 27.4258 25.595 27.4258 25.5638V24.0163H27.7383C27.8433 24.0151 27.9471 24.0413 28.0383 24.0926C28.1521 24.1763 28.2321 24.2988 28.2608 24.4376L28.5658 25.5125ZM31.1907 24.7813H32.3844L32.5819 25.5075C32.5957 25.5588 32.6182 25.6075 32.6482 25.65C32.6844 25.685 32.7357 25.7025 32.7869 25.695H33.5306C33.5619 25.7013 33.5944 25.6863 33.6094 25.6588C33.6169 25.6225 33.6144 25.5838 33.6031 25.5488L32.3957 21.8252C32.3807 21.7764 32.3569 21.7314 32.3269 21.6914C32.2819 21.6527 32.2219 21.6339 32.1619 21.6427H31.4057C31.3482 21.6352 31.2895 21.6527 31.2432 21.6877C31.2107 21.7264 31.1857 21.7714 31.172 21.8189L30.0145 25.5375C29.9945 25.5788 29.992 25.6263 30.0082 25.6688C30.0332 25.69 30.0657 25.7 30.0982 25.6963H30.7645C30.8107 25.6988 30.8582 25.6863 30.8957 25.66C30.9345 25.6238 30.962 25.5775 30.9745 25.5263L31.1907 24.7813ZM32.1744 24.0426H31.3932L31.5732 23.3626L31.7719 22.6214H31.8019L31.9932 23.3714L32.1744 24.0426ZM36.1918 23.1889H35.0206V21.7802C35.0206 21.7477 35.0131 21.7152 34.9993 21.6852C34.9768 21.6502 34.9356 21.6327 34.8943 21.6402H34.1993C34.1606 21.6364 34.1231 21.6514 34.0969 21.6802C34.0756 21.7089 34.0656 21.7452 34.0669 21.7814V25.5638C34.0569 25.6275 34.1006 25.6875 34.1656 25.6975C34.1768 25.6988 34.1881 25.6988 34.1993 25.6975H34.8956C34.9356 25.705 34.9768 25.6888 35.0006 25.655C35.0143 25.6263 35.0218 25.595 35.0218 25.5638V24.0013H36.1918V25.5638C36.1818 25.6275 36.2255 25.6875 36.2905 25.6975C36.3018 25.6988 36.313 25.6988 36.3243 25.6975H37.0205C37.0605 25.705 37.1017 25.6875 37.1255 25.655C37.1392 25.6263 37.1467 25.595 37.1455 25.5638V21.7814C37.1455 21.7489 37.138 21.7164 37.1255 21.6864C37.103 21.6514 37.0617 21.6339 37.0205 21.6414H36.3243C36.2855 21.6377 36.248 21.6527 36.2218 21.6814C36.2005 21.7114 36.1905 21.7464 36.1918 21.7827V23.1889ZM38.7942 24.7813H39.9891L40.1879 25.5075C40.2016 25.5588 40.2241 25.6075 40.2541 25.65C40.2904 25.685 40.3416 25.7025 40.3916 25.695H41.1354C41.1666 25.7013 41.1991 25.6863 41.2141 25.6588C41.2216 25.6225 41.2203 25.5838 41.2078 25.5488L40.0004 21.8252C39.9854 21.7764 39.9616 21.7314 39.9316 21.6914C39.8866 21.6527 39.8266 21.6339 39.7666 21.6427H39.0104C38.9529 21.6352 38.8942 21.6527 38.8479 21.6877C38.8154 21.7264 38.7904 21.7702 38.7754 21.8189L37.618 25.54C37.598 25.5813 37.5955 25.6288 37.6117 25.6713C37.6367 25.6925 37.6692 25.7025 37.7017 25.6988H38.3679C38.4142 25.7013 38.4617 25.6888 38.4992 25.6625C38.5379 25.6263 38.5654 25.58 38.5779 25.5288L38.7942 24.7813ZM39.7779 24.0426H38.9992L39.1792 23.3626L39.3767 22.6214H39.4067L39.5979 23.3714L39.7779 24.0426ZM43.2153 22.4689H43.869V25.5613C43.8603 25.6275 43.9078 25.6875 43.974 25.6963C43.9852 25.6975 43.9965 25.6975 44.0077 25.6963H44.7215C44.7615 25.7038 44.8027 25.6875 44.8265 25.6538C44.8402 25.625 44.8477 25.5938 44.8477 25.5625V21.7864C44.8602 21.7227 44.819 21.6602 44.7552 21.6477C44.7452 21.6452 44.734 21.6452 44.7227 21.6452H42.4903C42.4241 21.6377 42.3641 21.6864 42.3578 21.7527C42.3566 21.7639 42.3566 21.7752 42.3591 21.7864C42.3391 22.1689 42.3166 22.5489 42.2928 22.9276C42.2691 23.3051 42.2441 23.6889 42.2178 24.0763C42.2103 24.2263 42.1928 24.3751 42.1666 24.5213C42.1503 24.6188 42.1166 24.7126 42.0678 24.7988C42.0278 24.8663 41.9691 24.9226 41.9003 24.9613C41.8216 25.0026 41.7366 25.0326 41.6503 25.0526C41.6116 25.0613 41.5753 25.0763 41.5428 25.0976C41.5228 25.1288 41.5141 25.1676 41.5191 25.2051C41.5191 25.2751 41.5191 25.3413 41.5278 25.4063C41.5366 25.4713 41.5366 25.5388 41.5366 25.6075C41.5316 25.6525 41.5453 25.6988 41.5753 25.7325C41.6353 25.765 41.7028 25.7775 41.7703 25.7688C41.9803 25.7713 42.1891 25.7375 42.3878 25.6713C42.5416 25.6175 42.6778 25.5238 42.784 25.4C42.8903 25.2688 42.9653 25.1163 43.0065 24.9513C43.059 24.7438 43.0953 24.5326 43.114 24.3201C43.139 24.0776 43.1553 23.8039 43.1653 23.4964C43.1753 23.1889 43.1915 22.8489 43.2165 22.4739L43.2153 22.4689Z" fill="#D11831"/>
</svg>
