<svg width="33" height="32" viewBox="0 0 33 32" fill="none" xmlns="http://www.w3.org/2000/svg">
<path d="M27.2583 13.1284L26.9638 14.272H28.4657L28.7552 13.1284H27.2583Z" fill="#808888"/>
<path d="M25.8743 18.5125L26.9098 14.4732H28.4117L27.3712 18.5125H25.8743Z" fill="#808888"/>
<path fill-rule="evenodd" clip-rule="evenodd" d="M18.9344 14.4732H23.17L22.9 15.5333H20.2203L20.0779 16.0634H22.6448L22.4239 16.9223H19.8571L19.7147 17.4523H22.4092L22.1393 18.5125H17.8988L18.9344 14.4732ZM13.0497 17.0941H14.6448C14.6448 17.1039 14.6301 17.683 15.4792 17.683C16.0632 17.683 16.1466 17.5014 16.1663 17.4131C16.2006 17.2609 16.0927 17.1873 15.8718 17.1333C15.1798 16.9665 14.2276 16.6622 13.9773 16.51C13.8006 16.402 13.5405 16.1714 13.5405 15.7051C13.5356 15.0867 14.2718 14.3211 15.8473 14.3309C16.6374 14.3358 17.1184 14.4928 17.4129 14.6254C18.046 14.91 18.0902 15.5088 18.0755 15.764L16.5197 15.7591C16.5197 15.7591 16.5147 15.3076 15.8669 15.2781C15.5381 15.2634 15.1798 15.3223 15.1798 15.5775C15.1798 15.7984 15.4006 15.8474 15.9258 15.9652C16.0485 15.9947 16.8927 16.1665 17.1626 16.2646C17.6485 16.4462 17.8841 16.6965 17.8104 17.2315C17.6436 18.4143 16.1074 18.6106 15.3221 18.6155C14.3405 18.6204 13.3049 18.4388 13.0841 17.4622C13.0644 17.3395 13.0497 17.0941 13.0497 17.0941ZM11.1503 17.2069L11.0227 15.6708L10.0166 17.2069H11.1503ZM12.2252 14.4683L12.9368 18.5125H11.2289L11.1896 18.0315H9.5307L9.21168 18.5076H7.41045L10.3847 14.4634H12.2252V14.4683ZM7.85217 17.2708C7.78346 17.418 7.66567 17.6143 7.47916 17.8155C7.11106 18.2082 6.47303 18.6106 5.38346 18.6106C4.0583 18.6106 3.53806 18.1395 3.27794 17.6732C3.09143 17.3395 3.04726 16.991 3.07671 16.6818C3.1307 16.1223 3.67057 14.3407 6.02149 14.3407C7.34174 14.3407 7.86198 14.7726 8.0583 15.2487C8.21536 15.6315 8.15646 16.2204 8.14665 16.2695H6.60064C6.64971 15.975 6.56137 15.4744 6.03131 15.4744C5.44235 15.4695 4.88775 15.9063 4.7307 16.4757C4.55892 17.1088 4.91229 17.4965 5.4718 17.5063C6.07548 17.5211 6.36505 17.0303 6.37487 17.0155H7.95524C7.94542 17.0597 7.88652 17.202 7.85217 17.2708Z" fill="#808888"/>
<path d="M26.0117 17.1481L26.3552 15.8082H26.1491L26.4927 14.4683H24.9957L23.9503 18.5125H25.4522L25.8006 17.1481H26.0117Z" fill="#808888"/>
<path d="M28.4951 15.8082H28.2792L27.9307 17.1481H28.1516L27.8031 18.5125H29.3L30.3405 14.4683H28.8436L28.4951 15.8082Z" fill="#808888"/>
</svg>
